<svg width="100" height="100" viewBox="0 0 100 100" fill="none" xmlns="http://www.w3.org/2000/svg">
<g filter="url(#filter0_i_57_1361)">
<rect width="100" height="100" rx="50" fill="#8F5E30"/>
</g>
<g filter="url(#filter1_d_57_1361)">
<path d="M39.9653 51.3745C47.3716 51.3745 53.3755 45.3706 53.3755 37.9644C53.3755 30.5581 47.3716 24.5542 39.9653 24.5542C32.5591 24.5542 26.5552 30.5581 26.5552 37.9644C26.5552 45.3706 32.5591 51.3745 39.9653 51.3745Z" fill="url(#paint0_radial_57_1361)"/>
<path d="M39.9658 24.5546C47.372 24.5546 53.3759 30.5586 53.3759 37.9648C53.3759 45.371 47.372 51.3749 39.9658 51.3749C32.5596 51.3749 26.5556 45.371 26.5556 37.9648C26.5556 30.5586 32.5596 24.5546 39.9658 24.5546ZM39.9658 24.1016C38.0945 24.1016 36.2788 24.4682 34.5694 25.1912C32.9186 25.8894 31.436 26.889 30.163 28.162C28.8899 29.435 27.8904 30.9176 27.1922 32.5684C26.4691 34.2779 26.1025 36.0934 26.1025 37.9647C26.1025 39.836 26.4691 41.6516 27.1922 43.361C27.8904 45.0119 28.8899 46.4944 30.163 47.7675C31.436 49.0406 32.9186 50.0401 34.5694 50.7383C36.2788 51.4614 38.0945 51.828 39.9658 51.828C41.8371 51.828 43.6527 51.4614 45.3621 50.7383C47.013 50.0401 48.4955 49.0405 49.7685 47.7675C51.0415 46.4945 52.041 45.0119 52.7393 43.361C53.4623 41.6516 53.8289 39.836 53.8289 37.9647C53.8289 36.0934 53.4623 34.2778 52.7393 32.5684C52.041 30.9175 51.0415 29.435 49.7685 28.162C48.4955 26.889 47.0129 25.8894 45.3621 25.1912C43.6527 24.4682 41.8371 24.1016 39.9658 24.1016Z" fill="#114433"/>
<g opacity="0.3">
<mask id="mask0_57_1361" style="mask-type:luminance" maskUnits="userSpaceOnUse" x="26" y="24" width="28" height="28">
<path d="M49.447 47.4472C54.6839 42.2102 54.6839 33.7195 49.447 28.4825C44.21 23.2456 35.7193 23.2456 30.4823 28.4825C25.2454 33.7195 25.2454 42.2102 30.4823 47.4472C35.7193 52.6841 44.21 52.6841 49.447 47.4472Z" fill="white"/>
</mask>
<g mask="url(#mask0_57_1361)">
<path d="M50.8909 26.2637C50.1468 31.566 47.5059 36.5822 43.5555 40.1965C42.1779 41.4568 40.6525 42.5479 39.2809 43.8148C35.7022 47.1201 33.2497 51.6234 32.4146 56.4228L35.821 57.6681C37.4223 54.235 39.0823 50.7183 41.8109 48.0906C43.9536 46.0273 46.6373 44.6297 49.014 42.8409C52.4988 40.2179 55.3235 36.7249 57.1594 32.7684L50.8909 26.2637Z" fill="#1A1A1A"/>
</g>
<mask id="mask1_57_1361" style="mask-type:luminance" maskUnits="userSpaceOnUse" x="26" y="24" width="28" height="28">
<path d="M49.447 47.4472C54.6839 42.2102 54.6839 33.7195 49.447 28.4825C44.21 23.2456 35.7193 23.2456 30.4823 28.4825C25.2454 33.7195 25.2454 42.2102 30.4823 47.4472C35.7193 52.6841 44.21 52.6841 49.447 47.4472Z" fill="white"/>
</mask>
<g mask="url(#mask1_57_1361)">
<path d="M47.7272 24.3711C44.2467 25.8838 41.8139 29.1349 40.1548 32.5481C39.3647 34.1733 38.7015 35.8824 37.6119 37.3241C36.8332 38.3544 35.8547 39.2211 34.8033 39.9709C31.4542 42.3595 27.291 43.5836 23.1821 43.3881L20.2588 26.8142L33.2371 20.3125L47.7272 24.3711Z" fill="#1A1A1A"/>
</g>
</g>
<path opacity="0.2" d="M39.9653 47.4288C33.2296 47.4288 27.6552 42.4623 26.7009 35.9917C26.6059 36.6357 26.5552 37.2943 26.5552 37.9648C26.5552 45.371 32.5591 51.3749 39.9653 51.3749C47.3715 51.3749 53.3754 45.371 53.3754 37.9648C53.3754 37.2943 53.3247 36.6357 53.2297 35.9917C52.2754 42.4623 46.701 47.4288 39.9653 47.4288Z" fill="#1A1A1A"/>
<path opacity="0.3" d="M39.9653 25.475C47.2172 25.475 53.1206 31.2321 53.3638 38.4247C53.369 38.2716 53.3754 38.1187 53.3754 37.9644C53.3754 30.5581 47.3715 24.5542 39.9653 24.5542C32.5591 24.5542 26.5552 30.5581 26.5552 37.9644C26.5552 38.1187 26.5616 38.2716 26.5668 38.4247C26.81 31.2321 32.7136 25.475 39.9653 25.475Z" fill="white"/>
<path opacity="0.5" d="M48.0714 48.3738C48.1187 48.4609 45.6676 49.9976 43.379 50.68C43.2048 50.7319 42.5182 50.9321 41.5969 51.063C40.9624 51.1532 40.599 51.1524 39.8723 51.1507C39.474 51.1498 39.1165 51.1342 38.7396 50.9315C38.4975 50.8013 38.1875 50.5514 38.2354 50.4272C38.3056 50.245 39.116 50.4131 39.5215 50.4784C41.9957 50.8771 44.5049 49.8873 46.2299 49.2068C47.4759 48.7154 48.0483 48.3314 48.0714 48.3738Z" fill="white"/>
<path opacity="0.5" d="M37.8384 50.4374C37.8547 50.5456 37.7454 50.6592 37.6588 50.7133C37.2134 50.9911 36.2489 50.3897 36.3008 50.1832C36.3396 50.0291 36.9528 50.0629 37.3426 50.1581C37.5109 50.1992 37.8137 50.2731 37.8384 50.4374Z" fill="white"/>
<path opacity="0.5" d="M32.2604 48.1102C32.2592 48.1378 32.2548 48.2389 32.1885 48.286C31.8718 48.5106 30.5782 47.2747 29.7441 46.2472C29.1287 45.4892 28.6521 44.6757 28.6918 44.6468C28.7072 44.6355 28.8004 44.7445 29.1193 45.1072C29.7576 45.833 30.0768 46.196 30.2264 46.3458C30.6508 46.7709 30.9301 47.0506 31.3883 47.3433C31.8179 47.6177 32.2729 47.8191 32.2604 48.1102Z" fill="white"/>
<path opacity="0.5" d="M42.5544 27.2255C42.8732 27.2255 43.1317 26.967 43.1317 26.6481C43.1317 26.3293 42.8732 26.0708 42.5544 26.0708C42.2355 26.0708 41.9771 26.3293 41.9771 26.6481C41.9771 26.967 42.2355 27.2255 42.5544 27.2255Z" fill="white"/>
<path opacity="0.5" d="M41.5384 26.4801C41.3454 26.8429 40.7559 26.8843 40.0477 26.8893C38.6398 26.8993 37.4152 26.908 37.3877 26.6555C37.359 26.3917 38.6602 26.0491 39.5215 25.9248C39.8206 25.8815 41.3869 25.6555 41.5823 26.144C41.6402 26.2888 41.557 26.4452 41.5384 26.4801Z" fill="white"/>
</g>
<defs>
<filter id="filter0_i_57_1361" x="0" y="0" width="100" height="100" filterUnits="userSpaceOnUse" color-interpolation-filters="sRGB">
<feFlood flood-opacity="0" result="BackgroundImageFix"/>
<feBlend mode="normal" in="SourceGraphic" in2="BackgroundImageFix" result="shape"/>
<feColorMatrix in="SourceAlpha" type="matrix" values="0 0 0 0 0 0 0 0 0 0 0 0 0 0 0 0 0 0 127 0" result="hardAlpha"/>
<feMorphology radius="10" operator="erode" in="SourceAlpha" result="effect1_innerShadow_57_1361"/>
<feOffset/>
<feGaussianBlur stdDeviation="5"/>
<feComposite in2="hardAlpha" operator="arithmetic" k2="-1" k3="1"/>
<feColorMatrix type="matrix" values="0 0 0 0 0 0 0 0 0 0 0 0 0 0 0 0 0 0 0.3 0"/>
<feBlend mode="normal" in2="shape" result="effect1_innerShadow_57_1361"/>
</filter>
<filter id="filter1_d_57_1361" x="21.6025" y="20.6016" width="36.7266" height="36.7266" filterUnits="userSpaceOnUse" color-interpolation-filters="sRGB">
<feFlood flood-opacity="0" result="BackgroundImageFix"/>
<feColorMatrix in="SourceAlpha" type="matrix" values="0 0 0 0 0 0 0 0 0 0 0 0 0 0 0 0 0 0 127 0" result="hardAlpha"/>
<feOffset dy="1"/>
<feGaussianBlur stdDeviation="2.25"/>
<feComposite in2="hardAlpha" operator="out"/>
<feColorMatrix type="matrix" values="0 0 0 0 0 0 0 0 0 0 0 0 0 0 0 0 0 0 0.6 0"/>
<feBlend mode="normal" in2="BackgroundImageFix" result="effect1_dropShadow_57_1361"/>
<feBlend mode="normal" in="SourceGraphic" in2="effect1_dropShadow_57_1361" result="shape"/>
</filter>
<radialGradient id="paint0_radial_57_1361" cx="0" cy="0" r="1" gradientUnits="userSpaceOnUse" gradientTransform="translate(39.9653 37.9644) scale(13.4101)">
<stop stop-color="#47C1FF"/>
<stop offset="0.1526" stop-color="#44BEFA"/>
<stop offset="0.3401" stop-color="#3CB4EB"/>
<stop offset="0.5458" stop-color="#2EA3D2"/>
<stop offset="0.7647" stop-color="#1A8CAF"/>
<stop offset="0.9917" stop-color="#016F83"/>
<stop offset="1" stop-color="#006E81"/>
</radialGradient>
</defs>
</svg>
