<svg width="100" height="200" viewBox="0 0 100 200" fill="none" xmlns="http://www.w3.org/2000/svg">
<g filter="url(#filter0_i_57_1358)">
<rect width="100" height="200" rx="20" fill="#8F5E30"/>
</g>
<g filter="url(#filter1_d_57_1358)">
<path d="M44.9653 169.375C52.3716 169.375 58.3755 163.371 58.3755 155.964C58.3755 148.558 52.3716 142.554 44.9653 142.554C37.5591 142.554 31.5552 148.558 31.5552 155.964C31.5552 163.371 37.5591 169.375 44.9653 169.375Z" fill="url(#paint0_radial_57_1358)"/>
<path d="M44.9652 142.555C52.3714 142.555 58.3754 148.559 58.3754 155.965C58.3754 163.371 52.3714 169.375 44.9652 169.375C37.559 169.375 31.5551 163.371 31.5551 155.965C31.5551 148.559 37.559 142.555 44.9652 142.555ZM44.9652 142.102C43.0939 142.102 41.2783 142.468 39.5689 143.191C37.918 143.889 36.4355 144.889 35.1625 146.162C33.8895 147.435 32.8899 148.918 32.1917 150.568C31.4686 152.278 31.1021 154.093 31.1021 155.965C31.1021 157.836 31.4686 159.652 32.1917 161.361C32.8899 163.012 33.8895 164.494 35.1625 165.768C36.4355 167.041 37.9181 168.04 39.5689 168.738C41.2783 169.461 43.0939 169.828 44.9652 169.828C46.8365 169.828 48.6522 169.461 50.3615 168.738C52.0124 168.04 53.4949 167.041 54.768 165.768C56.0411 164.494 57.0406 163.012 57.7388 161.361C58.4619 159.652 58.8284 157.836 58.8284 155.965C58.8284 154.093 58.4619 152.278 57.7388 150.568C57.0406 148.918 56.041 147.435 54.768 146.162C53.495 144.889 52.0124 143.889 50.3615 143.191C48.6522 142.468 46.8365 142.102 44.9652 142.102Z" fill="#3F5916"/>
<g opacity="0.3">
<mask id="mask0_57_1358" style="mask-type:luminance" maskUnits="userSpaceOnUse" x="31" y="142" width="28" height="28">
<path d="M54.447 165.447C59.6839 160.21 59.6839 151.719 54.447 146.482C49.21 141.245 40.7193 141.245 35.4823 146.482C30.2454 151.719 30.2454 160.21 35.4823 165.447C40.7193 170.684 49.21 170.684 54.447 165.447Z" fill="white"/>
</mask>
<g mask="url(#mask0_57_1358)">
<path d="M55.8904 144.264C55.1464 149.566 52.5055 154.582 48.555 158.197C47.1774 159.457 45.652 160.548 44.2804 161.815C40.7017 165.12 38.2492 169.623 37.4141 174.423L40.8205 175.668C42.4218 172.235 44.0818 168.718 46.8104 166.091C48.9531 164.027 51.6369 162.63 54.0135 160.841C57.4983 158.218 60.323 154.725 62.1589 150.768L55.8904 144.264Z" fill="#1A1A1A"/>
</g>
<mask id="mask1_57_1358" style="mask-type:luminance" maskUnits="userSpaceOnUse" x="31" y="142" width="28" height="28">
<path d="M54.447 165.447C59.6839 160.21 59.6839 151.719 54.447 146.482C49.21 141.245 40.7193 141.245 35.4823 146.482C30.2454 151.719 30.2454 160.21 35.4823 165.447C40.7193 170.684 49.21 170.684 54.447 165.447Z" fill="white"/>
</mask>
<g mask="url(#mask1_57_1358)">
<path d="M52.7267 142.371C49.2462 143.884 46.8134 147.135 45.1543 150.548C44.3643 152.173 43.701 153.882 42.6114 155.324C41.8327 156.354 40.8542 157.221 39.8028 157.971C36.4537 160.359 32.2905 161.584 28.1816 161.388L25.2583 144.814L38.2366 138.312L52.7267 142.371Z" fill="#1A1A1A"/>
</g>
</g>
<path opacity="0.2" d="M44.9653 165.429C38.2296 165.429 32.6552 160.462 31.7009 153.992C31.6059 154.636 31.5552 155.294 31.5552 155.965C31.5552 163.371 37.5591 169.375 44.9653 169.375C52.3715 169.375 58.3754 163.371 58.3754 155.965C58.3754 155.294 58.3247 154.636 58.2297 153.992C57.2754 160.462 51.701 165.429 44.9653 165.429Z" fill="#1A1A1A"/>
<path opacity="0.3" d="M44.9653 143.475C52.2171 143.475 58.1206 149.232 58.3638 156.425C58.369 156.272 58.3754 156.119 58.3754 155.964C58.3754 148.558 52.3715 142.554 44.9653 142.554C37.5591 142.554 31.5552 148.558 31.5552 155.964C31.5552 156.119 31.5616 156.272 31.5668 156.425C31.81 149.232 37.7136 143.475 44.9653 143.475Z" fill="white"/>
<path opacity="0.5" d="M53.0714 166.374C53.1187 166.461 50.6676 167.998 48.379 168.68C48.2048 168.732 47.5182 168.932 46.5969 169.063C45.9624 169.153 45.599 169.152 44.8723 169.151C44.474 169.15 44.1165 169.134 43.7396 168.931C43.4975 168.801 43.1875 168.551 43.2354 168.427C43.3056 168.245 44.116 168.413 44.5215 168.478C46.9957 168.877 49.5049 167.887 51.2299 167.207C52.4759 166.715 53.0483 166.331 53.0714 166.374Z" fill="white"/>
<path opacity="0.5" d="M42.8384 168.437C42.8548 168.546 42.7454 168.659 42.6588 168.713C42.2134 168.991 41.249 168.39 41.3008 168.183C41.3396 168.029 41.9528 168.063 42.3426 168.158C42.5109 168.199 42.8136 168.273 42.8384 168.437Z" fill="white"/>
<path opacity="0.5" d="M37.2604 166.11C37.2592 166.138 37.2548 166.239 37.1885 166.286C36.8718 166.511 35.5782 165.275 34.7441 164.247C34.1287 163.489 33.6521 162.676 33.6918 162.647C33.7072 162.635 33.8004 162.744 34.1193 163.107C34.7577 163.833 35.0768 164.196 35.2264 164.346C35.6508 164.771 35.9301 165.051 36.3883 165.343C36.8179 165.618 37.2729 165.819 37.2604 166.11Z" fill="white"/>
<path opacity="0.5" d="M47.5539 145.225C47.8727 145.225 48.1312 144.967 48.1312 144.648C48.1312 144.329 47.8727 144.071 47.5539 144.071C47.235 144.071 46.9766 144.329 46.9766 144.648C46.9766 144.967 47.235 145.225 47.5539 145.225Z" fill="white"/>
<path opacity="0.5" d="M46.5384 144.48C46.3454 144.843 45.7559 144.884 45.0477 144.889C43.6398 144.899 42.4152 144.908 42.3877 144.656C42.359 144.392 43.6602 144.049 44.5215 143.925C44.8206 143.882 46.3869 143.655 46.5823 144.144C46.6402 144.289 46.557 144.445 46.5384 144.48Z" fill="white"/>
</g>
<g filter="url(#filter2_d_57_1358)">
<path d="M49.8633 63.2734C57.2695 63.2734 63.2734 57.2695 63.2734 49.8633C63.2734 42.4571 57.2695 36.4531 49.8633 36.4531C42.4571 36.4531 36.4531 42.4571 36.4531 49.8633C36.4531 57.2695 42.4571 63.2734 49.8633 63.2734Z" fill="url(#paint1_radial_57_1358)"/>
<path d="M49.8632 36.4531C57.2694 36.4531 63.2734 42.457 63.2734 49.8632C63.2734 57.2695 57.2694 63.2734 49.8632 63.2734C42.457 63.2734 36.4531 57.2694 36.4531 49.8632C36.4531 42.457 42.457 36.4531 49.8632 36.4531ZM49.8632 36C47.9919 36 46.1763 36.3666 44.4669 37.0896C42.816 37.7879 41.3335 38.7874 40.0604 40.0604C38.7874 41.3335 37.7879 42.816 37.0896 44.4668C36.3666 46.1763 36 47.9919 36 49.8632C36 51.7345 36.3666 53.55 37.0896 55.2595C37.7879 56.9104 38.7874 58.3929 40.0604 59.666C41.3335 60.939 42.816 61.9385 44.4669 62.6368C46.1763 63.3598 47.9919 63.7264 49.8632 63.7264C51.7345 63.7264 53.5502 63.3598 55.2595 62.6368C56.9104 61.9385 58.3929 60.939 59.666 59.666C60.939 58.3929 61.9385 56.9104 62.6367 55.2595C63.3598 53.55 63.7264 51.7345 63.7264 49.8632C63.7264 47.9919 63.3598 46.1763 62.6367 44.4668C61.9385 42.816 60.939 41.3335 59.666 40.0604C58.3929 38.7874 56.9104 37.7879 55.2595 37.0896C53.5502 36.3666 51.7345 36 49.8632 36Z" fill="#550015"/>
<g opacity="0.3">
<mask id="mask2_57_1358" style="mask-type:luminance" maskUnits="userSpaceOnUse" x="36" y="36" width="28" height="28">
<path d="M49.8633 63.2734C57.2695 63.2734 63.2734 57.2695 63.2734 49.8633C63.2734 42.4571 57.2695 36.4531 49.8633 36.4531C42.4571 36.4531 36.4531 42.4571 36.4531 49.8633C36.4531 57.2695 42.4571 63.2734 49.8633 63.2734Z" fill="white"/>
</mask>
<g mask="url(#mask2_57_1358)">
<path d="M60.7884 38.1621C60.0443 43.4645 57.4034 48.4807 53.4529 52.0949C52.0754 53.3553 50.5499 54.4464 49.1783 55.7132C45.5997 59.0185 43.1471 63.5218 42.312 68.3212L45.7184 69.5665C47.3198 66.1334 48.9798 62.6168 51.7084 59.9891C53.851 57.9258 56.5348 56.5282 58.9115 54.7394C62.3963 52.1164 65.221 48.6234 67.0568 44.6669L60.7884 38.1621Z" fill="#1A1A1A"/>
</g>
<mask id="mask3_57_1358" style="mask-type:luminance" maskUnits="userSpaceOnUse" x="36" y="36" width="28" height="28">
<path d="M49.8633 63.2734C57.2695 63.2734 63.2734 57.2695 63.2734 49.8633C63.2734 42.4571 57.2695 36.4531 49.8633 36.4531C42.4571 36.4531 36.4531 42.4571 36.4531 49.8633C36.4531 57.2695 42.4571 63.2734 49.8633 63.2734Z" fill="white"/>
</mask>
<g mask="url(#mask3_57_1358)">
<path d="M57.6246 36.27C54.1441 37.7827 51.7113 41.0338 50.0523 44.447C49.2622 46.0723 48.599 47.7813 47.5093 49.223C46.7307 50.2533 45.7521 51.12 44.7007 51.8698C41.3517 54.2584 37.1884 55.4825 33.0795 55.287L30.1562 38.7131L43.1346 32.2114L57.6246 36.27Z" fill="#1A1A1A"/>
</g>
</g>
<path opacity="0.2" d="M49.8633 59.3272C43.1276 59.3272 37.5532 54.3607 36.5988 47.8901C36.5038 48.5342 36.4531 49.1927 36.4531 49.8632C36.4531 57.2694 42.4571 63.2733 49.8633 63.2733C57.2694 63.2733 63.2734 57.2694 63.2734 49.8632C63.2734 49.1927 63.2226 48.5342 63.1277 47.8901C62.1734 54.3607 56.599 59.3272 49.8633 59.3272Z" fill="#1A1A1A"/>
<path opacity="0.3" d="M49.8633 37.3739C57.1151 37.3739 63.0186 43.131 63.2618 50.3237C63.2669 50.1705 63.2734 50.0177 63.2734 49.8633C63.2734 42.4571 57.2694 36.4531 49.8633 36.4531C42.4571 36.4531 36.4531 42.4571 36.4531 49.8633C36.4531 50.0177 36.4596 50.1705 36.4648 50.3237C36.7079 43.131 42.6115 37.3739 49.8633 37.3739Z" fill="white"/>
<path opacity="0.5" d="M57.9693 60.2722C58.0167 60.3593 55.5656 61.896 53.277 62.5784C53.1027 62.6304 52.4161 62.8305 51.4948 62.9615C50.8603 63.0516 50.497 63.0508 49.7703 63.0491C49.3719 63.0482 49.0145 63.0326 48.6376 62.8299C48.3954 62.6997 48.0855 62.4499 48.1334 62.3257C48.2036 62.1434 49.014 62.3115 49.4195 62.3768C51.8936 62.7755 54.4028 61.7857 56.1279 61.1053C57.3738 60.6139 57.9462 60.2298 57.9693 60.2722Z" fill="white"/>
<path opacity="0.5" d="M47.7364 62.3358C47.7527 62.444 47.6434 62.5577 47.5568 62.6117C47.1113 62.8896 46.1469 62.2882 46.1988 62.0817C46.2375 61.9275 46.8507 61.9614 47.2406 62.0566C47.4088 62.0976 47.7116 62.1715 47.7364 62.3358Z" fill="white"/>
<path opacity="0.5" d="M42.1578 60.0091C42.1567 60.0367 42.1522 60.1378 42.0859 60.1849C41.7693 60.4096 40.4756 59.1736 39.6415 58.1461C39.0262 57.3881 38.5496 56.5746 38.5892 56.5457C38.6047 56.5344 38.6978 56.6434 39.0167 57.0061C39.6551 57.732 39.9743 58.0949 40.1238 58.2447C40.5483 58.6698 40.8276 58.9495 41.2858 59.2422C41.7154 59.5166 42.1704 59.7181 42.1578 60.0091Z" fill="white"/>
<path opacity="0.5" d="M52.8595 38.9556C53.0849 38.7301 53.0849 38.3646 52.8595 38.1391C52.634 37.9137 52.2685 37.9137 52.043 38.1391C51.8175 38.3646 51.8175 38.7301 52.043 38.9556C52.2685 39.181 52.634 39.181 52.8595 38.9556Z" fill="white"/>
<path opacity="0.5" d="M51.4363 38.3791C51.2433 38.7418 50.6538 38.7833 49.9456 38.7883C48.5377 38.7982 47.3131 38.8069 47.2856 38.5544C47.2569 38.2906 48.5582 37.948 49.4194 37.8237C49.7186 37.7805 51.2849 37.5544 51.4802 38.0429C51.5381 38.1878 51.4549 38.3441 51.4363 38.3791Z" fill="white"/>
</g>
<g filter="url(#filter3_d_57_1358)">
<path d="M27.8633 97.2734C35.2695 97.2734 41.2734 91.2695 41.2734 83.8633C41.2734 76.4571 35.2695 70.4531 27.8633 70.4531C20.4571 70.4531 14.4531 76.4571 14.4531 83.8633C14.4531 91.2695 20.4571 97.2734 27.8633 97.2734Z" fill="url(#paint2_radial_57_1358)"/>
<path d="M27.8632 70.4531C35.2694 70.4531 41.2734 76.457 41.2734 83.8632C41.2734 91.2695 35.2694 97.2734 27.8632 97.2734C20.457 97.2734 14.4531 91.2694 14.4531 83.8632C14.4531 76.457 20.457 70.4531 27.8632 70.4531ZM27.8632 70C25.9919 70 24.1763 70.3666 22.4669 71.0896C20.816 71.7879 19.3335 72.7874 18.0604 74.0604C16.7874 75.3335 15.7879 76.816 15.0896 78.4668C14.3666 80.1763 14 81.9919 14 83.8632C14 85.7345 14.3666 87.55 15.0896 89.2595C15.7879 90.9104 16.7874 92.3929 18.0604 93.666C19.3335 94.939 20.816 95.9385 22.4669 96.6368C24.1763 97.3598 25.9919 97.7264 27.8632 97.7264C29.7345 97.7264 31.5502 97.3598 33.2595 96.6368C34.9104 95.9385 36.3929 94.939 37.666 93.666C38.939 92.3929 39.9385 90.9104 40.6368 89.2595C41.3598 87.55 41.7264 85.7345 41.7264 83.8632C41.7264 81.9919 41.3598 80.1763 40.6368 78.4668C39.9385 76.816 38.939 75.3335 37.666 74.0604C36.3929 72.7874 34.9104 71.7879 33.2595 71.0896C31.5502 70.3666 29.7345 70 27.8632 70Z" fill="#9C6400"/>
<g opacity="0.3">
<mask id="mask4_57_1358" style="mask-type:luminance" maskUnits="userSpaceOnUse" x="14" y="70" width="28" height="28">
<path d="M27.8633 97.2734C35.2695 97.2734 41.2734 91.2695 41.2734 83.8633C41.2734 76.4571 35.2695 70.4531 27.8633 70.4531C20.4571 70.4531 14.4531 76.4571 14.4531 83.8633C14.4531 91.2695 20.4571 97.2734 27.8633 97.2734Z" fill="white"/>
</mask>
<g mask="url(#mask4_57_1358)">
<path d="M38.7884 72.1621C38.0443 77.4645 35.4034 82.4807 31.4529 86.0949C30.0754 87.3553 28.5499 88.4464 27.1783 89.7132C23.5997 93.0185 21.1472 97.5218 20.312 102.321L23.7184 103.566C25.3198 100.133 26.9798 96.6168 29.7084 93.9891C31.851 91.9258 34.5348 90.5282 36.9115 88.7394C40.3963 86.1164 43.221 82.6234 45.0568 78.6669L38.7884 72.1621Z" fill="#1A1A1A"/>
</g>
<mask id="mask5_57_1358" style="mask-type:luminance" maskUnits="userSpaceOnUse" x="14" y="70" width="28" height="28">
<path d="M27.8633 97.2734C35.2695 97.2734 41.2734 91.2695 41.2734 83.8633C41.2734 76.4571 35.2695 70.4531 27.8633 70.4531C20.4571 70.4531 14.4531 76.4571 14.4531 83.8633C14.4531 91.2695 20.4571 97.2734 27.8633 97.2734Z" fill="white"/>
</mask>
<g mask="url(#mask5_57_1358)">
<path d="M35.6246 70.27C32.1441 71.7828 29.7113 75.0339 28.0522 78.447C27.2621 80.0723 26.5989 81.7814 25.5093 83.2231C24.7306 84.2533 23.7521 85.1201 22.7007 85.8699C19.3516 88.2584 15.1884 89.4826 11.0795 89.2871L8.15625 72.7132L21.1346 66.2114L35.6246 70.27Z" fill="#1A1A1A"/>
</g>
</g>
<path opacity="0.2" d="M27.8633 93.3272C21.1276 93.3272 15.5532 88.3607 14.5988 81.8901C14.5038 82.5342 14.4531 83.1927 14.4531 83.8632C14.4531 91.2694 20.4571 97.2733 27.8633 97.2733C35.2695 97.2733 41.2734 91.2694 41.2734 83.8632C41.2734 83.1927 41.2226 82.5342 41.1277 81.8901C40.1734 88.3607 34.599 93.3272 27.8633 93.3272Z" fill="#1A1A1A"/>
<path opacity="0.3" d="M27.8633 71.3739C35.1151 71.3739 41.0186 77.131 41.2618 84.3237C41.2669 84.1705 41.2734 84.0177 41.2734 83.8633C41.2734 76.4571 35.2694 70.4531 27.8633 70.4531C20.4571 70.4531 14.4531 76.4571 14.4531 83.8633C14.4531 84.0177 14.4596 84.1705 14.4648 84.3237C14.7079 77.131 20.6115 71.3739 27.8633 71.3739Z" fill="white"/>
<path opacity="0.5" d="M35.9688 94.2722C36.0162 94.3593 33.5651 95.896 31.2765 96.5784C31.1022 96.6304 30.4156 96.8305 29.4943 96.9615C28.8599 97.0516 28.4965 97.0508 27.7698 97.0491C27.3715 97.0482 27.014 97.0326 26.6371 96.8299C26.3949 96.6997 26.085 96.4499 26.1329 96.3257C26.2031 96.1434 27.0135 96.3115 27.419 96.3768C29.8931 96.7755 32.4023 95.7857 34.1274 95.1053C35.3733 94.6139 35.9457 94.2298 35.9688 94.2722Z" fill="white"/>
<path opacity="0.5" d="M25.7359 96.3358C25.7522 96.444 25.6429 96.5577 25.5563 96.6117C25.1108 96.8896 24.1464 96.2882 24.1983 96.0817C24.237 95.9275 24.8502 95.9614 25.2401 96.0566C25.4083 96.0976 25.7111 96.1715 25.7359 96.3358Z" fill="white"/>
<path opacity="0.5" d="M20.1578 94.0091C20.1567 94.0367 20.1522 94.1378 20.0859 94.1849C19.7693 94.4096 18.4756 93.1736 17.6415 92.1461C17.0262 91.3881 16.5496 90.5746 16.5892 90.5457C16.6047 90.5344 16.6978 90.6434 17.0168 91.0061C17.6551 91.732 17.9743 92.0949 18.1238 92.2447C18.5482 92.6698 18.8276 92.9495 19.2858 93.2422C19.7154 93.5166 20.1704 93.7181 20.1578 94.0091Z" fill="white"/>
<path opacity="0.5" d="M30.7921 73.0127C31.0493 72.8243 31.1051 72.463 30.9166 72.2058C30.7282 71.9486 30.367 71.8928 30.1098 72.0812C29.8526 72.2696 29.7968 72.6309 29.9852 72.8881C30.1736 73.1453 30.5348 73.2011 30.7921 73.0127Z" fill="white"/>
<path opacity="0.5" d="M29.4358 72.3791C29.2428 72.7418 28.6533 72.7833 27.9451 72.7883C26.5373 72.7982 25.3127 72.8069 25.2851 72.5544C25.2564 72.2906 26.5577 71.948 27.4189 71.8237C27.7181 71.7805 29.2845 71.5544 29.4797 72.0429C29.5376 72.1878 29.4544 72.3441 29.4358 72.3791Z" fill="white"/>
</g>
<defs>
<filter id="filter0_i_57_1358" x="0" y="0" width="100" height="200" filterUnits="userSpaceOnUse" color-interpolation-filters="sRGB">
<feFlood flood-opacity="0" result="BackgroundImageFix"/>
<feBlend mode="normal" in="SourceGraphic" in2="BackgroundImageFix" result="shape"/>
<feColorMatrix in="SourceAlpha" type="matrix" values="0 0 0 0 0 0 0 0 0 0 0 0 0 0 0 0 0 0 127 0" result="hardAlpha"/>
<feMorphology radius="10" operator="erode" in="SourceAlpha" result="effect1_innerShadow_57_1358"/>
<feOffset/>
<feGaussianBlur stdDeviation="5"/>
<feComposite in2="hardAlpha" operator="arithmetic" k2="-1" k3="1"/>
<feColorMatrix type="matrix" values="0 0 0 0 0 0 0 0 0 0 0 0 0 0 0 0 0 0 0.3 0"/>
<feBlend mode="normal" in2="shape" result="effect1_innerShadow_57_1358"/>
</filter>
<filter id="filter1_d_57_1358" x="26.6021" y="138.602" width="36.7266" height="36.7266" filterUnits="userSpaceOnUse" color-interpolation-filters="sRGB">
<feFlood flood-opacity="0" result="BackgroundImageFix"/>
<feColorMatrix in="SourceAlpha" type="matrix" values="0 0 0 0 0 0 0 0 0 0 0 0 0 0 0 0 0 0 127 0" result="hardAlpha"/>
<feOffset dy="1"/>
<feGaussianBlur stdDeviation="2.25"/>
<feComposite in2="hardAlpha" operator="out"/>
<feColorMatrix type="matrix" values="0 0 0 0 0 0 0 0 0 0 0 0 0 0 0 0 0 0 0.6 0"/>
<feBlend mode="normal" in2="BackgroundImageFix" result="effect1_dropShadow_57_1358"/>
<feBlend mode="normal" in="SourceGraphic" in2="effect1_dropShadow_57_1358" result="shape"/>
</filter>
<filter id="filter2_d_57_1358" x="31.5" y="32.5" width="36.7266" height="36.7266" filterUnits="userSpaceOnUse" color-interpolation-filters="sRGB">
<feFlood flood-opacity="0" result="BackgroundImageFix"/>
<feColorMatrix in="SourceAlpha" type="matrix" values="0 0 0 0 0 0 0 0 0 0 0 0 0 0 0 0 0 0 127 0" result="hardAlpha"/>
<feOffset dy="1"/>
<feGaussianBlur stdDeviation="2.25"/>
<feComposite in2="hardAlpha" operator="out"/>
<feColorMatrix type="matrix" values="0 0 0 0 0 0 0 0 0 0 0 0 0 0 0 0 0 0 0.6 0"/>
<feBlend mode="normal" in2="BackgroundImageFix" result="effect1_dropShadow_57_1358"/>
<feBlend mode="normal" in="SourceGraphic" in2="effect1_dropShadow_57_1358" result="shape"/>
</filter>
<filter id="filter3_d_57_1358" x="9.5" y="66.5" width="36.7266" height="36.7266" filterUnits="userSpaceOnUse" color-interpolation-filters="sRGB">
<feFlood flood-opacity="0" result="BackgroundImageFix"/>
<feColorMatrix in="SourceAlpha" type="matrix" values="0 0 0 0 0 0 0 0 0 0 0 0 0 0 0 0 0 0 127 0" result="hardAlpha"/>
<feOffset dy="1"/>
<feGaussianBlur stdDeviation="2.25"/>
<feComposite in2="hardAlpha" operator="out"/>
<feColorMatrix type="matrix" values="0 0 0 0 0 0 0 0 0 0 0 0 0 0 0 0 0 0 0.6 0"/>
<feBlend mode="normal" in2="BackgroundImageFix" result="effect1_dropShadow_57_1358"/>
<feBlend mode="normal" in="SourceGraphic" in2="effect1_dropShadow_57_1358" result="shape"/>
</filter>
<radialGradient id="paint0_radial_57_1358" cx="0" cy="0" r="1" gradientUnits="userSpaceOnUse" gradientTransform="translate(44.9653 155.964) scale(13.4101)">
<stop stop-color="#C9FF28"/>
<stop offset="0.1578" stop-color="#C4FA26"/>
<stop offset="0.3517" stop-color="#B6EB21"/>
<stop offset="0.5645" stop-color="#A0D219"/>
<stop offset="0.7892" stop-color="#80AF0D"/>
<stop offset="1" stop-color="#5C8800"/>
</radialGradient>
<radialGradient id="paint1_radial_57_1358" cx="0" cy="0" r="1" gradientUnits="userSpaceOnUse" gradientTransform="translate(49.8633 49.8633) scale(13.4101)">
<stop stop-color="#FE6361"/>
<stop offset="0.1671" stop-color="#F9605C"/>
<stop offset="0.3724" stop-color="#EA564F"/>
<stop offset="0.5977" stop-color="#D14638"/>
<stop offset="0.8357" stop-color="#AE2F19"/>
<stop offset="1" stop-color="#921D00"/>
</radialGradient>
<radialGradient id="paint2_radial_57_1358" cx="0" cy="0" r="1" gradientUnits="userSpaceOnUse" gradientTransform="translate(27.8633 83.8633) scale(13.4101)">
<stop stop-color="#FECC5C"/>
<stop offset="0.2365" stop-color="#FDC857"/>
<stop offset="0.527" stop-color="#FABB48"/>
<stop offset="0.8444" stop-color="#F4A62F"/>
<stop offset="1" stop-color="#F19920"/>
</radialGradient>
</defs>
</svg>
