<svg width="100" height="200" viewBox="0 0 100 200" fill="none" xmlns="http://www.w3.org/2000/svg">
<g filter="url(#filter0_i_57_1360)">
<rect width="100" height="200" rx="20" fill="#8F5E30"/>
</g>
<g filter="url(#filter1_d_57_1360)">
<path d="M38.9653 87.3745C46.3716 87.3745 52.3755 81.3706 52.3755 73.9644C52.3755 66.5581 46.3716 60.5542 38.9653 60.5542C31.5591 60.5542 25.5552 66.5581 25.5552 73.9644C25.5552 81.3706 31.5591 87.3745 38.9653 87.3745Z" fill="url(#paint0_radial_57_1360)"/>
<path d="M38.9658 60.5546C46.372 60.5546 52.3759 66.5586 52.3759 73.9648C52.3759 81.371 46.372 87.3749 38.9658 87.3749C31.5596 87.3749 25.5556 81.371 25.5556 73.9648C25.5556 66.5586 31.5596 60.5546 38.9658 60.5546ZM38.9658 60.1016C37.0945 60.1016 35.2788 60.4682 33.5694 61.1912C31.9186 61.8894 30.436 62.889 29.163 64.162C27.8899 65.435 26.8904 66.9176 26.1922 68.5684C25.4691 70.2779 25.1025 72.0934 25.1025 73.9647C25.1025 75.836 25.4691 77.6516 26.1922 79.361C26.8904 81.0119 27.8899 82.4944 29.163 83.7675C30.436 85.0406 31.9186 86.0401 33.5694 86.7383C35.2788 87.4614 37.0945 87.828 38.9658 87.828C40.8371 87.828 42.6527 87.4614 44.3621 86.7383C46.013 86.0401 47.4955 85.0405 48.7685 83.7675C50.0415 82.4945 51.041 81.0119 51.7393 79.361C52.4623 77.6516 52.8289 75.836 52.8289 73.9647C52.8289 72.0934 52.4623 70.2778 51.7393 68.5684C51.041 66.9175 50.0415 65.435 48.7685 64.162C47.4955 62.889 46.0129 61.8894 44.3621 61.1912C42.6527 60.4682 40.8371 60.1016 38.9658 60.1016Z" fill="#114433"/>
<g opacity="0.3">
<mask id="mask0_57_1360" style="mask-type:luminance" maskUnits="userSpaceOnUse" x="25" y="60" width="28" height="28">
<path d="M48.447 83.4472C53.6839 78.2102 53.6839 69.7195 48.447 64.4825C43.21 59.2456 34.7193 59.2456 29.4823 64.4825C24.2454 69.7195 24.2454 78.2102 29.4823 83.4472C34.7193 88.6841 43.21 88.6841 48.447 83.4472Z" fill="white"/>
</mask>
<g mask="url(#mask0_57_1360)">
<path d="M49.8909 62.2637C49.1468 67.566 46.5059 72.5822 42.5555 76.1965C41.1779 77.4568 39.6525 78.5479 38.2809 79.8148C34.7022 83.1201 32.2497 87.6234 31.4146 92.4228L34.821 93.6681C36.4223 90.235 38.0823 86.7183 40.8109 84.0906C42.9536 82.0273 45.6373 80.6297 48.014 78.8409C51.4988 76.2179 54.3235 72.7249 56.1594 68.7684L49.8909 62.2637Z" fill="#1A1A1A"/>
</g>
<mask id="mask1_57_1360" style="mask-type:luminance" maskUnits="userSpaceOnUse" x="25" y="60" width="28" height="28">
<path d="M48.447 83.4472C53.6839 78.2102 53.6839 69.7195 48.447 64.4825C43.21 59.2456 34.7193 59.2456 29.4823 64.4825C24.2454 69.7195 24.2454 78.2102 29.4823 83.4472C34.7193 88.6841 43.21 88.6841 48.447 83.4472Z" fill="white"/>
</mask>
<g mask="url(#mask1_57_1360)">
<path d="M46.7272 60.3711C43.2467 61.8838 40.8139 65.1349 39.1548 68.5481C38.3647 70.1733 37.7015 71.8824 36.6119 73.3241C35.8332 74.3544 34.8547 75.2211 33.8033 75.9709C30.4542 78.3595 26.291 79.5836 22.1821 79.3881L19.2588 62.8142L32.2371 56.3125L46.7272 60.3711Z" fill="#1A1A1A"/>
</g>
</g>
<path opacity="0.2" d="M38.9653 83.4288C32.2296 83.4288 26.6552 78.4623 25.7009 71.9917C25.6059 72.6357 25.5552 73.2943 25.5552 73.9648C25.5552 81.371 31.5591 87.3749 38.9653 87.3749C46.3715 87.3749 52.3754 81.371 52.3754 73.9648C52.3754 73.2943 52.3247 72.6357 52.2297 71.9917C51.2754 78.4623 45.701 83.4288 38.9653 83.4288Z" fill="#1A1A1A"/>
<path opacity="0.3" d="M38.9653 61.475C46.2172 61.475 52.1206 67.2321 52.3638 74.4247C52.369 74.2716 52.3754 74.1187 52.3754 73.9644C52.3754 66.5581 46.3715 60.5542 38.9653 60.5542C31.5591 60.5542 25.5552 66.5581 25.5552 73.9644C25.5552 74.1187 25.5616 74.2716 25.5668 74.4247C25.81 67.2321 31.7136 61.475 38.9653 61.475Z" fill="white"/>
<path opacity="0.5" d="M47.0714 84.3738C47.1187 84.4609 44.6676 85.9976 42.379 86.68C42.2048 86.7319 41.5182 86.9321 40.5969 87.063C39.9624 87.1532 39.599 87.1524 38.8723 87.1507C38.474 87.1498 38.1165 87.1342 37.7396 86.9315C37.4975 86.8013 37.1875 86.5514 37.2354 86.4272C37.3056 86.245 38.116 86.4131 38.5215 86.4784C40.9957 86.8771 43.5049 85.8873 45.2299 85.2068C46.4759 84.7154 47.0483 84.3314 47.0714 84.3738Z" fill="white"/>
<path opacity="0.5" d="M36.8384 86.4374C36.8547 86.5456 36.7454 86.6592 36.6588 86.7133C36.2134 86.9911 35.2489 86.3897 35.3008 86.1832C35.3396 86.0291 35.9528 86.0629 36.3426 86.1581C36.5109 86.1992 36.8137 86.2731 36.8384 86.4374Z" fill="white"/>
<path opacity="0.5" d="M31.2604 84.1102C31.2592 84.1378 31.2548 84.2389 31.1885 84.286C30.8718 84.5106 29.5782 83.2747 28.7441 82.2472C28.1287 81.4892 27.6521 80.6757 27.6918 80.6468C27.7072 80.6355 27.8004 80.7445 28.1193 81.1072C28.7576 81.833 29.0768 82.196 29.2264 82.3458C29.6508 82.7709 29.9301 83.0506 30.3883 83.3433C30.8179 83.6177 31.2729 83.8191 31.2604 84.1102Z" fill="white"/>
<path opacity="0.5" d="M41.5544 63.2255C41.8732 63.2255 42.1317 62.967 42.1317 62.6481C42.1317 62.3293 41.8732 62.0708 41.5544 62.0708C41.2355 62.0708 40.9771 62.3293 40.9771 62.6481C40.9771 62.967 41.2355 63.2255 41.5544 63.2255Z" fill="white"/>
<path opacity="0.5" d="M40.5384 62.4801C40.3454 62.8429 39.7559 62.8843 39.0477 62.8893C37.6398 62.8993 36.4152 62.908 36.3877 62.6555C36.359 62.3917 37.6602 62.0491 38.5215 61.9248C38.8206 61.8815 40.3869 61.6555 40.5823 62.144C40.6402 62.2888 40.557 62.4452 40.5384 62.4801Z" fill="white"/>
</g>
<g filter="url(#filter2_d_57_1360)">
<path d="M60.8633 127.273C68.2695 127.273 74.2734 121.269 74.2734 113.863C74.2734 106.457 68.2695 100.453 60.8633 100.453C53.4571 100.453 47.4531 106.457 47.4531 113.863C47.4531 121.269 53.4571 127.273 60.8633 127.273Z" fill="url(#paint1_radial_57_1360)"/>
<path d="M60.8632 100.453C68.2694 100.453 74.2733 106.457 74.2733 113.863C74.2733 121.269 68.2694 127.273 60.8632 127.273C53.457 127.273 47.453 121.269 47.453 113.863C47.453 106.457 53.457 100.453 60.8632 100.453ZM60.8632 100C58.9919 100 57.1762 100.367 55.4668 101.09C53.816 101.788 52.3335 102.787 51.0604 104.06C49.7874 105.333 48.7879 106.816 48.0896 108.467C47.3666 110.176 47 111.992 47 113.863C47 115.734 47.3666 117.55 48.0896 119.259C48.7879 120.91 49.7874 122.393 51.0604 123.666C52.3335 124.939 53.816 125.939 55.4668 126.637C57.1763 127.36 58.9919 127.726 60.8632 127.726C62.7345 127.726 64.5501 127.36 66.2595 126.637C67.9104 125.939 69.3929 124.939 70.666 123.666C71.939 122.393 72.9385 120.91 73.6368 119.259C74.3598 117.55 74.7264 115.734 74.7264 113.863C74.7264 111.992 74.3598 110.176 73.6368 108.467C72.9385 106.816 71.939 105.333 70.666 104.06C69.3929 102.787 67.9104 101.788 66.2595 101.09C64.5501 100.367 62.7345 100 60.8632 100Z" fill="#822012"/>
<g opacity="0.3">
<mask id="mask2_57_1360" style="mask-type:luminance" maskUnits="userSpaceOnUse" x="47" y="100" width="28" height="28">
<path d="M60.8633 127.273C68.2695 127.273 74.2734 121.269 74.2734 113.863C74.2734 106.457 68.2695 100.453 60.8633 100.453C53.4571 100.453 47.4531 106.457 47.4531 113.863C47.4531 121.269 53.4571 127.273 60.8633 127.273Z" fill="white"/>
</mask>
<g mask="url(#mask2_57_1360)">
<path d="M71.7884 102.162C71.0443 107.464 68.4034 112.481 64.453 116.095C63.0754 117.355 61.5499 118.446 60.1783 119.713C56.5997 123.019 54.1471 127.522 53.312 132.321L56.7184 133.566C58.3198 130.133 59.9798 126.617 62.7084 123.989C64.851 121.926 67.5348 120.528 69.9115 118.739C73.3963 116.116 76.221 112.623 78.0568 108.667L71.7884 102.162Z" fill="#1A1A1A"/>
</g>
<mask id="mask3_57_1360" style="mask-type:luminance" maskUnits="userSpaceOnUse" x="47" y="100" width="28" height="28">
<path d="M60.8633 127.273C68.2695 127.273 74.2734 121.269 74.2734 113.863C74.2734 106.457 68.2695 100.453 60.8633 100.453C53.4571 100.453 47.4531 106.457 47.4531 113.863C47.4531 121.269 53.4571 127.273 60.8633 127.273Z" fill="white"/>
</mask>
<g mask="url(#mask3_57_1360)">
<path d="M68.6246 100.27C65.1442 101.783 62.7113 105.034 61.0522 108.447C60.2622 110.072 59.599 111.781 58.5093 113.223C57.7307 114.253 56.7521 115.12 55.7007 115.87C52.3517 118.258 48.1884 119.483 44.0795 119.287L41.1562 102.713L54.1346 96.2114L68.6246 100.27Z" fill="#1A1A1A"/>
</g>
</g>
<path opacity="0.2" d="M60.8633 123.327C54.1275 123.327 48.5532 118.361 47.5988 111.89C47.5038 112.534 47.4531 113.193 47.4531 113.863C47.4531 121.269 53.4571 127.273 60.8633 127.273C68.2694 127.273 74.2734 121.269 74.2734 113.863C74.2734 113.193 74.2226 112.534 74.1277 111.89C73.1734 118.361 67.599 123.327 60.8633 123.327Z" fill="#1A1A1A"/>
<path opacity="0.3" d="M60.8633 101.374C68.1151 101.374 74.0186 107.131 74.2618 114.324C74.2669 114.171 74.2734 114.018 74.2734 113.863C74.2734 106.457 68.2694 100.453 60.8633 100.453C53.4571 100.453 47.4531 106.457 47.4531 113.863C47.4531 114.018 47.4596 114.171 47.4648 114.324C47.7079 107.131 53.6115 101.374 60.8633 101.374Z" fill="white"/>
<path opacity="0.5" d="M68.9688 124.273C69.0162 124.36 66.5651 125.896 64.2765 126.579C64.1022 126.631 63.4157 126.831 62.4943 126.962C61.8599 127.052 61.4965 127.051 60.7698 127.05C60.3715 127.049 60.014 127.033 59.6371 126.83C59.3949 126.7 59.085 126.45 59.1329 126.326C59.2031 126.144 60.0135 126.312 60.419 126.377C62.8931 126.776 65.4023 125.786 67.1274 125.106C68.3733 124.614 68.9457 124.23 68.9688 124.273Z" fill="white"/>
<path opacity="0.5" d="M58.7363 126.336C58.7527 126.444 58.6434 126.558 58.5568 126.612C58.1113 126.89 57.1469 126.288 57.1988 126.082C57.2375 125.928 57.8507 125.961 58.2406 126.057C58.4088 126.098 58.7116 126.172 58.7363 126.336Z" fill="white"/>
<path opacity="0.5" d="M53.1578 124.009C53.1567 124.037 53.1522 124.138 53.0859 124.185C52.7693 124.41 51.4756 123.174 50.6415 122.146C50.0262 121.388 49.5496 120.575 49.5892 120.546C49.6047 120.534 49.6978 120.643 50.0167 121.006C50.6551 121.732 50.9743 122.095 51.1238 122.245C51.5482 122.67 51.8276 122.95 52.2858 123.242C52.7154 123.517 53.1704 123.718 53.1578 124.009Z" fill="white"/>
<path opacity="0.5" d="M64.0157 102.683C64.0889 102.373 63.8968 102.062 63.5865 101.988C63.2762 101.915 62.9652 102.107 62.8919 102.418C62.8187 102.728 63.0108 103.039 63.3211 103.112C63.6314 103.185 63.9424 102.993 64.0157 102.683Z" fill="white"/>
<path opacity="0.5" d="M62.4358 102.379C62.2428 102.742 61.6533 102.783 60.9451 102.788C59.5373 102.798 58.3127 102.807 58.2851 102.554C58.2564 102.291 59.5577 101.948 60.4189 101.824C60.7181 101.78 62.2844 101.554 62.4797 102.043C62.5376 102.188 62.4544 102.344 62.4358 102.379Z" fill="white"/>
</g>
<defs>
<filter id="filter0_i_57_1360" x="0" y="0" width="100" height="200" filterUnits="userSpaceOnUse" color-interpolation-filters="sRGB">
<feFlood flood-opacity="0" result="BackgroundImageFix"/>
<feBlend mode="normal" in="SourceGraphic" in2="BackgroundImageFix" result="shape"/>
<feColorMatrix in="SourceAlpha" type="matrix" values="0 0 0 0 0 0 0 0 0 0 0 0 0 0 0 0 0 0 127 0" result="hardAlpha"/>
<feMorphology radius="10" operator="erode" in="SourceAlpha" result="effect1_innerShadow_57_1360"/>
<feOffset/>
<feGaussianBlur stdDeviation="5"/>
<feComposite in2="hardAlpha" operator="arithmetic" k2="-1" k3="1"/>
<feColorMatrix type="matrix" values="0 0 0 0 0 0 0 0 0 0 0 0 0 0 0 0 0 0 0.3 0"/>
<feBlend mode="normal" in2="shape" result="effect1_innerShadow_57_1360"/>
</filter>
<filter id="filter1_d_57_1360" x="20.6025" y="56.6016" width="36.7266" height="36.7266" filterUnits="userSpaceOnUse" color-interpolation-filters="sRGB">
<feFlood flood-opacity="0" result="BackgroundImageFix"/>
<feColorMatrix in="SourceAlpha" type="matrix" values="0 0 0 0 0 0 0 0 0 0 0 0 0 0 0 0 0 0 127 0" result="hardAlpha"/>
<feOffset dy="1"/>
<feGaussianBlur stdDeviation="2.25"/>
<feComposite in2="hardAlpha" operator="out"/>
<feColorMatrix type="matrix" values="0 0 0 0 0 0 0 0 0 0 0 0 0 0 0 0 0 0 0.6 0"/>
<feBlend mode="normal" in2="BackgroundImageFix" result="effect1_dropShadow_57_1360"/>
<feBlend mode="normal" in="SourceGraphic" in2="effect1_dropShadow_57_1360" result="shape"/>
</filter>
<filter id="filter2_d_57_1360" x="42.5" y="96.5" width="36.7266" height="36.7266" filterUnits="userSpaceOnUse" color-interpolation-filters="sRGB">
<feFlood flood-opacity="0" result="BackgroundImageFix"/>
<feColorMatrix in="SourceAlpha" type="matrix" values="0 0 0 0 0 0 0 0 0 0 0 0 0 0 0 0 0 0 127 0" result="hardAlpha"/>
<feOffset dy="1"/>
<feGaussianBlur stdDeviation="2.25"/>
<feComposite in2="hardAlpha" operator="out"/>
<feColorMatrix type="matrix" values="0 0 0 0 0 0 0 0 0 0 0 0 0 0 0 0 0 0 0.6 0"/>
<feBlend mode="normal" in2="BackgroundImageFix" result="effect1_dropShadow_57_1360"/>
<feBlend mode="normal" in="SourceGraphic" in2="effect1_dropShadow_57_1360" result="shape"/>
</filter>
<radialGradient id="paint0_radial_57_1360" cx="0" cy="0" r="1" gradientUnits="userSpaceOnUse" gradientTransform="translate(38.9653 73.9644) scale(13.4101)">
<stop stop-color="#47C1FF"/>
<stop offset="0.1526" stop-color="#44BEFA"/>
<stop offset="0.3401" stop-color="#3CB4EB"/>
<stop offset="0.5458" stop-color="#2EA3D2"/>
<stop offset="0.7647" stop-color="#1A8CAF"/>
<stop offset="0.9917" stop-color="#016F83"/>
<stop offset="1" stop-color="#006E81"/>
</radialGradient>
<radialGradient id="paint1_radial_57_1360" cx="0" cy="0" r="1" gradientUnits="userSpaceOnUse" gradientTransform="translate(60.8633 113.863) scale(13.4101)">
<stop stop-color="#FE9456"/>
<stop offset="0.2057" stop-color="#FD8F52"/>
<stop offset="0.4583" stop-color="#FB8046"/>
<stop offset="0.7344" stop-color="#F66732"/>
<stop offset="1" stop-color="#F1481A"/>
</radialGradient>
</defs>
</svg>
