<svg width="225" height="225" viewBox="0 0 225 225" fill="none" xmlns="http://www.w3.org/2000/svg">
<path d="M225 0H0V225H225V0Z" fill="#E4B488"/>
<path d="M11.058 66.635C11.058 66.635 20.622 66.768 21.749 66.768C40.613 66.768 56.423 64.799 63.453 61.268C64.264 60.86 77.634 57.48 81.173 58.296C88.183 59.913 98.902 61.774 114.828 61.774C121.704 61.774 129.064 61.381 136.703 60.606C154.13 58.839 165.378 54.392 165.343 48.058C165.295 39.426 145.058 36.213 138.017 35.623C124.972 34.531 111.04 28.637 104.692 26.297C100.86 24.885 88.4 23.502 75.366 22.949C65.395 22.526 56.237 22.553 51.753 21.771C47.413 21.014 42.504 21.771 39.473 21.771C34.882 21.771 30.297 22.831 23.443 24.787C18.421 26.22 10.315 26.979 0 26.984V29.543C9.401 29.964 19.308 31.154 23.76 29.884C31.523 27.668 35.581 25.358 39.473 25.358C42.354 25.358 45.239 25.766 49.557 26.519C54.188 27.327 68.952 27.739 79 28.165C90.711 28.662 98.71 29.214 102.195 30.498C108.751 32.914 121.007 36.908 134.209 38.013C142.215 38.683 159.313 43.999 159.339 48.754C159.345 49.748 162.763 52.541 140.969 54.751C133.405 55.518 120.918 59.294 114.119 59.294C98.414 59.294 88.642 55.799 81.615 54.749C68.405 52.776 48.123 63.656 29.558 63.656C28.46 63.656 4.422 60.786 4.422 60.786C2.886 60.733 1.412 60.714 0.002 60.705V66.524C3.161 66.641 6.81 66.66 11.058 66.635Z" fill="#AB7A45"/>
<path d="M25.076 59.457C28.842 59.186 36.422 60.851 39.744 60.79C51.275 60.579 58.312 54.904 68.404 52.779C75.982 51.183 78.963 51.993 83.162 52.062C89.5 52.166 101.286 56.127 109.498 56.127C117.264 56.127 125.673 54.012 140.114 52.051C148.785 50.874 155.418 50.707 155.385 48.475C155.358 46.605 149.026 43.845 142.51 42.172C138.56 41.158 134.13 40.466 131.493 40.229C127.955 39.912 122.401 39.862 114.202 38.192C104.139 36.142 100.398 32.601 94.207 32.094C88.963 31.665 71.988 31.832 63.358 30.779C53.421 29.566 42.667 26.665 32.561 29.093C27.264 30.365 24.14 33.529 18.417 33.529C17.119 33.529 11.616 33.64 10.514 33.409C9.506 33.2 4.116 32.651 0 32.297V35.214C2.164 35.504 4.397 35.819 6.601 35.819C8.257 35.819 9.801 35.966 11.187 36.256C12.443 36.519 13.818 36.652 15.273 36.652C21.38 36.652 27.997 34.379 33.315 32.554C36.46 31.474 46.357 31.057 59.501 33.833C68.03 35.635 80.635 33.934 85.924 34.367C91.978 34.862 101.556 38.169 111.555 40.206C119.819 41.889 124.875 44.44 128.541 44.769C133.948 45.254 140.98 44.939 143.864 46.223C142.766 46.599 143.355 48.004 139.807 48.486C125.47 50.432 115.35 53.378 107.689 53.378C98.504 53.378 85.757 45.926 69.432 50.352C59.572 53.025 56.392 56.04 45.077 56.247C41.693 56.309 26.785 54.659 22.987 54.932C18.536 55.252 11.527 57.921 7.181 57.921C5.149 57.921 2.633 57.944 0 57.809V59.815C3.732 60.066 7.692 60.114 11.514 60.114C15.941 60.114 20.585 59.78 25.076 59.457Z" fill="#C28D5A"/>
<path d="M23.152 53.481C28.746 52.372 36.087 53.864 42.625 53.736C51.874 53.555 60.273 51.756 69.57 48.793C74.327 47.277 81.039 45.775 85.757 45.925C93.333 46.166 98.687 51.941 108.612 51.823C110.874 51.796 124.43 50.368 125.137 47.279C125.341 46.387 117.028 46.152 115.414 44.765C111.234 41.171 90.62 36.638 80.634 36.638C77.408 36.638 73.57 37.525 73.053 37.877C72.841 38.021 72.051 38.357 69.299 38.357C65.386 38.357 59.592 37.699 53.988 37.063C49.121 36.511 43.355 33.291 36.959 35.324C32.976 36.59 26.934 39.331 20.958 39.331C18.253 39.331 15.683 39.037 13.321 38.457C10.021 37.647 6.75902 37.237 3.62702 37.237C2.35802 37.237 1.13302 37.239 2.34375e-05 37.245V41.191C1.01402 41.186 2.18802 41.182 3.51902 41.182C6.51702 41.182 9.75002 40.5 12.917 41.277C15.412 41.889 18.118 42.2 20.958 42.2C27.144 42.2 32.025 39.108 36.137 38.074C37.473 37.738 44.368 38.044 44.817 38.074C47.448 38.247 49.866 38.125 54.685 38.672C60.335 39.313 65.29 41.227 69.299 41.227C71.779 41.227 73.249 40.979 74.065 40.424C74.13 40.38 82.095 38.911 85.111 38.911C95.274 38.911 110.691 44.138 114.21 47.164C114.456 47.375 116.732 48.358 116.822 48.476C116.213 49.004 113.744 50.27 110.335 50.27C107.925 50.27 104.008 48.554 102.591 47.852C99.414 46.279 92.756 43.64 83.854 43.64C78.958 43.64 73.978 44.436 69.051 46.006C59.993 48.892 51.479 50.33 42.35 50.509C35.736 50.638 28.385 48.471 22.822 50.645C10.836 55.328 5.75202 52.336 -0.000976562 51.98V55.705C1.38402 55.806 2.89202 55.864 4.52302 55.864C10.841 55.863 15.741 54.95 23.152 53.481Z" fill="#D49F6B"/>
<path d="M38.879 48.2958C43.265 49.1928 50.803 49.0128 61.63 46.3228C72.457 43.6328 66.564 43.6328 57.793 41.8388C49.022 40.0458 37.646 42.0178 34.357 43.5568C31.068 45.0948 15.033 45.0668 10.099 43.8728C7.609 43.2698 3.481 43.6288 0 44.1328V50.1558C2.889 50.0108 6.023 49.4108 8.042 48.7818C13.387 47.1138 34.493 47.3998 38.879 48.2958ZM46.828 42.9158C52.173 43.2748 55.599 43.8538 57.792 44.1028C59.985 44.3508 45.32 48.1438 37.508 45.2608C37.508 45.2608 41.483 42.5568 46.828 42.9158Z" fill="#C28D5A"/>
<path d="M57.7923 44.1031C55.5993 43.8551 52.1733 43.2751 46.8283 42.9161C41.4833 42.5571 37.5093 45.2611 37.5093 45.2611C45.3203 48.1431 59.9853 44.3511 57.7923 44.1031Z" fill="#AB7A45"/>
<path d="M91.096 42.8831C98.086 43.3881 112.477 50.0981 108.776 46.3371C105.075 42.5761 90.137 40.7641 84.655 41.1271C79.173 41.4901 72.046 42.8831 72.046 42.8831C70.401 44.1061 84.106 42.3781 91.096 42.8831Z" fill="#AB7A45"/>
<path d="M202.125 13.2342C201.571 13.7252 197.358 14.9532 196.549 14.9532C195.4 14.9532 192.637 13.2262 190.575 12.6502C185.903 11.3452 175.846 11.1402 163.375 11.4342C143.696 11.8942 145.564 15.3232 144.5 17.0262C142.89 18.1582 139.751 19.8072 139.893 21.2762C140.161 24.0532 140.611 26.8272 148.694 29.5712C152.935 31.0112 162.247 30.5632 169.606 30.6482C175.957 30.7222 182.571 32.3182 189.251 33.3642C195.411 34.3282 206.695 34.3022 211.751 34.6772C217.124 35.0762 218.855 34.7622 225.001 35.6452V32.8812C218.385 32.3472 215.382 33.4712 210.001 33.0722C204.99 32.7002 196.24 29.9102 190.167 28.9602C183.335 27.8902 175.049 28.7712 168.626 28.6962C161.452 28.6132 156.261 27.5762 152.35 26.2482C142.844 23.0202 142.398 21.1522 142.378 20.9492C142.37 20.8682 148.055 14.3002 167.526 13.8452C179.674 13.5602 186.716 15.5272 191.268 16.7982C193.497 17.4202 195.106 17.8702 196.55 17.8702C197.913 17.8702 203.255 17.2042 204.251 16.3192C206.369 14.4382 214.96 13.2682 225.001 13.2172V10.2942C218.771 10.2792 205.629 10.1222 202.125 13.2342Z" fill="#D49F6B"/>
<path d="M20 21.4359C23.472 21.1539 30.78 19.3119 34.25 19.5059C38.16 19.7239 41.69 17.4119 45.593 17.8019C53.641 18.6059 66.017 21.3709 74.125 21.4359C82.084 21.4999 85.449 20.2169 93.407 20.6649C97.165 20.8759 100.119 22.4559 103.75 23.7369C107.354 25.0079 111.658 24.9279 115.283 26.1639C122.477 28.6169 129.731 31.3249 137.204 32.2869C140.963 32.7709 145.641 34.4959 149.376 35.2379C153.221 36.0019 155.947 36.2499 159.657 37.5869C165.654 39.7459 168.786 39.4829 175.001 40.2869C181.709 41.1549 191.887 39.7019 198.626 39.8739C205.07 40.0389 216.192 43.8499 222.626 43.2849C223.523 43.2059 224.297 43.0509 225.001 42.8619V38.0779C222.473 38.3399 219.949 38.7629 217.494 38.9789C209.682 39.6649 205.322 36.8359 197.501 36.6279C189.462 36.4139 170.624 38.3479 158.601 34.1399C154.843 32.8249 151.9 32.8759 148.001 32.1929C144.629 31.6029 140.594 29.7659 137.204 29.3709C133.026 28.8839 129 27.6009 124.957 26.3309C121.339 25.1939 117.743 23.9669 114.148 22.7379C110.607 21.5279 107.226 19.7379 103.662 18.6399C100.382 17.6299 96.77 17.9339 93.408 17.7499C89.299 17.5249 85.207 17.3199 81.092 17.3659C73.076 17.4559 68.978 16.8899 61.001 15.7159C54.62 14.7769 44.556 14.6599 38.113 14.5259C32.365 14.4069 25.614 16.7169 19.876 17.4889C15.781 18.0399 12.867 16.7039 8.82798 17.6319C6.09998 18.2589 2.85698 18.7609 0.000976562 18.0119V21.9789C6.30698 24.5079 13.408 21.9719 20 21.4359Z" fill="#D49F6B"/>
<path d="M12.923 14.0779C18.676 12.7959 26.49 13.2559 32.333 12.6019C38.668 11.8929 41.412 10.7819 47.76 10.2889C50.803 10.0529 56.686 12.3969 59.666 12.9909C62.679 13.5909 68.158 13.9269 71.172 14.5189C77.218 15.7069 85.983 13.8289 92.095 14.1309C98.242 14.4349 118.895 18.2859 121.616 19.8909C126.685 22.8809 136.915 27.7639 142.499 28.9289C144.075 29.2579 132.166 20.8329 121.338 16.4519C115.855 14.2339 93.77 11.2899 87.616 11.0159C81.114 10.7269 74.521 10.6469 68.089 9.41789C62.376 8.32589 56.599 6.8479 50.857 6.0849C47.85 5.6849 34.358 9.14089 31.166 9.48889C25.577 10.0969 20.919 9.1049 15.428 10.4899C10.372 11.7649 5.01102 13.2019 -0.000976562 11.2089V14.2699C4.19902 15.7169 8.64702 15.0309 12.923 14.0779Z" fill="#C28D5A"/>
<path d="M14.5 8.71224C22.202 7.58924 30.667 3.23624 38.438 2.96424C46.262 2.69024 53.862 3.90724 61.63 4.68624C69.621 5.48724 76.661 7.59524 84.666 8.12924C92.996 8.68424 102.194 8.01924 110.418 9.64324C114.25 10.4002 118.099 11.1392 121.903 12.0702C124.752 12.7682 127.256 14.6532 129.924 15.9242C132.145 16.9822 135.047 19.7562 137.332 19.0212C140.671 17.9472 143.279 13.6362 146.673 12.7102C153.65 10.8072 159.181 8.31624 166.332 8.12924C176.22 7.87124 187.69 11.5082 197.576 11.0622C206.783 10.6462 215.805 8.34624 224.998 7.89424V5.11123C219.821 5.69923 215.99 7.41224 209.831 8.32424C201.916 9.49624 190.362 8.33124 182.416 7.57324C168.947 6.28724 156.578 4.43824 143.498 8.71324C140.575 9.66824 139.273 14.0992 136.193 13.9782C133.464 13.8712 130.803 11.4132 128.331 10.2902C125.02 8.78723 118.457 8.34524 114.976 7.62124C110.752 6.74324 101.908 4.78024 97.664 4.04524C81.986 1.33024 70.669 3.18223 54.948 0.971231C44.57 -0.488769 33.21 1.33424 22.831 2.59924C17.437 3.25624 14.263 5.49624 8.83105 5.75924C6.07705 5.89224 3.03705 5.38223 -0.00195312 4.84423V7.61123C4.80105 8.44623 9.52505 9.43724 14.5 8.71224Z" fill="#AB7A45"/>
<path d="M101.833 1.418C105.657 1.486 109.485 2.76 113.175 3.819C117.766 5.136 122.388 6.294 126.975 7.64C135.999 10.289 134.445 6.968 138.166 5.757C144.117 3.82 149.197 3.146 155.459 2.839C169.191 2.166 182.131 6.446 195.832 7.157C202.757 7.516 210.458 5.146 217.346 4.16C219.904 3.794 222.459 3.3 224.998 2.755V0H211.84C205.471 1.598 198.084 4.104 192.165 3.849C180.612 3.351 172.748 0.633 162.49 0H146.265C144.199 0.131 142.127 0.473999 139.887 1.321C135.632 2.931 131.525 3.52 127.165 2.539C123.228 1.653 119.242 0.739007 115.231 0.00100708H100.627C100.651 0.708007 101.051 1.404 101.833 1.418Z" fill="#D49F6B"/>
<path d="M215.941 15.781C208.373 18.064 200.573 20.247 192.707 19.453C188.844 19.063 185.47 16.894 181.624 16.32C177.455 15.697 172.877 16.816 168.683 16.706C164.838 16.605 160.996 16.458 157.15 16.555C154.666 16.617 151.995 18.396 149.624 19.407C148.189 20.019 145.694 19.702 146.26 21.404C146.989 23.593 151.862 24.146 153.507 24.512C156.946 25.276 161.138 26.299 164.624 26.51C168.888 26.768 172.622 25.879 176.886 26.144C185.271 26.666 193.683 27.165 201.998 28.565C206.538 29.33 211.438 30.087 216.412 30.453C218.747 30.625 221.086 30.802 223.423 30.923C223.947 30.95 224.474 30.952 224.999 30.959V28.762C224.474 28.75 223.948 28.747 223.423 28.735C219.879 28.659 217.031 27.141 213.499 26.801C205.445 26.025 196.755 25.513 188.685 24.811C180.497 24.099 174.449 25.103 166.249 24.612C162.344 24.378 151.571 22.167 153.689 21.264C154.872 20.76 169.775 18.53 177.318 19.167C185.416 19.85 193.067 22.492 201.247 21.489C208.045 20.656 216.05 19.412 222.749 18.048C223.548 17.885 224.296 17.687 224.999 17.539V14.17C221.926 13.957 218.568 14.988 215.941 15.781Z" fill="#C28D5A"/>
<path d="M217 21.0622C213.262 21.5312 208.234 22.7632 204.482 22.7632C203.07 22.6742 201.656 22.6082 200.248 22.4962C195.201 22.0962 190.162 21.6762 185.112 22.0322C184.268 21.9142 183.42 21.7922 182.561 21.6722C179.057 21.1822 177.104 22.3732 173.584 22.1322C171.977 22.0222 158.965 21.6542 159.667 22.2292C160.926 23.2612 167.726 23.9702 169.177 24.0562C174.398 24.3692 179.56 23.7812 184.741 23.4842C187.09 23.8932 190.512 23.6032 192.916 23.6022C196.977 23.6002 199.854 24.2212 203.914 24.2212C206.497 24.4072 209.069 24.6342 211.633 25.1812C214.581 25.8102 221.084 26.7912 224.082 26.7992C224.44 26.8002 224.733 26.8092 224.999 26.7942V21.2942C222.098 21.2242 220.088 20.6742 217 21.0622Z" fill="#AB7A45"/>
<path d="M11.939 73.8139C19.882 73.6289 27.809 73.261 35.746 72.829C43.564 72.403 52.729 73.3199 60.251 70.9999C74.834 66.5009 99.113 67.702 107.171 68.135C115.024 68.557 122.954 69.5929 130.816 69.2919C138.143 69.0109 145.306 66.9789 152.17 64.0649C157.941 61.6149 164.243 60.386 169.387 56.321C171.655 54.529 173.683 52.6199 176.259 51.4289C178.757 50.2739 183.592 48.3819 186.252 48.0979C191.555 47.5319 199.448 47.7959 204.752 48.2439C210.915 48.7639 218.784 52.5049 225.002 53.6639V48.6389C221.886 47.8529 218.742 46.9879 215.377 46.3389C208.103 44.9339 202.011 44.3509 194.627 44.2809C188.614 44.2239 180.12 43.4619 174.502 46.3389C171.72 47.7629 169.863 49.9759 167.335 51.8919C164.613 53.9559 151.502 63.5019 135.627 63.4159C127.651 63.3729 120.832 66.0389 112.952 65.5539C96.9 64.5659 86.253 61.4849 70.192 62.5409C64.416 62.9209 53.415 67.6569 47.721 68.6849C41.532 69.8019 33.746 68.4819 27.502 68.8139C21.578 69.1279 13.93 69.3949 8.00195 69.5329C4.68295 69.6099 2.45995 70.5099 0.00195312 70.4209V73.5509C3.92295 74.2279 8.03295 73.9039 11.939 73.8139Z" fill="#D49F6B"/>
<path d="M189.884 84.952C189.066 85.677 182.845 87.491 181.649 87.491C179.952 87.491 173.711 85.342 170.666 84.491C163.766 82.564 151.075 81.859 132.658 82.294C103.596 82.974 97.77 94.66 97.98 96.83C98.376 100.931 99.04 105.027 110.977 109.08C117.24 111.207 130.992 110.545 141.859 110.671C151.238 110.78 161.005 113.137 170.87 114.681C179.966 116.105 196.632 116.066 204.098 116.62C212.409 117.237 214.816 116.699 225 118.246V114.083C214.271 113.02 209.817 114.866 201.514 114.25C194.114 113.701 181.192 109.581 172.223 108.177C162.134 106.598 149.898 107.897 140.412 107.787C129.817 107.664 120.442 107.628 114.667 105.667C100.629 100.9 101.679 96.645 101.65 96.347C101.638 96.227 110.034 86.528 138.787 85.856C156.727 85.435 167.127 88.341 173.848 90.218C177.139 91.137 179.516 91.801 181.649 91.801C183.662 91.801 190.862 88.243 192.333 86.936C195.532 84.096 209.41 84.923 224.668 84.923C224.783 84.923 224.888 84.924 225 84.924V80.615C224.888 80.615 224.782 80.614 224.668 80.614C215.96 80.613 195.254 80.182 189.884 84.952Z" fill="#D49F6B"/>
<path d="M198.167 89.0389C186.991 92.4109 187.593 95.9659 175.977 94.7929C170.272 94.2169 165.289 91.0139 159.61 90.1659C153.454 89.2459 146.692 90.8989 140.499 90.7349C134.82 90.5849 129.147 90.3689 123.467 90.5109C119.799 90.6029 115.854 93.2299 112.353 94.7229C110.234 95.6259 106.549 95.1589 107.386 97.6719C108.462 100.905 115.659 101.722 118.088 102.261C123.167 103.389 129.357 104.9 134.505 105.212C140.803 105.593 146.317 104.28 152.614 104.672C164.997 105.443 177.419 106.18 189.699 108.248C196.404 109.377 203.64 110.496 210.986 111.036C214.434 111.289 217.888 111.551 221.339 111.731C222.557 111.794 223.786 111.767 225 111.823V108.59C223.786 108.524 222.559 108.525 221.339 108.499C216.105 108.387 211.9 106.145 206.683 105.642C194.79 104.496 181.955 103.74 170.037 102.704C157.945 101.652 149.013 103.135 136.904 102.411C131.137 102.066 116.538 96.0109 119.666 94.6779C121.413 93.9329 142.111 93.4289 153.251 94.3689C165.211 95.3779 176.51 99.2789 188.589 97.7989C198.629 96.5679 201.273 91.6359 211.166 89.6219C214.086 89.0269 220.187 89.3339 224.999 90.9249V87.5649C216.24 85.7059 203.037 87.5689 198.167 89.0389Z" fill="#C28D5A"/>
<path d="M224.833 94.9009C221.5 93.3329 217.529 92.3249 212.5 92.9559C206.98 93.6489 199.5 99.3329 186.946 99.1219C179.47 98.9959 162.095 98.0819 160.826 97.9049C155.651 97.1819 153.282 97.3009 148.084 96.9439C145.71 96.7809 140.39 97.1009 138.077 96.4619C136.887 96.1329 129.561 95.0569 128.289 96.4589C127.511 97.3169 127.369 97.2029 128.406 98.0529C130.265 99.5769 138.917 101.298 141.061 101.427C148.771 101.889 172.569 100.758 176.119 100.757C182.116 100.755 186.364 101.671 192.361 101.672C196.175 101.947 199.974 102.282 203.76 103.09C208.114 104.019 217.718 105.468 222.145 105.479C223.421 105.482 224.178 105.574 225 104.933V102.238C222.883 103.097 217.113 101.333 216.132 101.23C213.855 100.989 207.919 102.338 206.401 99.7489C206.329 99.6259 206.264 99.5169 206.211 99.4149C209.726 98.0419 212.814 95.9559 216.653 95.9459C219.001 95.9389 223.275 97.0319 225 99.3169V95.0809C224.946 94.9909 224.891 94.9279 224.833 94.9009Z" fill="#AB7A45"/>
<path d="M43.193 81.2499C50.811 83.5179 58.702 78.4369 66.513 77.4479C70.707 76.9169 82.609 73.4409 93.251 73.2249C103.628 73.0139 112.752 76.0509 116.633 76.4369C123.912 77.1609 129.03 78.9809 136.226 77.2829C143.542 75.5569 148.976 70.5069 156.126 68.0809C159.243 67.0229 168.797 65.6299 171.625 63.7049C174.876 61.4919 177.896 59.0319 181.626 58.0159C192 55.1899 199.467 53.2099 209.626 56.5569C214.702 58.2289 219.815 59.5299 225.001 60.4469V56.8679C216.284 54.9709 207.804 52.5359 198.251 52.4729C191.111 52.4249 185.562 52.2169 178.626 54.3689C175.666 55.2869 170.001 62.1659 155.387 65.2629C147.976 66.8339 139.493 72.3779 132.126 73.9719C124.614 75.5979 112.793 71.6469 105.251 70.8519C89.152 69.1559 80.188 70.8099 64.126 73.2239C58.832 74.0199 52.121 77.1989 46.819 77.9219C41.332 78.6699 34.771 76.0579 29.251 76.1029C19.165 76.1869 9.92998 77.8099 0.000976562 78.0909V80.9779C13.336 80.2009 20.4 74.4639 43.193 81.2499Z" fill="#C28D5A"/>
<path d="M209.333 59.3002C197.66 54.8372 177.977 62.5152 175.25 64.2402C171.978 66.3102 168.753 70.2342 165.172 71.2412C162.387 72.0242 153.175 74.0682 151.272 74.8352C150.064 75.3222 141.157 76.8292 141.75 78.8272C142.282 80.6172 158.374 81.6702 161.313 81.8862C170.726 82.5762 180.252 82.6782 189.673 82.1182C195.649 81.7632 203.477 80.2062 209.333 78.9242C214.916 77.7022 219.916 78.0892 225 78.6862V77.6362C222.064 77.7272 219.125 77.5092 215.995 76.4372C207.667 73.5852 200.26 78.4812 193.527 79.7992C187.534 80.9732 184.549 78.5772 178.5 78.5352C171.39 78.4862 163.167 82.4792 154.287 78.2102C153.369 77.7692 154.275 76.5092 155.115 76.0952C156.573 75.3782 158.307 75.3822 159.86 75.2492C163.117 74.9692 166.23 73.9342 169.398 73.0572C172.655 72.1562 177.072 68.0232 179.999 66.0882C183.027 64.0872 184.246 64.7922 187.479 63.2352C190.309 61.8722 195.178 60.5292 198.166 60.7922C204.258 61.3272 208.408 64.3352 214.481 65.0692C217.536 65.4382 220.433 65.8352 223.399 66.8112C223.935 66.9872 224.467 67.1372 225 67.2902V64.9642C223.466 64.7522 221.802 64.5232 219.417 64.3372C213.895 63.9072 214.513 61.2812 209.333 59.3002Z" fill="#AB7A45"/>
<path d="M216.653 95.9429C212.813 95.9539 209.725 98.0389 206.211 99.4119C206.264 99.5139 206.329 99.6229 206.401 99.7459C207.919 102.335 213.854 100.986 216.132 101.227C217.113 101.331 222.883 103.094 225 102.235V99.3129C223.275 97.0299 219.001 95.9369 216.653 95.9429Z" fill="#C28D5A"/>
<path d="M211.416 68.128C203.811 66.216 197.418 60.121 190.132 64.824C188.437 65.918 178.632 73.474 176.138 74.235C174.136 74.846 163.473 75.156 161.917 76.785C160.584 78.181 174.807 76.897 178.231 77.276C179.932 77.464 181.611 77.762 183.317 78.022C185.176 78.306 187.113 78.145 188.986 78.027C191.437 77.873 197.567 77.014 199.667 75.423C202.458 73.308 202.186 72.555 205.582 72.603C208.935 72.651 212.251 73.15 215.599 73.186C218.785 73.221 221.782 74.709 225.001 74.737V70.543C223.43 69.722 222.254 69.391 220.513 69.393C219.045 69.396 212.573 68.418 211.416 68.128ZM203.133 69.539C202.525 69.665 201.91 69.633 201.306 69.75C200.396 69.926 199.478 70.232 198.603 70.57C197.813 70.875 196.867 70.978 196.287 71.756C195.248 73.152 193.73 73.889 192.224 74.427C185.499 76.833 180.907 74.698 179.718 74.682C179.718 74.682 183.673 70.81 184.562 70.233C184.926 69.997 192.579 67.781 193.438 67.387C195.174 66.589 197.171 66.688 198.991 66.886C200.27 67.025 202.18 67.253 203.063 68.547C203.187 68.729 203.367 68.979 203.407 69.213C203.466 69.56 203.419 69.479 203.133 69.539Z" fill="#D49F6B"/>
<path d="M203.063 68.5472C202.18 67.2522 200.27 67.0252 198.991 66.8862C197.171 66.6872 195.174 66.5892 193.438 67.3872C192.579 67.7822 184.927 69.9972 184.562 70.2332C183.673 70.8102 179.718 74.6822 179.718 74.6822C180.907 74.6972 185.499 76.8332 192.224 74.4272C193.729 73.8882 195.248 73.1522 196.287 71.7562C196.867 70.9772 197.813 70.8752 198.603 70.5702C199.478 70.2322 200.396 69.9252 201.306 69.7502C201.911 69.6332 202.525 69.6652 203.133 69.5392C203.419 69.4802 203.465 69.5602 203.407 69.2142C203.367 68.9802 203.188 68.7302 203.063 68.5472Z" fill="#C28D5A"/>
<path d="M25.739 97.6459C31.137 98.2209 36.816 97.5589 42.162 96.6719C47.665 95.7589 55.181 90.6969 60.376 88.3579C65.061 86.2489 71.65 84.468 76.376 82.48C81.336 80.393 93.168 79.834 102.777 81.403C105.515 81.85 108.272 82.096 111.046 82.135C113.65 82.171 126.168 81.6679 128.457 80.6039C129.919 79.9239 120.447 78.6349 118.835 78.6339C116.227 78.6329 104.867 76.3909 102.127 76.1059C83.425 74.1579 62.721 80.8609 59.618 83.6379C59.043 84.1519 48.155 94.638 29.502 93.756C24.348 93.512 15.209 90.6289 10.126 89.9309C7.36695 89.5519 4.64495 89.7689 1.87795 89.8059C1.24895 89.8139 0.623953 89.8199 0.00195312 89.8359V93.7479C0.457953 93.8409 0.944953 93.909 1.50195 93.902C4.53095 93.86 20.732 97.1129 25.739 97.6459Z" fill="#AB7A45"/>
<path d="M34.87 92.0742C37.979 92.1302 39.911 90.7882 43 90.5462C44.999 90.3902 53.226 87.5622 54.25 84.1282C53.062 82.6952 47.293 85.3172 45.75 85.1492C43.568 84.9112 41.004 84.2022 38.875 83.3982C34.796 81.8582 30.619 80.5862 26.371 80.6032C20.605 80.6262 15.024 81.5792 9.329 82.6832C6.074 83.3142 3.084 83.4482 0 83.4712V86.4732C6.89 86.8272 13.715 87.9172 20.541 89.4532C25.294 90.5222 29.988 91.9852 34.87 92.0742ZM9.66 84.9302L8.812 84.7842C10.801 83.9572 14.032 84.2662 16.309 83.7272C18.282 83.2602 20.357 83.3262 22.417 83.3262C24.378 83.3262 26.262 83.1862 28.097 83.8042C30.328 84.5562 32.316 85.4732 34.667 85.9852C36.802 86.4492 38.67 86.6812 40.901 86.6812C41.532 86.6812 43.247 86.4312 43.664 86.8492C44.869 88.0582 42.699 88.2342 41.888 88.3182C37.256 88.7982 31.31 88.7342 26.779 87.8112C21.373 86.7092 15.303 84.5242 9.66 84.9302Z" fill="#C28D5A"/>
<path d="M41.889 88.3171C42.701 88.2331 44.87 88.0571 43.665 86.8481C43.248 86.4301 41.533 86.6801 40.902 86.6801C38.671 86.6801 36.803 86.4481 34.668 85.9841C32.317 85.4731 30.329 84.5551 28.098 83.8031C26.263 83.1851 24.38 83.3251 22.418 83.3251C20.358 83.3251 18.283 83.2591 16.31 83.7261C14.033 84.2651 10.801 83.9571 8.81299 84.7831L9.66099 84.9291C15.304 84.5241 21.374 86.7081 26.781 87.8101C31.311 88.7341 37.257 88.7981 41.889 88.3171Z" fill="#D49F6B"/>
<path d="M201.123 208.01C193.36 210.226 189.302 212.536 185.41 212.536C182.529 212.536 179.644 212.128 175.326 211.375C170.695 210.567 155.756 208.675 145.708 208.249C133.998 207.752 126.173 208.679 122.688 207.395C116.132 204.979 103.876 200.985 90.6741 199.88C82.6681 199.21 65.5701 193.894 65.5441 189.139C65.5381 188.145 62.1201 185.352 83.9141 183.142C91.4781 182.375 103.965 178.599 110.764 178.599C126.469 178.599 136.296 181.776 143.269 183.144C147.034 183.883 150.008 184.466 152.396 184.466C154.051 184.466 155.362 184.195 156.522 183.612C163.355 180.179 176.761 174.237 195.326 174.237C196.424 174.237 220.462 177.107 220.462 177.107C222.041 177.162 223.552 177.179 224.999 177.189V171.373C221.812 171.257 218.124 171.238 213.824 171.263C213.824 171.263 204.26 171.13 203.133 171.13C184.27 171.13 168.46 173.099 161.429 176.63C160.618 177.038 153.675 180.881 152.395 180.881C150.229 180.881 147.352 180.316 143.709 179.602C136.649 178.217 125.98 176.124 110.054 176.124C103.178 176.124 95.8181 176.517 88.1791 177.292C70.7521 179.059 59.5041 183.506 59.5391 189.84C59.5871 198.472 79.8241 201.685 86.8651 202.275C99.9101 203.367 113.842 209.261 120.19 211.601C124.022 213.013 136.482 214.396 149.516 214.949C159.487 215.372 168.645 215.345 173.129 216.127C177.469 216.884 182.378 216.127 185.409 216.127C190 216.127 194.585 215.067 201.439 213.111C206.476 211.673 214.614 210.914 224.974 210.914C224.982 210.914 224.991 210.914 224.999 210.914V208.36C215.565 207.94 205.594 206.735 201.123 208.01Z" fill="#D49F6B"/>
<path d="M218.283 202.077C216.627 202.077 215.083 201.93 213.697 201.64C212.441 201.377 211.066 201.243 209.611 201.243C203.504 201.243 196.887 203.516 191.57 205.341C188.425 206.421 183.369 207.354 181.987 207.354C179.647 207.354 172.693 203.605 163.241 202.452C154.588 201.396 144.251 203.961 138.962 203.528C132.908 203.033 123.33 199.726 113.331 197.689C105.068 196.006 100.011 193.455 96.3451 193.126C90.9381 192.641 83.9071 192.956 81.0221 191.672C82.1201 191.296 81.5311 189.891 85.0791 189.409C99.4161 187.463 109.536 184.517 117.197 184.517C126.382 184.517 129.248 186.025 130.717 186.908C139.128 191.968 147.75 189.165 155.454 187.543C165.45 185.438 168.494 181.855 179.809 181.648C183.193 181.586 198.101 183.236 201.899 182.963C206.35 182.643 213.359 179.974 217.705 179.974C219.767 179.974 222.327 179.949 225.003 180.091V178.088C221.237 177.83 217.235 177.781 213.373 177.781C208.946 177.781 204.302 178.115 199.81 178.438C196.044 178.709 188.464 177.044 185.142 177.105C173.611 177.316 166.574 182.99 156.482 185.116C148.904 186.712 145.923 185.833 141.724 185.833C139.221 185.833 125.503 180.166 115.388 181.768C107.717 182.983 99.2131 183.883 84.7721 185.844C76.1011 187.021 69.4681 187.188 69.5011 189.42C69.5281 191.29 75.8601 194.05 82.3761 195.723C86.3261 196.737 90.7561 197.429 93.3931 197.666C96.9311 197.983 102.485 198.033 110.684 199.703C120.747 201.753 124.488 205.294 130.679 205.801C135.923 206.23 152.898 206.063 161.528 207.116C171.465 208.329 181.849 210.942 184.328 210.942C186.094 210.942 188.844 209.998 192.325 208.803C197.477 207.034 200.746 204.367 206.469 204.367C207.767 204.367 213.27 204.256 214.372 204.486C215.39 204.699 220.872 205.256 225.002 205.61V202.699C222.8 202.404 220.526 202.077 218.283 202.077Z" fill="#C28D5A"/>
<path d="M221.364 196.713C218.367 196.713 215.133 197.395 211.966 196.618C209.471 196.006 206.765 195.695 203.925 195.695C197.739 195.695 192.814 198.626 188.746 199.821C178.957 202.697 159.501 196.668 155.584 196.668C153.104 196.668 151.634 196.916 150.818 197.471C150.753 197.515 142.788 198.984 139.772 198.984C129.609 198.984 114.192 193.756 110.673 190.731C110.427 190.519 108.151 189.537 108.061 189.419C111.666 185.999 120.875 189.342 122.292 190.044C125.469 191.617 132.127 194.255 141.029 194.255C145.925 194.255 150.905 193.459 155.832 191.889C164.89 189.003 173.404 187.565 182.533 187.386C189.147 187.257 196.498 189.424 202.061 187.25C214.127 182.535 219.199 185.596 225 185.919V182.198C223.584 182.092 222.035 182.032 220.359 182.032C214.042 182.032 209.142 182.945 201.732 184.414C196.139 185.523 188.797 184.031 182.259 184.159C173.01 184.34 164.611 186.139 155.314 189.102C150.556 190.618 143.848 191.97 139.127 191.97C130.574 191.97 125.803 185.161 116.272 186.072C114.02 186.287 100.454 187.527 99.747 190.616C99.543 191.508 112.5 198.667 144.25 201.257C147.465 201.519 151.314 200.37 151.831 200.018C152.043 199.874 152.833 199.538 155.585 199.538C159.498 199.538 165.292 200.196 170.896 200.832C175.763 201.384 181.529 204.604 187.925 202.571C191.908 201.305 197.95 198.564 203.926 198.564C206.631 198.564 209.201 198.858 211.563 199.438C214.863 200.248 218.125 200.658 221.257 200.658C222.57 200.658 223.835 200.656 225.001 200.649V196.703C223.96 196.71 222.748 196.713 221.364 196.713Z" fill="#D49F6B"/>
<path d="M216.841 189.114C211.496 190.781 190.39 190.496 186.004 189.599C181.618 188.702 174.081 188.882 163.253 191.572C152.426 194.262 158.319 194.262 167.091 196.055C175.862 197.849 187.238 195.876 190.527 194.337C193.816 192.798 209.851 192.827 214.785 194.021C217.302 194.631 221.495 194.257 224.999 193.744V187.734C222.078 187.87 218.888 188.476 216.841 189.114ZM178.055 194.98C172.71 194.621 169.284 194.042 167.091 193.794C164.898 193.546 179.563 189.753 187.375 192.636C187.375 192.636 183.401 195.339 178.055 194.98Z" fill="#C28D5A"/>
<path d="M167.091 193.793C169.284 194.041 172.71 194.621 178.055 194.979C183.4 195.338 187.375 192.634 187.375 192.634C179.563 189.753 164.899 193.545 167.091 193.793Z" fill="#AB7A45"/>
<path d="M133.788 195.013C126.798 194.508 112.407 187.798 116.108 191.559C119.809 195.32 134.747 197.132 140.229 196.769C145.711 196.406 152.838 195.013 152.838 195.013C154.483 193.79 140.777 195.518 133.788 195.013Z" fill="#AB7A45"/>
<path d="M84.99 216.619C84.721 213.842 84.272 211.068 76.189 208.324C71.948 206.884 42.312 205.577 35.633 204.531C29.473 203.567 18.189 203.593 13.133 203.218C7.79402 202.822 6.05102 203.129 -0.000976562 202.267V205.022C6.53202 205.533 9.53302 204.426 14.883 204.822C19.894 205.194 28.644 207.984 34.717 208.934C41.549 210.003 49.835 209.123 56.258 209.198C63.432 209.281 68.623 210.318 72.534 211.646C82.04 214.874 82.486 216.742 82.506 216.945C82.514 217.026 76.829 223.594 57.359 224.049C45.211 224.334 38.169 222.367 33.617 221.096C31.388 220.474 29.779 220.024 28.335 220.024C26.972 220.024 21.63 220.69 20.634 221.575C18.524 223.45 9.99002 224.618 2.34375e-05 224.677V225H22.317C22.476 224.892 22.626 224.78 22.759 224.662C23.313 224.171 27.526 222.943 28.335 222.943C29.35 222.943 31.625 224.289 33.564 225H73.243C82.859 222.53 85.098 217.731 84.99 216.619Z" fill="#C28D5A"/>
<path d="M204.883 216.46C201.411 216.742 183.192 220.484 179.29 220.094C171.242 219.29 158.866 216.525 150.758 216.46C142.799 216.396 139.434 217.679 131.476 217.231C127.719 217.02 113.225 212.969 109.6 211.733C102.406 209.28 95.153 206.572 87.68 205.61C83.921 205.126 79.243 203.401 75.508 202.659C71.663 201.895 68.937 201.647 65.226 200.311C59.229 198.152 56.097 198.415 49.883 197.611C43.175 196.743 32.997 198.196 26.258 198.024C19.814 197.859 8.692 194.048 2.258 194.613C1.41 194.688 0.673 194.831 0 195.007V200.455C9.427 201.073 22.118 201.132 27.383 201.272C35.289 201.482 50.25 202.643 50.383 202.661C53.888 203.121 72.984 205.025 76.883 205.707C80.254 206.297 84.29 208.134 87.68 208.529C91.858 209.016 95.884 210.299 99.927 211.569C103.545 212.706 107.141 213.933 110.736 215.162C114.277 216.372 128.113 219.966 131.476 220.15C135.585 220.375 139.677 220.58 143.792 220.534C151.808 220.444 155.906 221.01 163.883 222.184C170.264 223.123 180.328 223.24 186.771 223.374C192.519 223.493 199.27 221.183 205.008 220.411C208.14 219.99 218.711 219.15 225 220.586V215.965C218.664 213.353 211.516 215.921 204.883 216.46Z" fill="#D49F6B"/>
<path d="M165.217 224.905C162.204 224.305 156.725 223.969 153.711 223.377C147.665 222.189 138.9 224.067 132.787 223.765C126.64 223.461 113.068 220.675 110.149 219.46C107.269 218.261 87.9671 210.132 82.3831 208.967C80.8071 208.638 86.0501 211.091 89.3831 214.739C93.8171 219.592 98.1421 218.18 103.544 221.444C105.777 222.793 107.894 224.041 110.062 225.001H165.645C165.499 224.966 165.352 224.932 165.217 224.905Z" fill="#C28D5A"/>
<path d="M211.96 223.818C207.465 224.82 201.723 224.763 196.634 225H225V223.669C220.767 222.168 216.276 222.856 211.96 223.818Z" fill="#C28D5A"/>
<path d="M87.5502 218.876C84.3952 219.891 81.8922 223.792 78.7622 225H86.1012C86.8522 224.338 87.6722 223.879 88.6882 223.919C89.8132 223.963 90.9262 224.415 92.0202 225H100.668C98.7232 224.12 96.8832 222.889 94.9592 221.973C92.7372 220.915 89.8362 218.14 87.5502 218.876Z" fill="#AB7A45"/>
<path d="M8.94198 222.115C16.51 219.832 24.31 217.649 32.176 218.443C36.039 218.833 39.474 220.683 43.259 221.576C53.831 224.071 63.887 221.438 67.733 221.342C70.217 221.28 79.189 218.195 78.623 216.493C77.894 214.304 73.021 213.751 71.376 213.385C67.937 212.621 63.745 211.598 60.259 211.387C55.995 211.129 52.261 212.018 47.997 211.753C39.612 211.231 31.2 210.732 22.885 209.331C18.345 208.566 13.445 207.809 8.47098 207.443C6.13598 207.271 3.79698 207.094 1.45998 206.973C0.974977 206.948 0.486977 206.945 0.000976562 206.939V209.137C0.486977 209.147 0.974977 209.151 1.45998 209.161C5.00398 209.237 7.85198 210.755 11.384 211.096C19.438 211.872 28.128 212.384 36.198 213.086C44.386 213.798 50.434 212.794 58.634 213.284C62.539 213.517 73.312 215.729 71.194 216.632C70.011 217.136 55.108 219.365 47.565 218.729C39.467 218.046 31.815 215.404 23.636 216.407C16.838 217.24 8.83298 218.484 2.13398 219.848C1.37898 220.002 0.669977 220.187 0.000976562 220.332V223.735C3.04198 223.914 6.34898 222.897 8.94198 222.115Z" fill="#D49F6B"/>
<path d="M7.88298 216.834C11.621 216.365 16.649 215.133 20.401 215.132C21.813 215.221 34.721 216.22 39.771 215.863C40.567 215.974 59.511 217.408 60.282 216.881C60.908 216.453 65.919 216.241 65.217 215.666C63.958 214.634 57.158 213.925 55.706 213.839C50.485 213.526 45.323 214.114 40.142 214.411C37.793 214.002 34.371 214.292 31.967 214.293C27.906 214.295 25.029 213.675 20.969 213.674C18.386 213.488 15.814 213.261 13.25 212.714C10.302 212.085 3.79898 211.104 0.800977 211.097C0.495977 211.096 0.235977 211.087 0.000976562 211.094V216.604C2.84098 216.684 4.83598 217.216 7.88298 216.834Z" fill="#AB7A45"/>
<path d="M30.258 193.617C36.271 193.674 44.765 194.436 50.383 191.559C53.165 190.135 55.236 188.176 57.55 186.006C62 181.833 73.384 176.574 76.755 175.273C80.481 173.835 104.053 171.859 111.933 172.344C127.985 173.332 138.632 176.412 154.693 175.357C160.469 174.977 171.47 170.241 177.164 169.213C183.353 168.096 191.139 169.416 197.383 169.085C203.307 168.771 210.955 168.504 216.883 168.366C220.255 168.288 222.495 167.36 225 167.483V164.367C221.042 163.66 216.889 163.99 212.945 164.081C205.002 164.266 197.075 164.634 189.138 165.066C181.32 165.492 172.263 164.961 164.633 166.895C156.742 168.895 151.873 171.163 143.833 171.165C135.765 171.166 125.772 170.193 117.713 169.76C109.86 169.338 101.93 168.302 94.068 168.603C86.741 168.884 79.578 170.916 72.714 173.83C66.943 176.28 60.641 177.509 55.497 181.574C53.229 183.366 51.2 185.275 48.625 186.466C46.127 187.621 41.292 189.513 38.632 189.797C33.329 190.363 25.436 190.099 20.132 189.651C13.778 189.115 11.976 186.18 5.67405 185.157C3.78005 184.85 1.88905 184.658 -0.00195312 184.529V189.286C3.07605 190.064 6.18405 190.915 9.50605 191.557C16.782 192.963 22.875 193.546 30.258 193.617Z" fill="#AB7A45"/>
<path d="M34.999 152.944C35.817 152.219 42.038 150.405 43.234 150.405C44.931 150.405 51.173 152.554 54.217 153.405C61.117 155.332 73.808 156.037 92.225 155.602C121.287 154.922 127.113 143.236 126.903 141.066C126.506 136.965 125.843 132.869 113.906 128.816C107.643 126.69 93.891 127.351 83.024 127.225C73.645 127.116 63.878 124.759 54.013 123.215C44.917 121.791 28.251 121.83 20.785 121.276C12.507 120.662 10.084 121.192 0 119.667V123.97C10.683 125.448 15.224 124.885 23.5 125.499C30.9 126.048 43.691 128.315 52.66 129.719C62.75 131.298 74.986 129.999 84.471 130.109C95.066 130.232 102.732 131.763 108.507 133.724C122.545 138.491 123.204 141.25 123.233 141.549C123.245 141.669 114.849 151.368 86.096 152.04C68.156 152.461 57.756 149.556 51.035 147.679C47.744 146.76 45.367 146.096 43.234 146.096C41.222 146.096 34.021 149.654 32.55 150.961C29.351 153.801 15.473 152.974 0.215 152.974C0.14 152.974 0.073 152.973 0 152.973V157.282C0.073 157.282 0.141 157.283 0.215 157.283C8.924 157.283 29.629 157.714 34.999 152.944Z" fill="#C28D5A"/>
<path d="M26.717 148.857C37.893 145.485 37.291 141.93 48.907 143.102C54.612 143.678 59.595 146.881 65.274 147.729C71.43 148.648 78.192 146.996 84.385 147.16C90.064 147.31 95.737 147.526 101.417 147.384C105.085 147.292 109.03 144.665 112.531 143.173C114.651 142.269 118.335 142.737 117.498 140.224C116.422 136.991 109.225 136.174 106.796 135.635C101.717 134.507 95.527 132.996 90.379 132.684C84.081 132.303 78.567 133.616 72.27 133.224C59.887 132.453 47.465 131.716 35.185 129.648C28.48 128.519 21.244 127.4 13.898 126.86C10.45 126.607 6.996 126.345 3.545 126.165C2.366 126.104 1.176 126.13 0 126.08V129.311C1.176 129.371 2.364 129.371 3.545 129.396C8.779 129.508 12.984 131.75 18.201 132.253C30.094 133.399 42.929 134.155 54.847 135.191C66.939 136.243 75.871 134.76 87.98 135.484C93.747 135.829 108.346 141.884 105.218 143.217C103.471 143.962 82.773 144.466 71.633 143.526C59.673 142.517 48.374 138.616 36.295 140.096C26.255 141.327 23.611 146.259 13.718 148.274C10.821 148.864 4.794 148.568 0.001 147.011V150.355C8.76 152.173 21.868 150.32 26.717 148.857Z" fill="#AB7A45"/>
<path d="M12.217 144.773C17.737 144.08 25.978 138.214 31.519 138.213C33.605 138.345 35.693 138.443 37.771 138.607C45.224 139.198 52.666 139.819 60.124 139.293C61.37 139.467 62.623 139.647 63.892 139.825C69.067 140.548 71.436 140.429 76.634 140.786C79.008 140.949 97.349 140.527 96.311 139.677C94.452 138.153 85.8 136.432 83.656 136.303C75.945 135.841 68.322 136.709 60.671 137.147C57.202 136.543 52.148 136.971 48.598 136.973C42.601 136.975 38.352 136.06 32.356 136.058C28.542 135.783 24.743 135.448 20.956 134.641C16.602 133.712 6.998 132.263 2.571 132.252C1.442 132.249 0.72 132.166 0 132.59V135.62C2.202 134.864 7.788 136.566 8.752 136.667C11.029 136.908 16.965 135.559 18.483 138.148C18.555 138.271 18.62 138.38 18.673 138.482C15.158 139.855 12.07 141.941 8.231 141.952C5.933 141.958 1.793 140.91 0.001 138.725V142.83C4.98 142.801 7.227 145.399 12.217 144.773Z" fill="#C28D5A"/>
<path d="M46.258 183.526C49.218 182.608 58.333 174.666 69.497 172.632C76.95 171.274 85.391 165.517 92.758 163.923C100.27 162.297 112.091 166.248 119.633 167.043C135.732 168.739 144.696 167.085 160.758 164.671C166.052 163.875 172.763 160.696 178.065 159.973C183.552 159.225 190.113 161.837 195.633 161.792C205.758 161.708 215.027 160.073 225 159.802V156.909C211.588 157.661 204.551 163.452 181.691 156.646C174.073 154.378 166.182 159.459 158.371 160.448C154.177 160.979 142.275 164.455 131.633 164.671C121.256 164.882 112.132 161.845 108.251 161.459C100.972 160.735 95.854 158.915 88.658 160.613C81.342 162.339 75.908 167.389 68.759 169.815C65.642 170.873 56.088 172.266 53.259 174.191C50.008 176.404 46.988 178.864 43.259 179.88C32.885 182.706 25.418 184.686 15.259 181.339C10.221 179.679 5.147 178.387 0 177.471V181.606C8.621 183.955 17.007 186.938 26.5 187.001C33.64 187.048 39.322 185.678 46.258 183.526Z" fill="#C28D5A"/>
<path d="M49.633 173.655C52.97 171.691 57.252 168.84 60.833 167.833C63.619 167.05 71.708 163.827 73.611 163.06C74.819 162.573 83.726 161.066 83.133 159.068C82.601 157.278 73.742 157.378 72.382 157.084C69.482 156.457 66.509 156.224 63.569 156.009C54.156 155.319 44.63 155.217 35.209 155.777C29.233 156.132 21.405 157.689 15.549 158.971C10.009 160.183 5.04302 159.811 -0.000976562 159.222V161.332C2.81402 161.408 5.68902 161.466 8.88702 161.457C20.391 161.427 24.622 159.413 31.355 158.095C37.348 156.921 40.333 159.317 46.382 159.359C53.492 159.408 61.715 155.415 70.595 159.684C71.513 160.125 70.607 161.386 69.767 161.799C68.309 162.516 66.575 162.512 65.023 162.645C61.766 162.925 58.653 163.96 55.484 164.837C52.227 165.738 47.81 169.871 44.883 171.806C41.855 173.807 40.636 173.102 37.403 174.659C34.572 176.022 29.704 177.365 26.716 177.102C20.624 176.567 16.474 173.559 10.401 172.825C7.34602 172.456 4.44902 172.059 1.48302 171.083C0.986024 170.92 0.493023 170.783 -0.000976562 170.639V173.725C5.65202 175.265 12.05 177.62 15.549 178.594C30.534 182.767 40.833 178.833 49.633 173.655Z" fill="#D49F6B"/>
<path d="M8.23002 141.953C12.07 141.942 15.158 139.856 18.672 138.483C18.619 138.381 18.554 138.272 18.482 138.149C16.964 135.56 11.028 136.909 8.75102 136.668C7.78702 136.566 2.20202 134.864 -0.000976562 135.621V138.725C1.79202 140.911 5.93202 141.959 8.23002 141.953Z" fill="#D49F6B"/>
<path d="M13.467 169.768C21.072 171.68 27.465 177.775 34.751 173.072C36.446 171.978 41.312 170.2 43.05 169.182C45.366 167.826 46.252 164.422 48.746 163.66C50.748 163.049 61.411 162.739 62.967 161.11C64.3 159.714 50.077 160.998 46.653 160.619C44.952 160.431 43.273 160.133 41.567 159.873C39.708 159.589 37.771 159.75 35.898 159.868C33.447 160.022 27.316 160.881 25.217 162.472C22.426 164.587 22.698 165.34 19.302 165.292C15.949 165.244 12.633 164.745 9.285 164.708C6.138 164.674 3.175 163.226 0 163.163V167.406C1.511 168.181 2.676 168.503 4.372 168.501C5.839 168.5 12.311 169.477 13.467 169.768ZM22.083 168.107C22.691 167.981 23.305 168.013 23.91 167.896C24.82 167.72 25.739 167.414 26.613 167.076C27.403 166.771 28.349 166.669 28.929 165.89C29.968 164.494 31.43 163.559 32.992 163.219C34.241 162.947 41.889 162.417 43.065 162.635C43.746 162.761 41.512 166.856 40.654 167.413C40.29 167.649 32.637 169.865 31.778 170.259C30.042 171.057 28.045 170.958 26.225 170.759C24.946 170.62 23.036 170.392 22.153 169.098C22.029 168.916 21.849 168.666 21.809 168.432C21.751 168.086 21.797 168.167 22.083 168.107Z" fill="#C28D5A"/>
<path d="M22.154 169.098C23.037 170.393 24.947 170.62 26.226 170.759C28.046 170.958 30.043 171.056 31.779 170.259C32.638 169.864 40.29 167.649 40.655 167.413C41.513 166.856 43.747 162.761 43.066 162.635C41.89 162.418 34.241 162.948 32.993 163.219C31.431 163.559 29.969 164.494 28.93 165.89C28.35 166.669 27.404 166.771 26.614 167.076C25.739 167.414 24.821 167.721 23.911 167.896C23.306 168.013 22.692 167.981 22.084 168.107C21.798 168.166 21.752 168.086 21.81 168.431C21.85 168.666 22.029 168.916 22.154 169.098Z" fill="#D49F6B"/>
<path d="M213.251 144.686C208.423 143.446 204.152 140.783 199.145 140.25C193.747 139.675 188.068 140.337 182.722 141.224C177.219 142.137 169.694 145.661 164.5 148C159.815 150.109 153.234 153.428 148.508 155.416C143.548 157.503 138.74 157.354 133.508 157.998C128.437 158.622 127.179 157.047 122.107 156.493C119.349 156.192 116.612 155.8 113.838 155.762C111.234 155.726 99.0349 157.294 96.4269 157.293C94.8149 157.292 104.437 159.262 106.049 159.263C108.657 159.264 120.041 161.332 122.757 161.791C134.832 163.833 148.988 159.864 153.709 158.144C158.738 156.312 171.165 143.166 195.382 144.14C200.538 144.347 209.675 147.267 214.758 147.965C217.517 148.344 220.239 148.127 223.006 148.09C223.674 148.081 224.338 148.075 224.999 148.056V144.167C224.511 144.061 223.985 143.986 223.382 143.994C220.353 144.036 216.244 145.455 213.251 144.686Z" fill="#D49F6B"/>
<path d="M190.013 145.822C186.904 145.766 184.972 147.108 181.883 147.35C179.884 147.506 171.657 150.334 170.633 153.768C171.822 155.201 177.59 152.579 179.133 152.747C181.315 152.985 183.879 153.694 186.008 154.497C190.087 156.037 194.264 157.309 198.512 157.292C204.278 157.269 209.859 156.316 215.554 155.213C218.85 154.574 221.874 154.444 224.999 154.424V151.429C218.07 151.082 211.205 149.988 204.341 148.443C199.59 147.374 194.895 145.911 190.013 145.822ZM215.223 152.966L216.071 153.112C214.082 153.939 210.85 153.63 208.574 154.169C206.601 154.636 204.526 154.57 202.466 154.57C200.505 154.57 198.621 154.71 196.786 154.092C194.555 153.34 192.567 152.423 190.216 151.911C188.081 151.446 186.213 151.215 183.982 151.215C183.351 151.215 181.636 151.465 181.219 151.047C180.014 149.838 182.184 149.662 182.995 149.578C187.627 149.098 193.573 149.161 198.104 150.085C203.51 151.187 209.58 153.371 215.223 152.966Z" fill="#C28D5A"/>
<path d="M182.994 149.578C182.182 149.662 180.012 149.838 181.218 151.047C181.635 151.465 183.35 151.215 183.981 151.215C186.213 151.215 188.08 151.447 190.215 151.911C192.567 152.422 194.554 153.34 196.785 154.092C198.62 154.71 200.503 154.57 202.465 154.57C204.525 154.57 206.6 154.636 208.573 154.169C210.85 153.63 214.082 153.938 216.07 153.112L215.222 152.966C209.579 153.371 203.509 151.187 198.102 150.085C193.572 149.162 187.626 149.098 182.994 149.578Z" fill="#D49F6B"/>
<path d="M176.5 134.333C167.667 136.242 163.754 139.03 155.429 142.698C150.913 144.687 146.497 148.615 141.667 149.75C136.938 150.862 130.202 148.648 125.359 148.872C123.754 148.946 118.138 153.991 119.75 153.917C128.093 153.533 141.521 153.144 149.25 149.834C153.571 147.984 160.264 143.288 164.816 142.023C169.405 140.747 174.116 139.937 178.774 138.965C188.047 137.03 192.614 135.933 202.125 137.001C206.985 137.547 214.911 141.794 219.75 142.501C221.338 142.733 223.152 142.397 225 141.996V138.675C220.196 137.525 214.024 134.997 209.779 134.365C200.291 132.952 185.842 132.314 176.5 134.333Z" fill="#AB7A45"/>
<path d="M21.454 117.969C29.622 118.347 38.326 121.009 46.5 120.874C54.689 120.739 63.809 123.41 72 123.375C78.631 123.346 81.013 121.98 87.75 123.75C94.268 125.462 101.389 124.835 106.833 124.507C111.951 124.199 116.888 124.569 121.5 127.301C124.112 128.848 126.47 131.187 128.189 133.575C130.02 136.118 130.201 141.329 132.25 143.707C136.259 148.36 143.868 144.294 148.305 141.394C151.221 139.488 163.007 131.432 166.794 130.743C174.261 129.386 182.103 129.302 189.662 129.75C193.75 129.992 197.722 131.225 201.772 131.763C205.988 132.323 210.217 132.802 214.444 133.275C217.957 133.668 221.476 134.015 225 134.293V131.789C221.805 131.536 218.614 131.227 215.425 130.883C211.508 130.46 207.597 129.98 203.686 129.506C199.606 129.011 195.626 127.923 191.547 127.445C184.41 126.609 176.93 126.938 169.811 127.789C166.682 128.163 163.519 128.643 160.58 129.813C157.556 131.016 154.916 132.978 152.386 134.985C147.33 138.997 139.549 145.954 134.209 138.364C132.32 135.679 130.67 132.813 128.781 130.113C127.174 127.816 126.086 125.656 123.704 124.059C119.649 121.342 113.984 121.612 109.347 121.853C106.963 121.977 104.584 122.188 102.195 122.207C98.327 122.238 80.375 118.626 74.666 119.333C66.313 120.368 55.844 117.391 47.428 117.543C38.928 117.696 26.245 115.232 17.749 114.875C10.52 114.571 6.33602 115.965 -0.000976562 116.511V119.055C7.10502 118.64 14.46 117.645 21.454 117.969Z" fill="#C28D5A"/>
<path d="M26.745 113.933C33.267 114.631 39.82 115.12 46.381 115.188C52.838 115.255 62.061 116.188 68.5 115.875C74.303 115.594 90.901 118.963 97.24 119.927C103.042 120.81 113.635 118.808 119.438 119.729C125.187 120.642 131.882 127.444 134 133.049C137.003 140.997 144.924 135.237 146.698 133.393C147.651 132.402 152.731 129.008 154.509 128.604C160.363 127.272 166.253 126.171 172.237 125.638C185.013 124.5 197.211 127.032 210 127.499C212.401 127.587 219.5 127.602 225 128.045V125.811C220.096 125.622 214.357 125.843 211.5 125.75C196.492 125.259 173.078 117.796 155.167 123.333C151.845 124.36 143.161 133.105 140.125 132.243C137.756 131.57 134.282 123.424 132 121.75C127.297 118.3 124.515 117.126 118.75 116.75C113.742 116.423 104.875 119 100.75 118.625C95.265 118.126 84.951 115.305 79.5 114.498C69.331 112.993 61.187 112.863 51 113.595C40.319 114.362 31.847 112.088 21.253 110.806C13.928 109.919 7.025 110.782 0 111.566V113.394C8.879 113.168 17.575 112.952 26.745 113.933Z" fill="#D49F6B"/>
<path d="M56.104 111.831C58.916 111.893 61.741 111.508 64.557 111.463C67.615 111.414 85.174 112.34 90.663 113.841C94.092 114.779 99.697 116.632 103.25 116.874C105.313 117.014 113.408 117.149 112.5 113.832C112.231 112.851 107.995 111.065 107.264 110.43C105.745 109.112 101.963 107.366 100.346 106.173C98.064 104.489 95.468 102.992 93.377 101.07C91.237 99.1032 88.986 96.1992 91.603 93.7282C93.059 92.3532 101.653 88.8912 102.374 86.9352C103.514 83.8402 92.346 84.6722 90.641 84.7492C85.675 84.9732 78.545 85.2442 73.874 86.9352C68.101 89.0242 62.392 92.4572 56.705 94.7492C50.789 97.1342 46.111 99.0902 39.819 99.1852C33.239 99.2842 26.655 99.5542 20.077 99.6092C13.248 99.6672 6.64405 97.8902 4.68751e-05 96.5302V99.0713C6.65605 100.437 13.229 102.067 20.077 102.109C23.976 102.133 27.872 101.779 31.77 101.702C35.276 101.633 38.782 101.727 42.289 101.634C48.756 101.463 57.342 97.5502 63.333 94.9992C69.919 92.1942 74 91.8172 80.958 89.9612C83.486 89.2872 86.081 89.0202 88.677 88.7682C89.586 88.6802 90.495 88.6322 91.408 88.6342C92.761 88.6362 93.445 88.4002 92.439 89.6052C91.076 91.2372 89.043 92.1572 88.182 94.1942C87.272 96.3502 88.192 98.9672 89.608 100.678C91.899 103.446 94.921 105.306 97.805 107.397C99.471 108.605 100.935 110.114 102.729 111.124C109.324 114.831 98.167 112.994 95.676 112.481C92.863 111.901 87.572 109.281 84.748 108.749C75.852 107.074 41.831 109.999 25.842 105.529C19.752 103.826 10.827 104.101 4.49805 103.874C3.45905 103.837 1.83205 103.77 -0.00195312 103.694V107.965C3.85305 108.594 21.838 108.168 33.307 110.874C40.182 112.497 48.998 111.674 56.104 111.831Z" fill="#C28D5A"/>
<path d="M51.8622 106.418C57.3882 106.784 62.6702 105.715 68.1972 105.889C73.2962 106.049 78.5442 105.346 83.5022 106.429C97.2242 109.427 89.3242 105.569 87.9062 102.585C87.2492 101.202 84.5062 94.5959 83.0002 93.6479C79.6482 91.5399 73.1102 94.8869 69.4272 95.7899C64.7722 96.9309 60.3912 98.5699 55.8112 99.9009C53.6032 100.543 51.3412 101.014 49.1262 101.635C46.7962 102.289 44.7532 103.303 42.2512 103.257C42.0242 103.253 31.8752 105.095 51.8622 106.418ZM51.3242 103.405C55.3932 102.34 59.3102 101.176 63.2692 99.8119C66.6102 98.6609 71.2052 98.8899 74.2092 97.1129C81.1302 93.0199 87.4902 103.997 84.4682 104.164C82.2382 104.287 79.9372 104.028 77.7132 103.893C73.2922 103.624 68.8442 103.631 64.4152 103.507C60.5322 103.398 56.6782 103.468 52.8302 103.976C51.1792 104.194 49.5412 104.395 47.9142 104.458C49.0442 104.096 50.1702 103.707 51.3242 103.405Z" fill="#D49F6B"/>
<path d="M72.5309 101.971C74.5909 101.929 76.4239 102.217 78.4729 101.69C80.9719 101.047 78.8279 100.29 77.3779 99.9308C76.1549 99.6278 74.7119 99.0948 73.3529 99.3218C71.8889 99.5668 70.3289 100.267 68.8779 100.643C66.6359 101.224 64.0709 101.955 61.7269 102.15L61.3809 102.433C63.4549 102.239 65.4979 102.139 67.5549 102.087C69.2119 102.047 70.8699 102.005 72.5309 101.971Z" fill="#AB7A45"/>
<path d="M195.735 118.868C190.674 118.605 185.645 118.73 180.625 118.25C176.411 117.847 172.119 117.159 167.875 117C163.028 116.819 158.104 115.522 153.285 114.778C147.676 113.912 141.833 113.625 136.154 113.625C133.963 113.625 131.799 113.428 129.598 113.5C129.105 113.516 127.412 113.354 127.117 113.763C126.37 114.801 128.284 115.563 128.872 115.871C132.65 117.852 137.593 117.892 138.719 122.615C138.912 123.424 138.787 124.707 139.296 125.377C140.126 126.469 142.03 125.973 143.117 125.633C145.657 124.838 146.065 122.602 148.118 121.374C152.308 118.866 156.828 117.964 161.655 118.125C163.492 118.186 165.311 118.712 167.124 119.031C169.105 119.379 171.121 119.327 173.091 119.628C178.435 120.447 184.002 120.302 189.366 121.035C195.917 121.93 202.698 122.943 209.372 122.406C213.455 122.077 217.568 122.242 221.632 121.875C222.764 121.773 223.881 121.614 225 121.481V120.826C220.955 120.715 216.943 120.375 212.909 120.375C207.145 120.374 201.475 119.167 195.735 118.868Z" fill="#C28D5A"/>
</svg>
