<svg width="100" height="100" viewBox="0 0 100 100" fill="none" xmlns="http://www.w3.org/2000/svg">
<g filter="url(#filter0_i_57_1359)">
<rect width="100" height="100" rx="50" fill="#8F5E30"/>
</g>
<g filter="url(#filter1_d_57_1359)">
<path d="M62.9653 84.3745C70.3716 84.3745 76.3755 78.3706 76.3755 70.9644C76.3755 63.5581 70.3716 57.5542 62.9653 57.5542C55.5591 57.5542 49.5552 63.5581 49.5552 70.9644C49.5552 78.3706 55.5591 84.3745 62.9653 84.3745Z" fill="url(#paint0_radial_57_1359)"/>
<path d="M62.9652 57.5546C70.3714 57.5546 76.3754 63.5586 76.3754 70.9648C76.3754 78.371 70.3714 84.3749 62.9652 84.3749C55.559 84.3749 49.5551 78.371 49.5551 70.9648C49.5551 63.5586 55.559 57.5546 62.9652 57.5546ZM62.9652 57.1016C61.0939 57.1016 59.2783 57.4682 57.5689 58.1912C55.918 58.8894 54.4355 59.889 53.1625 61.162C51.8895 62.435 50.8899 63.9176 50.1917 65.5684C49.4686 67.2779 49.1021 69.0934 49.1021 70.9647C49.1021 72.836 49.4686 74.6516 50.1917 76.361C50.8899 78.0119 51.8895 79.4944 53.1625 80.7675C54.4355 82.0405 55.9181 83.0401 57.5689 83.7383C59.2783 84.4614 61.0939 84.828 62.9652 84.828C64.8365 84.828 66.6522 84.4614 68.3615 83.7383C70.0124 83.0401 71.4949 82.0405 72.768 80.7675C74.0411 79.4945 75.0406 78.0119 75.7388 76.361C76.4619 74.6516 76.8284 72.836 76.8284 70.9647C76.8284 69.0934 76.4619 67.2778 75.7388 65.5684C75.0406 63.9175 74.041 62.435 72.768 61.162C71.495 59.889 70.0124 58.8894 68.3615 58.1912C66.6522 57.4682 64.8365 57.1016 62.9652 57.1016Z" fill="#3F5916"/>
<g opacity="0.3">
<mask id="mask0_57_1359" style="mask-type:luminance" maskUnits="userSpaceOnUse" x="49" y="57" width="28" height="28">
<path d="M72.447 80.4467C77.6839 75.2097 77.6839 66.719 72.447 61.482C67.21 56.2451 58.7193 56.2451 53.4823 61.482C48.2454 66.719 48.2454 75.2097 53.4823 80.4467C58.7193 85.6836 67.21 85.6836 72.447 80.4467Z" fill="white"/>
</mask>
<g mask="url(#mask0_57_1359)">
<path d="M73.8904 59.2637C73.1464 64.566 70.5055 69.5822 66.555 73.1965C65.1774 74.4568 63.652 75.5479 62.2804 76.8148C58.7017 80.1201 56.2492 84.6234 55.4141 89.4228L58.8205 90.6681C60.4218 87.235 62.0818 83.7183 64.8104 81.0906C66.9531 79.0273 69.6369 77.6297 72.0135 75.8409C75.4983 73.2179 78.323 69.7249 80.1589 65.7684L73.8904 59.2637Z" fill="#1A1A1A"/>
</g>
<mask id="mask1_57_1359" style="mask-type:luminance" maskUnits="userSpaceOnUse" x="49" y="57" width="28" height="28">
<path d="M72.447 80.4467C77.6839 75.2097 77.6839 66.719 72.447 61.482C67.21 56.2451 58.7193 56.2451 53.4823 61.482C48.2454 66.719 48.2454 75.2097 53.4823 80.4467C58.7193 85.6836 67.21 85.6836 72.447 80.4467Z" fill="white"/>
</mask>
<g mask="url(#mask1_57_1359)">
<path d="M70.7267 57.3711C67.2462 58.8838 64.8134 62.1349 63.1543 65.5481C62.3643 67.1733 61.701 68.8824 60.6114 70.3241C59.8327 71.3544 58.8542 72.2211 57.8028 72.9709C54.4537 75.3595 50.2905 76.5836 46.1816 76.3881L43.2583 59.8142L56.2366 53.3125L70.7267 57.3711Z" fill="#1A1A1A"/>
</g>
</g>
<path opacity="0.2" d="M62.9653 80.4288C56.2296 80.4288 50.6552 75.4623 49.7009 68.9917C49.6059 69.6357 49.5552 70.2943 49.5552 70.9648C49.5552 78.371 55.5591 84.3749 62.9653 84.3749C70.3715 84.3749 76.3754 78.371 76.3754 70.9648C76.3754 70.2943 76.3247 69.6357 76.2297 68.9917C75.2754 75.4623 69.701 80.4288 62.9653 80.4288Z" fill="#1A1A1A"/>
<path opacity="0.3" d="M62.9653 58.475C70.2171 58.475 76.1206 64.2321 76.3638 71.4247C76.369 71.2716 76.3754 71.1187 76.3754 70.9644C76.3754 63.5581 70.3715 57.5542 62.9653 57.5542C55.5591 57.5542 49.5552 63.5581 49.5552 70.9644C49.5552 71.1187 49.5616 71.2716 49.5668 71.4247C49.81 64.2321 55.7136 58.475 62.9653 58.475Z" fill="white"/>
<path opacity="0.5" d="M71.0714 81.3738C71.1187 81.4609 68.6676 82.9976 66.379 83.68C66.2048 83.7319 65.5182 83.9321 64.5969 84.063C63.9624 84.1532 63.599 84.1524 62.8723 84.1507C62.474 84.1498 62.1165 84.1342 61.7396 83.9315C61.4975 83.8013 61.1875 83.5514 61.2354 83.4272C61.3056 83.245 62.116 83.4131 62.5215 83.4784C64.9957 83.8771 67.5049 82.8873 69.2299 82.2068C70.4759 81.7154 71.0483 81.3314 71.0714 81.3738Z" fill="white"/>
<path opacity="0.5" d="M60.8384 83.4374C60.8548 83.5456 60.7454 83.6592 60.6588 83.7133C60.2134 83.9911 59.249 83.3897 59.3008 83.1832C59.3396 83.0291 59.9528 83.0629 60.3426 83.1581C60.5109 83.1992 60.8136 83.2731 60.8384 83.4374Z" fill="white"/>
<path opacity="0.5" d="M55.2604 81.1102C55.2592 81.1378 55.2548 81.2389 55.1885 81.286C54.8718 81.5106 53.5782 80.2747 52.7441 79.2472C52.1287 78.4892 51.6521 77.6757 51.6918 77.6468C51.7072 77.6355 51.8004 77.7445 52.1193 78.1072C52.7577 78.833 53.0768 79.196 53.2264 79.3458C53.6508 79.7709 53.9301 80.0506 54.3883 80.3433C54.8179 80.6177 55.2729 80.8191 55.2604 81.1102Z" fill="white"/>
<path opacity="0.5" d="M65.5539 60.2255C65.8727 60.2255 66.1312 59.967 66.1312 59.6481C66.1312 59.3293 65.8727 59.0708 65.5539 59.0708C65.235 59.0708 64.9766 59.3293 64.9766 59.6481C64.9766 59.967 65.235 60.2255 65.5539 60.2255Z" fill="white"/>
<path opacity="0.5" d="M64.5384 59.4801C64.3454 59.8429 63.7559 59.8843 63.0477 59.8893C61.6398 59.8993 60.4152 59.908 60.3877 59.6555C60.359 59.3917 61.6602 59.0491 62.5215 58.9248C62.8206 58.8815 64.3869 58.6555 64.5823 59.144C64.6402 59.2888 64.557 59.4452 64.5384 59.4801Z" fill="white"/>
</g>
<g filter="url(#filter2_d_57_1359)">
<path d="M35.8633 54.2734C43.2695 54.2734 49.2734 48.2695 49.2734 40.8633C49.2734 33.4571 43.2695 27.4531 35.8633 27.4531C28.4571 27.4531 22.4531 33.4571 22.4531 40.8633C22.4531 48.2695 28.4571 54.2734 35.8633 54.2734Z" fill="url(#paint1_radial_57_1359)"/>
<path d="M35.8632 27.4531C43.2694 27.4531 49.2733 33.457 49.2733 40.8632C49.2733 48.2695 43.2694 54.2734 35.8632 54.2734C28.457 54.2734 22.453 48.2694 22.453 40.8632C22.453 33.457 28.457 27.4531 35.8632 27.4531ZM35.8632 27C33.9919 27 32.1762 27.3666 30.4668 28.0896C28.816 28.7879 27.3335 29.7874 26.0604 31.0604C24.7874 32.3335 23.7879 33.816 23.0896 35.4668C22.3666 37.1763 22 38.9919 22 40.8632C22 42.7345 22.3666 44.55 23.0896 46.2595C23.7879 47.9104 24.7874 49.3929 26.0604 50.666C27.3335 51.939 28.816 52.9385 30.4668 53.6368C32.1763 54.3598 33.9919 54.7264 35.8632 54.7264C37.7345 54.7264 39.5501 54.3598 41.2595 53.6368C42.9104 52.9385 44.3929 51.939 45.666 50.666C46.939 49.3929 47.9385 47.9104 48.6368 46.2595C49.3598 44.55 49.7264 42.7345 49.7264 40.8632C49.7264 38.9919 49.3598 37.1763 48.6368 35.4668C47.9385 33.816 46.939 32.3335 45.666 31.0604C44.3929 29.7874 42.9104 28.7879 41.2595 28.0896C39.5501 27.3666 37.7345 27 35.8632 27Z" fill="#822012"/>
<g opacity="0.3">
<mask id="mask2_57_1359" style="mask-type:luminance" maskUnits="userSpaceOnUse" x="22" y="27" width="28" height="28">
<path d="M35.8633 54.2734C43.2695 54.2734 49.2734 48.2695 49.2734 40.8633C49.2734 33.4571 43.2695 27.4531 35.8633 27.4531C28.4571 27.4531 22.4531 33.4571 22.4531 40.8633C22.4531 48.2695 28.4571 54.2734 35.8633 54.2734Z" fill="white"/>
</mask>
<g mask="url(#mask2_57_1359)">
<path d="M46.7884 29.1621C46.0443 34.4645 43.4034 39.4807 39.453 43.0949C38.0754 44.3553 36.5499 45.4464 35.1783 46.7132C31.5997 50.0185 29.1471 54.5218 28.312 59.3212L31.7184 60.5665C33.3198 57.1334 34.9798 53.6168 37.7084 50.9891C39.851 48.9258 42.5348 47.5282 44.9115 45.7394C48.3963 43.1164 51.221 39.6234 53.0568 35.6669L46.7884 29.1621Z" fill="#1A1A1A"/>
</g>
<mask id="mask3_57_1359" style="mask-type:luminance" maskUnits="userSpaceOnUse" x="22" y="27" width="28" height="28">
<path d="M35.8633 54.2734C43.2695 54.2734 49.2734 48.2695 49.2734 40.8633C49.2734 33.4571 43.2695 27.4531 35.8633 27.4531C28.4571 27.4531 22.4531 33.4571 22.4531 40.8633C22.4531 48.2695 28.4571 54.2734 35.8633 54.2734Z" fill="white"/>
</mask>
<g mask="url(#mask3_57_1359)">
<path d="M43.6246 27.27C40.1442 28.7828 37.7113 32.0339 36.0522 35.447C35.2622 37.0723 34.599 38.7814 33.5093 40.2231C32.7307 41.2533 31.7521 42.1201 30.7007 42.8699C27.3517 45.2584 23.1884 46.4826 19.0795 46.2871L16.1562 29.7132L29.1346 23.2114L43.6246 27.27Z" fill="#1A1A1A"/>
</g>
</g>
<path opacity="0.2" d="M35.8633 50.3272C29.1275 50.3272 23.5532 45.3607 22.5988 38.8901C22.5038 39.5342 22.4531 40.1927 22.4531 40.8632C22.4531 48.2694 28.4571 54.2733 35.8633 54.2733C43.2694 54.2733 49.2734 48.2694 49.2734 40.8632C49.2734 40.1927 49.2226 39.5342 49.1277 38.8901C48.1734 45.3607 42.599 50.3272 35.8633 50.3272Z" fill="#1A1A1A"/>
<path opacity="0.3" d="M35.8633 28.3739C43.1151 28.3739 49.0186 34.131 49.2618 41.3237C49.2669 41.1705 49.2734 41.0177 49.2734 40.8633C49.2734 33.4571 43.2694 27.4531 35.8633 27.4531C28.4571 27.4531 22.4531 33.4571 22.4531 40.8633C22.4531 41.0177 22.4596 41.1705 22.4648 41.3237C22.7079 34.131 28.6115 28.3739 35.8633 28.3739Z" fill="white"/>
<path opacity="0.5" d="M43.9688 51.2727C44.0162 51.3598 41.5651 52.8965 39.2765 53.5789C39.1022 53.6309 38.4157 53.831 37.4943 53.9619C36.8599 54.0521 36.4965 54.0513 35.7698 54.0496C35.3715 54.0487 35.014 54.0331 34.6371 53.8304C34.3949 53.7002 34.085 53.4504 34.1329 53.3262C34.2031 53.1439 35.0135 53.312 35.419 53.3773C37.8931 53.776 40.4023 52.7862 42.1274 52.1058C43.3733 51.6144 43.9457 51.2303 43.9688 51.2727Z" fill="white"/>
<path opacity="0.5" d="M33.7363 53.3358C33.7527 53.444 33.6434 53.5577 33.5568 53.6117C33.1113 53.8896 32.1469 53.2882 32.1988 53.0817C32.2375 52.9275 32.8507 52.9614 33.2406 53.0566C33.4088 53.0976 33.7116 53.1715 33.7363 53.3358Z" fill="white"/>
<path opacity="0.5" d="M28.1578 51.0091C28.1567 51.0367 28.1522 51.1378 28.0859 51.1849C27.7693 51.4096 26.4756 50.1736 25.6415 49.1461C25.0262 48.3881 24.5496 47.5746 24.5892 47.5457C24.6047 47.5344 24.6978 47.6434 25.0167 48.0061C25.6551 48.732 25.9743 49.0949 26.1238 49.2447C26.5482 49.6698 26.8276 49.9495 27.2858 50.2422C27.7154 50.5166 28.1704 50.7181 28.1578 51.0091Z" fill="white"/>
<path opacity="0.5" d="M39.0157 29.683C39.0889 29.3727 38.8968 29.0617 38.5865 28.9885C38.2762 28.9152 37.9652 29.1073 37.8919 29.4176C37.8187 29.7279 38.0108 30.0389 38.3211 30.1122C38.6314 30.1854 38.9424 29.9933 39.0157 29.683Z" fill="white"/>
<path opacity="0.5" d="M37.4358 29.3791C37.2428 29.7418 36.6533 29.7833 35.9451 29.7883C34.5373 29.7982 33.3127 29.8069 33.2851 29.5544C33.2564 29.2906 34.5577 28.948 35.4189 28.8237C35.7181 28.7805 37.2844 28.5544 37.4797 29.0429C37.5376 29.1878 37.4544 29.3441 37.4358 29.3791Z" fill="white"/>
</g>
<defs>
<filter id="filter0_i_57_1359" x="0" y="0" width="100" height="100" filterUnits="userSpaceOnUse" color-interpolation-filters="sRGB">
<feFlood flood-opacity="0" result="BackgroundImageFix"/>
<feBlend mode="normal" in="SourceGraphic" in2="BackgroundImageFix" result="shape"/>
<feColorMatrix in="SourceAlpha" type="matrix" values="0 0 0 0 0 0 0 0 0 0 0 0 0 0 0 0 0 0 127 0" result="hardAlpha"/>
<feMorphology radius="10" operator="erode" in="SourceAlpha" result="effect1_innerShadow_57_1359"/>
<feOffset/>
<feGaussianBlur stdDeviation="5"/>
<feComposite in2="hardAlpha" operator="arithmetic" k2="-1" k3="1"/>
<feColorMatrix type="matrix" values="0 0 0 0 0 0 0 0 0 0 0 0 0 0 0 0 0 0 0.3 0"/>
<feBlend mode="normal" in2="shape" result="effect1_innerShadow_57_1359"/>
</filter>
<filter id="filter1_d_57_1359" x="44.6021" y="53.6016" width="36.7266" height="36.7266" filterUnits="userSpaceOnUse" color-interpolation-filters="sRGB">
<feFlood flood-opacity="0" result="BackgroundImageFix"/>
<feColorMatrix in="SourceAlpha" type="matrix" values="0 0 0 0 0 0 0 0 0 0 0 0 0 0 0 0 0 0 127 0" result="hardAlpha"/>
<feOffset dy="1"/>
<feGaussianBlur stdDeviation="2.25"/>
<feComposite in2="hardAlpha" operator="out"/>
<feColorMatrix type="matrix" values="0 0 0 0 0 0 0 0 0 0 0 0 0 0 0 0 0 0 0.6 0"/>
<feBlend mode="normal" in2="BackgroundImageFix" result="effect1_dropShadow_57_1359"/>
<feBlend mode="normal" in="SourceGraphic" in2="effect1_dropShadow_57_1359" result="shape"/>
</filter>
<filter id="filter2_d_57_1359" x="17.5" y="23.5" width="36.7266" height="36.7266" filterUnits="userSpaceOnUse" color-interpolation-filters="sRGB">
<feFlood flood-opacity="0" result="BackgroundImageFix"/>
<feColorMatrix in="SourceAlpha" type="matrix" values="0 0 0 0 0 0 0 0 0 0 0 0 0 0 0 0 0 0 127 0" result="hardAlpha"/>
<feOffset dy="1"/>
<feGaussianBlur stdDeviation="2.25"/>
<feComposite in2="hardAlpha" operator="out"/>
<feColorMatrix type="matrix" values="0 0 0 0 0 0 0 0 0 0 0 0 0 0 0 0 0 0 0.6 0"/>
<feBlend mode="normal" in2="BackgroundImageFix" result="effect1_dropShadow_57_1359"/>
<feBlend mode="normal" in="SourceGraphic" in2="effect1_dropShadow_57_1359" result="shape"/>
</filter>
<radialGradient id="paint0_radial_57_1359" cx="0" cy="0" r="1" gradientUnits="userSpaceOnUse" gradientTransform="translate(62.9653 70.9644) scale(13.4101)">
<stop stop-color="#C9FF28"/>
<stop offset="0.1578" stop-color="#C4FA26"/>
<stop offset="0.3517" stop-color="#B6EB21"/>
<stop offset="0.5645" stop-color="#A0D219"/>
<stop offset="0.7892" stop-color="#80AF0D"/>
<stop offset="1" stop-color="#5C8800"/>
</radialGradient>
<radialGradient id="paint1_radial_57_1359" cx="0" cy="0" r="1" gradientUnits="userSpaceOnUse" gradientTransform="translate(35.8633 40.8633) scale(13.4101)">
<stop stop-color="#FE9456"/>
<stop offset="0.2057" stop-color="#FD8F52"/>
<stop offset="0.4583" stop-color="#FB8046"/>
<stop offset="0.7344" stop-color="#F66732"/>
<stop offset="1" stop-color="#F1481A"/>
</radialGradient>
</defs>
</svg>
