<svg width="100" height="100" viewBox="0 0 100 100" fill="none" xmlns="http://www.w3.org/2000/svg">
<g filter="url(#filter0_i_57_1357)">
<rect width="100" height="100" rx="50" fill="#8F5E30"/>
</g>
<g filter="url(#filter1_d_57_1357)">
<path d="M35.8633 46.2734C43.2695 46.2734 49.2734 40.2695 49.2734 32.8633C49.2734 25.4571 43.2695 19.4531 35.8633 19.4531C28.4571 19.4531 22.4531 25.4571 22.4531 32.8633C22.4531 40.2695 28.4571 46.2734 35.8633 46.2734Z" fill="url(#paint0_radial_57_1357)"/>
<path d="M35.8632 19.4531C43.2694 19.4531 49.2733 25.457 49.2733 32.8632C49.2733 40.2694 43.2694 46.2734 35.8632 46.2734C28.457 46.2734 22.453 40.2694 22.453 32.8632C22.453 25.457 28.457 19.4531 35.8632 19.4531ZM35.8632 19C33.9919 19 32.1762 19.3666 30.4668 20.0896C28.816 20.7879 27.3335 21.7874 26.0604 23.0604C24.7874 24.3335 23.7879 25.816 23.0896 27.4669C22.3666 29.1763 22 30.9919 22 32.8632C22 34.7345 22.3666 36.5502 23.0896 38.2595C23.7879 39.9104 24.7874 41.393 26.0604 42.666C27.3335 43.939 28.816 44.9386 30.4668 45.6368C32.1763 46.3598 33.9919 46.7264 35.8632 46.7264C37.7345 46.7264 39.5501 46.3599 41.2595 45.6368C42.9104 44.9386 44.3929 43.939 45.666 42.666C46.939 41.393 47.9385 39.9104 48.6368 38.2595C49.3598 36.5502 49.7264 34.7345 49.7264 32.8632C49.7264 30.9919 49.3598 29.1763 48.6368 27.4669C47.9385 25.816 46.939 24.3335 45.666 23.0604C44.3929 21.7874 42.9104 20.7879 41.2595 20.0896C39.5501 19.3666 37.7345 19 35.8632 19Z" fill="#880063"/>
<g opacity="0.3">
<mask id="mask0_57_1357" style="mask-type:luminance" maskUnits="userSpaceOnUse" x="22" y="19" width="28" height="28">
<path d="M35.8633 46.2734C43.2695 46.2734 49.2734 40.2695 49.2734 32.8633C49.2734 25.4571 43.2695 19.4531 35.8633 19.4531C28.4571 19.4531 22.4531 25.4571 22.4531 32.8633C22.4531 40.2695 28.4571 46.2734 35.8633 46.2734Z" fill="white"/>
</mask>
<g mask="url(#mask0_57_1357)">
<path d="M46.7884 21.1621C46.0443 26.4645 43.4034 31.4807 39.453 35.0949C38.0754 36.3553 36.5499 37.4464 35.1783 38.7132C31.5997 42.0185 29.1471 46.5218 28.312 51.3212L31.7184 52.5665C33.3198 49.1334 34.9798 45.6168 37.7084 42.9891C39.851 40.9258 42.5348 39.5282 44.9115 37.7394C48.3963 35.1164 51.221 31.6234 53.0568 27.6669L46.7884 21.1621Z" fill="#1A1A1A"/>
</g>
<mask id="mask1_57_1357" style="mask-type:luminance" maskUnits="userSpaceOnUse" x="22" y="19" width="28" height="28">
<path d="M35.8633 46.2734C43.2695 46.2734 49.2734 40.2695 49.2734 32.8633C49.2734 25.4571 43.2695 19.4531 35.8633 19.4531C28.4571 19.4531 22.4531 25.4571 22.4531 32.8633C22.4531 40.2695 28.4571 46.2734 35.8633 46.2734Z" fill="white"/>
</mask>
<g mask="url(#mask1_57_1357)">
<path d="M43.6246 19.2695C40.1442 20.7823 37.7113 24.0333 36.0522 27.4465C35.2622 29.0718 34.599 30.7808 33.5093 32.2225C32.7307 33.2528 31.7521 34.1195 30.7007 34.8694C27.3517 37.2579 23.1884 38.4821 19.0795 38.2865L16.1562 21.7126L29.1346 15.2109L43.6246 19.2695Z" fill="#1A1A1A"/>
</g>
</g>
<path opacity="0.2" d="M35.8633 42.3272C29.1275 42.3272 23.5532 37.3607 22.5988 30.8901C22.5038 31.5342 22.4531 32.1927 22.4531 32.8632C22.4531 40.2694 28.4571 46.2733 35.8633 46.2733C43.2694 46.2733 49.2734 40.2694 49.2734 32.8632C49.2734 32.1927 49.2226 31.5342 49.1277 30.8901C48.1734 37.3607 42.599 42.3272 35.8633 42.3272Z" fill="#1A1A1A"/>
<path opacity="0.3" d="M35.8633 20.3739C43.1151 20.3739 49.0186 26.131 49.2618 33.3237C49.2669 33.1705 49.2734 33.0177 49.2734 32.8633C49.2734 25.4571 43.2694 19.4531 35.8633 19.4531C28.4571 19.4531 22.4531 25.4571 22.4531 32.8633C22.4531 33.0177 22.4596 33.1705 22.4648 33.3237C22.7079 26.131 28.6115 20.3739 35.8633 20.3739Z" fill="white"/>
<path opacity="0.5" d="M43.9688 43.2722C44.0162 43.3593 41.5651 44.896 39.2765 45.5784C39.1022 45.6304 38.4157 45.8305 37.4943 45.9615C36.8599 46.0516 36.4965 46.0508 35.7698 46.0491C35.3715 46.0482 35.014 46.0326 34.6371 45.8299C34.3949 45.6997 34.085 45.4499 34.1329 45.3257C34.2031 45.1434 35.0135 45.3115 35.419 45.3768C37.8931 45.7755 40.4023 44.7857 42.1274 44.1053C43.3733 43.6139 43.9457 43.2298 43.9688 43.2722Z" fill="white"/>
<path opacity="0.5" d="M33.7363 45.3358C33.7527 45.4441 33.6434 45.5577 33.5568 45.6117C33.1113 45.8896 32.1469 45.2882 32.1988 45.0817C32.2375 44.9275 32.8507 44.9614 33.2406 45.0566C33.4088 45.0976 33.7116 45.1715 33.7363 45.3358Z" fill="white"/>
<path opacity="0.5" d="M28.1578 43.0086C28.1567 43.0362 28.1522 43.1374 28.0859 43.1844C27.7693 43.4091 26.4756 42.1731 25.6415 41.1456C25.0262 40.3876 24.5496 39.5742 24.5892 39.5452C24.6047 39.5339 24.6978 39.6429 25.0167 40.0056C25.6551 40.7315 25.9743 41.0944 26.1238 41.2442C26.5482 41.6693 26.8276 41.9491 27.2858 42.2417C27.7154 42.5161 28.1704 42.7176 28.1578 43.0086Z" fill="white"/>
<path opacity="0.5" d="M38.859 21.9546C39.0844 21.7292 39.0844 21.3636 38.859 21.1382C38.6335 20.9127 38.268 20.9127 38.0425 21.1382C37.817 21.3636 37.817 21.7292 38.0425 21.9546C38.268 22.1801 38.6335 22.1801 38.859 21.9546Z" fill="white"/>
<path opacity="0.5" d="M37.4358 21.3785C37.2428 21.7413 36.6533 21.7827 35.9451 21.7878C34.5373 21.7978 33.3127 21.8064 33.2851 21.5539C33.2564 21.2901 34.5577 20.9475 35.4189 20.8232C35.7181 20.78 37.2844 20.5539 37.4797 21.0424C37.5376 21.1872 37.4544 21.3435 37.4358 21.3785Z" fill="white"/>
</g>
<g filter="url(#filter2_d_57_1357)">
<path d="M68.8633 55.2734C76.2695 55.2734 82.2734 49.2695 82.2734 41.8633C82.2734 34.4571 76.2695 28.4531 68.8633 28.4531C61.4571 28.4531 55.4531 34.4571 55.4531 41.8633C55.4531 49.2695 61.4571 55.2734 68.8633 55.2734Z" fill="url(#paint1_radial_57_1357)"/>
<path d="M68.8632 28.4531C76.2694 28.4531 82.2734 34.457 82.2734 41.8632C82.2734 49.2694 76.2694 55.2734 68.8632 55.2734C61.457 55.2734 55.4531 49.2694 55.4531 41.8632C55.4531 34.457 61.457 28.4531 68.8632 28.4531ZM68.8632 28C66.9919 28 65.1763 28.3666 63.4669 29.0896C61.816 29.7879 60.3335 30.7874 59.0604 32.0604C57.7874 33.3335 56.7879 34.816 56.0896 36.4669C55.3666 38.1763 55 39.9919 55 41.8632C55 43.7345 55.3666 45.5502 56.0896 47.2595C56.7879 48.9104 57.7874 50.393 59.0604 51.666C60.3335 52.939 61.816 53.9386 63.4669 54.6368C65.1763 55.3598 66.9919 55.7264 68.8632 55.7264C70.7345 55.7264 72.5502 55.3599 74.2595 54.6368C75.9104 53.9386 77.3929 52.939 78.666 51.666C79.939 50.393 80.9385 48.9104 81.6368 47.2595C82.3598 45.5502 82.7264 43.7345 82.7264 41.8632C82.7264 39.9919 82.3598 38.1763 81.6368 36.4669C80.9385 34.816 79.939 33.3335 78.666 32.0604C77.3929 30.7874 75.9104 29.7879 74.2595 29.0896C72.5502 28.3666 70.7345 28 68.8632 28Z" fill="#1C3875"/>
<g opacity="0.3">
<mask id="mask2_57_1357" style="mask-type:luminance" maskUnits="userSpaceOnUse" x="55" y="28" width="28" height="28">
<path d="M68.8633 55.2739C76.2695 55.2739 82.2734 49.27 82.2734 41.8638C82.2734 34.4575 76.2695 28.4536 68.8633 28.4536C61.4571 28.4536 55.4531 34.4575 55.4531 41.8638C55.4531 49.27 61.4571 55.2739 68.8633 55.2739Z" fill="white"/>
</mask>
<g mask="url(#mask2_57_1357)">
<path d="M79.7884 30.1626C79.0443 35.465 76.4034 40.4812 72.4529 44.0954C71.0754 45.3558 69.5499 46.4469 68.1783 47.7137C64.5997 51.019 62.1472 55.5223 61.312 60.3217L64.7184 61.567C66.3198 58.1339 67.9798 54.6172 70.7084 51.9896C72.851 49.9262 75.5348 48.5287 77.9115 46.7398C81.3963 44.1169 84.221 40.6239 86.0568 36.6674L79.7884 30.1626Z" fill="#1A1A1A"/>
</g>
<mask id="mask3_57_1357" style="mask-type:luminance" maskUnits="userSpaceOnUse" x="55" y="28" width="28" height="28">
<path d="M68.8633 55.2739C76.2695 55.2739 82.2734 49.27 82.2734 41.8638C82.2734 34.4575 76.2695 28.4536 68.8633 28.4536C61.4571 28.4536 55.4531 34.4575 55.4531 41.8638C55.4531 49.27 61.4571 55.2739 68.8633 55.2739Z" fill="white"/>
</mask>
<g mask="url(#mask3_57_1357)">
<path d="M76.6246 28.27C73.1442 29.7827 70.7113 33.0338 69.0522 36.447C68.2622 38.0723 67.599 39.7813 66.5093 41.223C65.7307 42.2533 64.7521 43.12 63.7007 43.8698C60.3517 46.2584 56.1884 47.4826 52.0795 47.287L49.1562 30.7131L62.1346 24.2114L76.6246 28.27Z" fill="#1A1A1A"/>
</g>
</g>
<path opacity="0.2" d="M68.8633 51.3272C62.1276 51.3272 56.5532 46.3607 55.5988 39.8901C55.5038 40.5342 55.4531 41.1927 55.4531 41.8632C55.4531 49.2694 61.4571 55.2733 68.8633 55.2733C76.2695 55.2733 82.2734 49.2694 82.2734 41.8632C82.2734 41.1927 82.2226 40.5342 82.1277 39.8901C81.1734 46.3607 75.599 51.3272 68.8633 51.3272Z" fill="#1A1A1A"/>
<path opacity="0.3" d="M68.8633 29.3739C76.1151 29.3739 82.0186 35.131 82.2618 42.3237C82.2669 42.1705 82.2734 42.0177 82.2734 41.8633C82.2734 34.4571 76.2694 28.4531 68.8633 28.4531C61.4571 28.4531 55.4531 34.4571 55.4531 41.8633C55.4531 42.0177 55.4596 42.1705 55.4648 42.3237C55.7079 35.131 61.6115 29.3739 68.8633 29.3739Z" fill="white"/>
<path opacity="0.5" d="M76.9693 52.2722C77.0167 52.3593 74.5656 53.896 72.277 54.5784C72.1027 54.6304 71.4161 54.8305 70.4948 54.9615C69.8603 55.0516 69.497 55.0508 68.7702 55.0491C68.3719 55.0482 68.0145 55.0326 67.6376 54.8299C67.3954 54.6997 67.0855 54.4499 67.1334 54.3257C67.2036 54.1434 68.014 54.3115 68.4195 54.3768C70.8936 54.7755 73.4028 53.7857 75.1279 53.1053C76.3738 52.6139 76.9462 52.2298 76.9693 52.2722Z" fill="white"/>
<path opacity="0.5" d="M66.7364 54.3363C66.7527 54.4446 66.6434 54.5582 66.5568 54.6122C66.1113 54.89 65.1469 54.2887 65.1988 54.0822C65.2375 53.928 65.8507 53.9619 66.2406 54.0571C66.4088 54.0981 66.7116 54.172 66.7364 54.3363Z" fill="white"/>
<path opacity="0.5" d="M61.1578 52.0091C61.1567 52.0367 61.1522 52.1378 61.0859 52.1849C60.7693 52.4096 59.4756 51.1736 58.6415 50.1461C58.0262 49.3881 57.5496 48.5746 57.5892 48.5457C57.6047 48.5344 57.6978 48.6434 58.0168 49.0061C58.6551 49.732 58.9743 50.0949 59.1238 50.2447C59.5482 50.6698 59.8276 50.9495 60.2858 51.2422C60.7154 51.5166 61.1704 51.7181 61.1578 52.0091Z" fill="white"/>
<path opacity="0.5" d="M72.0171 30.6673C72.0817 30.3551 71.8809 30.0497 71.5686 29.9851C71.2564 29.9206 70.9509 30.1214 70.8864 30.4336C70.8218 30.7459 71.0227 31.0513 71.3349 31.1159C71.6472 31.1804 71.9526 30.9796 72.0171 30.6673Z" fill="white"/>
<path opacity="0.5" d="M70.4363 30.379C70.2433 30.7418 69.6538 30.7832 68.9456 30.7883C67.5377 30.7982 66.3131 30.8069 66.2856 30.5544C66.2569 30.2906 67.5582 29.948 68.4194 29.8237C68.7186 29.7805 70.285 29.5544 70.4802 30.0429C70.5381 30.1877 70.4549 30.344 70.4363 30.379Z" fill="white"/>
</g>
<g filter="url(#filter3_d_57_1357)">
<path d="M29.9653 80.375C37.3715 80.375 43.3755 74.3711 43.3755 66.9648C43.3755 59.5586 37.3715 53.5547 29.9653 53.5547C22.5591 53.5547 16.5552 59.5586 16.5552 66.9648C16.5552 74.3711 22.5591 80.375 29.9653 80.375Z" fill="url(#paint2_radial_57_1357)"/>
<path d="M29.9653 53.5551C37.3715 53.5551 43.3754 59.5591 43.3754 66.9653C43.3754 74.3715 37.3715 80.3754 29.9653 80.3754C22.5591 80.3754 16.5551 74.3715 16.5551 66.9653C16.5551 59.5591 22.5591 53.5551 29.9653 53.5551ZM29.9653 53.1021C28.094 53.1021 26.2784 53.4686 24.569 54.1917C22.9181 54.8899 21.4356 55.8895 20.1625 57.1625C18.8894 58.4355 17.8899 59.9181 17.1917 61.5689C16.4686 63.2783 16.1021 65.0939 16.1021 66.9652C16.1021 68.8365 16.4686 70.6521 17.1917 72.3615C17.8899 74.0124 18.8895 75.4949 20.1625 76.768C21.4355 78.0411 22.9181 79.0406 24.569 79.7388C26.2784 80.4619 28.094 80.8284 29.9653 80.8284C31.8366 80.8284 33.6522 80.4619 35.3616 79.7388C37.0125 79.0406 38.495 78.041 39.768 76.768C41.041 75.495 42.0406 74.0124 42.7388 72.3615C43.4619 70.6521 43.8284 68.8365 43.8284 66.9652C43.8284 65.0939 43.4619 63.2783 42.7388 61.5689C42.0406 59.918 41.041 58.4355 39.768 57.1625C38.495 55.8895 37.0124 54.8899 35.3616 54.1917C33.6522 53.4687 31.8366 53.1021 29.9653 53.1021Z" fill="#265500"/>
<g opacity="0.3">
<mask id="mask4_57_1357" style="mask-type:luminance" maskUnits="userSpaceOnUse" x="16" y="53" width="28" height="28">
<path d="M39.447 76.4472C44.6839 71.2102 44.6839 62.7195 39.447 57.4825C34.21 52.2456 25.7193 52.2456 20.4823 57.4825C15.2454 62.7195 15.2454 71.2102 20.4823 76.4472C25.7193 81.6841 34.21 81.6841 39.447 76.4472Z" fill="white"/>
</mask>
<g mask="url(#mask4_57_1357)">
<path d="M40.8904 55.2642C40.1464 60.5665 37.5055 65.5827 33.555 69.197C32.1774 70.4573 30.652 71.5484 29.2804 72.8153C25.7017 76.1206 23.2492 80.6239 22.4141 85.4233L25.8205 86.6685C27.4218 83.2355 29.0818 79.7188 31.8104 77.0911C33.9531 75.0278 36.6369 73.6302 39.0135 71.8413C42.4983 69.2184 45.323 65.7254 47.1589 61.7689L40.8904 55.2642Z" fill="#1A1A1A"/>
</g>
<mask id="mask5_57_1357" style="mask-type:luminance" maskUnits="userSpaceOnUse" x="16" y="53" width="28" height="28">
<path d="M39.447 76.4472C44.6839 71.2102 44.6839 62.7195 39.447 57.4825C34.21 52.2456 25.7193 52.2456 20.4823 57.4825C15.2454 62.7195 15.2454 71.2102 20.4823 76.4472C25.7193 81.6841 34.21 81.6841 39.447 76.4472Z" fill="white"/>
</mask>
<g mask="url(#mask5_57_1357)">
<path d="M37.7266 53.3716C34.2462 54.8843 31.8133 58.1354 30.1542 61.5486C29.3642 63.1738 28.701 64.8829 27.6113 66.3246C26.8327 67.3548 25.8541 68.2216 24.8027 68.9714C21.4537 71.3599 17.2904 72.5841 13.1815 72.3886L10.2583 55.8147L23.2366 49.313L37.7266 53.3716Z" fill="#1A1A1A"/>
</g>
</g>
<path opacity="0.2" d="M29.9653 76.4293C23.2296 76.4293 17.6552 71.4627 16.7009 64.9922C16.6059 65.6362 16.5552 66.2948 16.5552 66.9653C16.5552 74.3715 22.5591 80.3754 29.9653 80.3754C37.3715 80.3754 43.3754 74.3715 43.3754 66.9653C43.3754 66.2948 43.3247 65.6362 43.2297 64.9922C42.2754 71.4627 36.701 76.4293 29.9653 76.4293Z" fill="#1A1A1A"/>
<path opacity="0.3" d="M29.9653 54.4754C37.2171 54.4754 43.1206 60.2326 43.3638 67.4252C43.369 67.2721 43.3754 67.1192 43.3754 66.9648C43.3754 59.5586 37.3715 53.5547 29.9653 53.5547C22.5591 53.5547 16.5552 59.5586 16.5552 66.9648C16.5552 67.1192 16.5616 67.2721 16.5668 67.4252C16.81 60.2326 22.7136 54.4754 29.9653 54.4754Z" fill="white"/>
<path opacity="0.5" d="M38.0709 77.3743C38.1182 77.4613 35.6671 78.9981 33.3785 79.6805C33.2043 79.7324 32.5177 79.9326 31.5964 80.0635C30.9619 80.1537 30.5985 80.1529 29.8718 80.1512C29.4735 80.1503 29.116 80.1346 28.7391 79.932C28.497 79.8017 28.1871 79.5519 28.2349 79.4277C28.3051 79.2455 29.1155 79.4136 29.521 79.4789C31.9951 79.8776 34.5044 78.8878 36.2294 78.2073C37.4754 77.7159 38.0478 77.3319 38.0709 77.3743Z" fill="white"/>
<path opacity="0.5" d="M27.8379 79.4379C27.8543 79.5461 27.7449 79.6597 27.6583 79.7138C27.2129 79.9916 26.2484 79.3902 26.3004 79.1837C26.3391 79.0296 26.9523 79.0634 27.3421 79.1586C27.5104 79.1997 27.8132 79.2736 27.8379 79.4379Z" fill="white"/>
<path opacity="0.5" d="M22.2599 77.1107C22.2587 77.1383 22.2543 77.2394 22.188 77.2865C21.8713 77.5111 20.5777 76.2752 19.7436 75.2476C19.1283 74.4896 18.6516 73.6762 18.6913 73.6473C18.7067 73.6359 18.7999 73.745 19.1188 74.1077C19.7571 74.8335 20.0763 75.1965 20.2259 75.3463C20.6503 75.7714 20.9296 76.0511 21.3878 76.3438C21.8174 76.6182 22.2724 76.8196 22.2599 77.1107Z" fill="white"/>
<path opacity="0.5" d="M32.5539 56.2259C32.8727 56.2259 33.1312 55.9675 33.1312 55.6486C33.1312 55.3298 32.8727 55.0713 32.5539 55.0713C32.235 55.0713 31.9766 55.3298 31.9766 55.6486C31.9766 55.9675 32.235 56.2259 32.5539 56.2259Z" fill="white"/>
<path opacity="0.5" d="M31.5379 55.4806C31.3449 55.8433 30.7554 55.8848 30.0472 55.8898C28.6393 55.8998 27.4147 55.9085 27.3872 55.656C27.3585 55.3922 28.6598 55.0496 29.521 54.9252C29.8201 54.882 31.3865 54.6559 31.5818 55.1445C31.6397 55.2893 31.5565 55.4457 31.5379 55.4806Z" fill="white"/>
</g>
<g filter="url(#filter4_d_57_1357)">
<path d="M60.8633 82.2734C68.2695 82.2734 74.2734 76.2695 74.2734 68.8633C74.2734 61.4571 68.2695 55.4531 60.8633 55.4531C53.4571 55.4531 47.4531 61.4571 47.4531 68.8633C47.4531 76.2695 53.4571 82.2734 60.8633 82.2734Z" fill="url(#paint3_radial_57_1357)"/>
<path d="M60.8632 55.4531C68.2694 55.4531 74.2733 61.457 74.2733 68.8632C74.2733 76.2695 68.2694 82.2734 60.8632 82.2734C53.457 82.2734 47.453 76.2694 47.453 68.8632C47.453 61.457 53.457 55.4531 60.8632 55.4531ZM60.8632 55C58.9919 55 57.1762 55.3666 55.4668 56.0896C53.816 56.7879 52.3335 57.7874 51.0604 59.0604C49.7874 60.3335 48.7879 61.816 48.0896 63.4668C47.3666 65.1763 47 66.9919 47 68.8632C47 70.7345 47.3666 72.55 48.0896 74.2595C48.7879 75.9104 49.7874 77.3929 51.0604 78.666C52.3335 79.939 53.816 80.9385 55.4668 81.6368C57.1763 82.3598 58.9919 82.7264 60.8632 82.7264C62.7345 82.7264 64.5501 82.3598 66.2595 81.6368C67.9104 80.9385 69.3929 79.939 70.666 78.666C71.939 77.3929 72.9385 75.9104 73.6368 74.2595C74.3598 72.55 74.7264 70.7345 74.7264 68.8632C74.7264 66.9919 74.3598 65.1763 73.6368 63.4668C72.9385 61.816 71.939 60.3335 70.666 59.0604C69.3929 57.7874 67.9104 56.7879 66.2595 56.0896C64.5501 55.3666 62.7345 55 60.8632 55Z" fill="#822012"/>
<g opacity="0.3">
<mask id="mask6_57_1357" style="mask-type:luminance" maskUnits="userSpaceOnUse" x="47" y="55" width="28" height="28">
<path d="M60.8633 82.2734C68.2695 82.2734 74.2734 76.2695 74.2734 68.8633C74.2734 61.4571 68.2695 55.4531 60.8633 55.4531C53.4571 55.4531 47.4531 61.4571 47.4531 68.8633C47.4531 76.2695 53.4571 82.2734 60.8633 82.2734Z" fill="white"/>
</mask>
<g mask="url(#mask6_57_1357)">
<path d="M71.7884 57.1621C71.0443 62.4645 68.4034 67.4807 64.453 71.0949C63.0754 72.3553 61.5499 73.4464 60.1783 74.7132C56.5997 78.0185 54.1471 82.5218 53.312 87.3212L56.7184 88.5665C58.3198 85.1334 59.9798 81.6168 62.7084 78.9891C64.851 76.9258 67.5348 75.5282 69.9115 73.7394C73.3963 71.1164 76.221 67.6234 78.0568 63.6669L71.7884 57.1621Z" fill="#1A1A1A"/>
</g>
<mask id="mask7_57_1357" style="mask-type:luminance" maskUnits="userSpaceOnUse" x="47" y="55" width="28" height="28">
<path d="M60.8633 82.2734C68.2695 82.2734 74.2734 76.2695 74.2734 68.8633C74.2734 61.4571 68.2695 55.4531 60.8633 55.4531C53.4571 55.4531 47.4531 61.4571 47.4531 68.8633C47.4531 76.2695 53.4571 82.2734 60.8633 82.2734Z" fill="white"/>
</mask>
<g mask="url(#mask7_57_1357)">
<path d="M68.6246 55.27C65.1442 56.7828 62.7113 60.0339 61.0522 63.447C60.2622 65.0723 59.599 66.7814 58.5093 68.2231C57.7307 69.2533 56.7521 70.1201 55.7007 70.8699C52.3517 73.2584 48.1884 74.4826 44.0795 74.2871L41.1562 57.7132L54.1346 51.2114L68.6246 55.27Z" fill="#1A1A1A"/>
</g>
</g>
<path opacity="0.2" d="M60.8633 78.3272C54.1275 78.3272 48.5532 73.3607 47.5988 66.8901C47.5038 67.5342 47.4531 68.1927 47.4531 68.8632C47.4531 76.2694 53.4571 82.2733 60.8633 82.2733C68.2694 82.2733 74.2734 76.2694 74.2734 68.8632C74.2734 68.1927 74.2226 67.5342 74.1277 66.8901C73.1734 73.3607 67.599 78.3272 60.8633 78.3272Z" fill="#1A1A1A"/>
<path opacity="0.3" d="M60.8633 56.3739C68.1151 56.3739 74.0186 62.131 74.2618 69.3237C74.2669 69.1705 74.2734 69.0177 74.2734 68.8633C74.2734 61.4571 68.2694 55.4531 60.8633 55.4531C53.4571 55.4531 47.4531 61.4571 47.4531 68.8633C47.4531 69.0177 47.4596 69.1705 47.4648 69.3237C47.7079 62.131 53.6115 56.3739 60.8633 56.3739Z" fill="white"/>
<path opacity="0.5" d="M68.9688 79.2727C69.0162 79.3598 66.5651 80.8965 64.2765 81.5789C64.1022 81.6309 63.4157 81.831 62.4943 81.9619C61.8599 82.0521 61.4965 82.0513 60.7698 82.0496C60.3715 82.0487 60.014 82.0331 59.6371 81.8304C59.3949 81.7002 59.085 81.4504 59.1329 81.3262C59.2031 81.1439 60.0135 81.312 60.419 81.3773C62.8931 81.776 65.4023 80.7862 67.1274 80.1058C68.3733 79.6144 68.9457 79.2303 68.9688 79.2727Z" fill="white"/>
<path opacity="0.5" d="M58.7363 81.3358C58.7527 81.444 58.6434 81.5577 58.5568 81.6117C58.1113 81.8896 57.1469 81.2882 57.1988 81.0817C57.2375 80.9275 57.8507 80.9614 58.2406 81.0566C58.4088 81.0976 58.7116 81.1715 58.7363 81.3358Z" fill="white"/>
<path opacity="0.5" d="M53.1578 79.0091C53.1567 79.0367 53.1522 79.1378 53.0859 79.1849C52.7693 79.4096 51.4756 78.1736 50.6415 77.1461C50.0262 76.3881 49.5496 75.5746 49.5892 75.5457C49.6047 75.5344 49.6978 75.6434 50.0167 76.0061C50.6551 76.732 50.9743 77.0949 51.1238 77.2447C51.5482 77.6698 51.8276 77.9495 52.2858 78.2422C52.7154 78.5166 53.1704 78.7181 53.1578 79.0091Z" fill="white"/>
<path opacity="0.5" d="M64.0157 57.683C64.0889 57.3727 63.8968 57.0617 63.5865 56.9885C63.2762 56.9152 62.9652 57.1073 62.8919 57.4176C62.8187 57.7279 63.0108 58.0389 63.3211 58.1122C63.6314 58.1854 63.9424 57.9933 64.0157 57.683Z" fill="white"/>
<path opacity="0.5" d="M62.4358 57.3791C62.2428 57.7418 61.6533 57.7833 60.9451 57.7883C59.5373 57.7982 58.3127 57.8069 58.2851 57.5544C58.2564 57.2906 59.5577 56.948 60.4189 56.8237C60.7181 56.7805 62.2844 56.5544 62.4797 57.0429C62.5376 57.1878 62.4544 57.3441 62.4358 57.3791Z" fill="white"/>
</g>
<defs>
<filter id="filter0_i_57_1357" x="0" y="0" width="100" height="100" filterUnits="userSpaceOnUse" color-interpolation-filters="sRGB">
<feFlood flood-opacity="0" result="BackgroundImageFix"/>
<feBlend mode="normal" in="SourceGraphic" in2="BackgroundImageFix" result="shape"/>
<feColorMatrix in="SourceAlpha" type="matrix" values="0 0 0 0 0 0 0 0 0 0 0 0 0 0 0 0 0 0 127 0" result="hardAlpha"/>
<feMorphology radius="10" operator="erode" in="SourceAlpha" result="effect1_innerShadow_57_1357"/>
<feOffset/>
<feGaussianBlur stdDeviation="5"/>
<feComposite in2="hardAlpha" operator="arithmetic" k2="-1" k3="1"/>
<feColorMatrix type="matrix" values="0 0 0 0 0 0 0 0 0 0 0 0 0 0 0 0 0 0 0.3 0"/>
<feBlend mode="normal" in2="shape" result="effect1_innerShadow_57_1357"/>
</filter>
<filter id="filter1_d_57_1357" x="17.5" y="15.5" width="36.7266" height="36.7266" filterUnits="userSpaceOnUse" color-interpolation-filters="sRGB">
<feFlood flood-opacity="0" result="BackgroundImageFix"/>
<feColorMatrix in="SourceAlpha" type="matrix" values="0 0 0 0 0 0 0 0 0 0 0 0 0 0 0 0 0 0 127 0" result="hardAlpha"/>
<feOffset dy="1"/>
<feGaussianBlur stdDeviation="2.25"/>
<feComposite in2="hardAlpha" operator="out"/>
<feColorMatrix type="matrix" values="0 0 0 0 0 0 0 0 0 0 0 0 0 0 0 0 0 0 0.6 0"/>
<feBlend mode="normal" in2="BackgroundImageFix" result="effect1_dropShadow_57_1357"/>
<feBlend mode="normal" in="SourceGraphic" in2="effect1_dropShadow_57_1357" result="shape"/>
</filter>
<filter id="filter2_d_57_1357" x="50.5" y="24.5" width="36.7266" height="36.7266" filterUnits="userSpaceOnUse" color-interpolation-filters="sRGB">
<feFlood flood-opacity="0" result="BackgroundImageFix"/>
<feColorMatrix in="SourceAlpha" type="matrix" values="0 0 0 0 0 0 0 0 0 0 0 0 0 0 0 0 0 0 127 0" result="hardAlpha"/>
<feOffset dy="1"/>
<feGaussianBlur stdDeviation="2.25"/>
<feComposite in2="hardAlpha" operator="out"/>
<feColorMatrix type="matrix" values="0 0 0 0 0 0 0 0 0 0 0 0 0 0 0 0 0 0 0.6 0"/>
<feBlend mode="normal" in2="BackgroundImageFix" result="effect1_dropShadow_57_1357"/>
<feBlend mode="normal" in="SourceGraphic" in2="effect1_dropShadow_57_1357" result="shape"/>
</filter>
<filter id="filter3_d_57_1357" x="11.6021" y="49.6021" width="36.7266" height="36.7266" filterUnits="userSpaceOnUse" color-interpolation-filters="sRGB">
<feFlood flood-opacity="0" result="BackgroundImageFix"/>
<feColorMatrix in="SourceAlpha" type="matrix" values="0 0 0 0 0 0 0 0 0 0 0 0 0 0 0 0 0 0 127 0" result="hardAlpha"/>
<feOffset dy="1"/>
<feGaussianBlur stdDeviation="2.25"/>
<feComposite in2="hardAlpha" operator="out"/>
<feColorMatrix type="matrix" values="0 0 0 0 0 0 0 0 0 0 0 0 0 0 0 0 0 0 0.6 0"/>
<feBlend mode="normal" in2="BackgroundImageFix" result="effect1_dropShadow_57_1357"/>
<feBlend mode="normal" in="SourceGraphic" in2="effect1_dropShadow_57_1357" result="shape"/>
</filter>
<filter id="filter4_d_57_1357" x="42.5" y="51.5" width="36.7266" height="36.7266" filterUnits="userSpaceOnUse" color-interpolation-filters="sRGB">
<feFlood flood-opacity="0" result="BackgroundImageFix"/>
<feColorMatrix in="SourceAlpha" type="matrix" values="0 0 0 0 0 0 0 0 0 0 0 0 0 0 0 0 0 0 127 0" result="hardAlpha"/>
<feOffset dy="1"/>
<feGaussianBlur stdDeviation="2.25"/>
<feComposite in2="hardAlpha" operator="out"/>
<feColorMatrix type="matrix" values="0 0 0 0 0 0 0 0 0 0 0 0 0 0 0 0 0 0 0.6 0"/>
<feBlend mode="normal" in2="BackgroundImageFix" result="effect1_dropShadow_57_1357"/>
<feBlend mode="normal" in="SourceGraphic" in2="effect1_dropShadow_57_1357" result="shape"/>
</filter>
<radialGradient id="paint0_radial_57_1357" cx="0" cy="0" r="1" gradientUnits="userSpaceOnUse" gradientTransform="translate(35.8633 32.8633) scale(13.4101)">
<stop stop-color="#FE5FE1"/>
<stop offset="0.1803" stop-color="#F95ADC"/>
<stop offset="0.4018" stop-color="#EB4BCE"/>
<stop offset="0.6448" stop-color="#D332B8"/>
<stop offset="0.9015" stop-color="#B20F98"/>
<stop offset="1" stop-color="#A3008A"/>
</radialGradient>
<radialGradient id="paint1_radial_57_1357" cx="0" cy="0" r="1" gradientUnits="userSpaceOnUse" gradientTransform="translate(68.8633 41.8633) scale(13.4101)">
<stop stop-color="#2897FF"/>
<stop offset="0.1578" stop-color="#2693FA"/>
<stop offset="0.3517" stop-color="#2187EB"/>
<stop offset="0.5645" stop-color="#1974D2"/>
<stop offset="0.7892" stop-color="#0D59AF"/>
<stop offset="1" stop-color="#003A88"/>
</radialGradient>
<radialGradient id="paint2_radial_57_1357" cx="0" cy="0" r="1" gradientUnits="userSpaceOnUse" gradientTransform="translate(29.9653 66.9648) scale(13.4101)">
<stop stop-color="#81FE61"/>
<stop offset="0.1505" stop-color="#7CFA5E"/>
<stop offset="0.3354" stop-color="#6DED56"/>
<stop offset="0.5383" stop-color="#54D849"/>
<stop offset="0.7542" stop-color="#31BB36"/>
<stop offset="0.9781" stop-color="#05961F"/>
<stop offset="1" stop-color="#00921C"/>
</radialGradient>
<radialGradient id="paint3_radial_57_1357" cx="0" cy="0" r="1" gradientUnits="userSpaceOnUse" gradientTransform="translate(60.8633 68.8633) scale(13.4101)">
<stop stop-color="#FE9456"/>
<stop offset="0.2057" stop-color="#FD8F52"/>
<stop offset="0.4583" stop-color="#FB8046"/>
<stop offset="0.7344" stop-color="#F66732"/>
<stop offset="1" stop-color="#F1481A"/>
</radialGradient>
</defs>
</svg>
