<svg width="100" height="100" viewBox="0 0 100 100" fill="none" xmlns="http://www.w3.org/2000/svg">
<g filter="url(#filter0_i_57_1355)">
<rect width="100" height="100" rx="50" fill="#8F5E30"/>
</g>
<g filter="url(#filter1_d_57_1355)">
<path d="M42.8633 78.2734C50.2695 78.2734 56.2734 72.2695 56.2734 64.8633C56.2734 57.4571 50.2695 51.4531 42.8633 51.4531C35.4571 51.4531 29.4531 57.4571 29.4531 64.8633C29.4531 72.2695 35.4571 78.2734 42.8633 78.2734Z" fill="url(#paint0_radial_57_1355)"/>
<path d="M42.8632 51.4531C50.2694 51.4531 56.2734 57.457 56.2734 64.8632C56.2734 72.2694 50.2694 78.2734 42.8632 78.2734C35.457 78.2734 29.4531 72.2694 29.4531 64.8632C29.4531 57.457 35.457 51.4531 42.8632 51.4531ZM42.8632 51C40.9919 51 39.1763 51.3666 37.4669 52.0896C35.816 52.7879 34.3335 53.7874 33.0604 55.0604C31.7874 56.3335 30.7879 57.816 30.0896 59.4669C29.3666 61.1763 29 62.9919 29 64.8632C29 66.7345 29.3666 68.5502 30.0896 70.2595C30.7879 71.9104 31.7874 73.393 33.0604 74.666C34.3335 75.939 35.816 76.9386 37.4669 77.6368C39.1763 78.3598 40.9919 78.7264 42.8632 78.7264C44.7345 78.7264 46.5502 78.3599 48.2595 77.6368C49.9104 76.9386 51.3929 75.939 52.666 74.666C53.939 73.393 54.9385 71.9104 55.6367 70.2595C56.3598 68.5502 56.7264 66.7345 56.7264 64.8632C56.7264 62.9919 56.3598 61.1763 55.6367 59.4669C54.9385 57.816 53.939 56.3335 52.666 55.0604C51.3929 53.7874 49.9104 52.7879 48.2595 52.0896C46.5502 51.3666 44.7345 51 42.8632 51Z" fill="#321C75"/>
<g opacity="0.3">
<mask id="mask0_57_1355" style="mask-type:luminance" maskUnits="userSpaceOnUse" x="29" y="51" width="28" height="28">
<path d="M42.8633 78.2734C50.2695 78.2734 56.2734 72.2695 56.2734 64.8633C56.2734 57.4571 50.2695 51.4531 42.8633 51.4531C35.4571 51.4531 29.4531 57.4571 29.4531 64.8633C29.4531 72.2695 35.4571 78.2734 42.8633 78.2734Z" fill="white"/>
</mask>
<g mask="url(#mask0_57_1355)">
<path d="M53.7884 53.1621C53.0443 58.4645 50.4034 63.4807 46.4529 67.0949C45.0754 68.3553 43.5499 69.4464 42.1783 70.7132C38.5997 74.0185 36.1471 78.5218 35.312 83.3212L38.7184 84.5665C40.3198 81.1334 41.9798 77.6168 44.7084 74.9891C46.851 72.9258 49.5348 71.5282 51.9115 69.7394C55.3963 67.1164 58.221 63.6234 60.0568 59.6669L53.7884 53.1621Z" fill="#1A1A1A"/>
</g>
<mask id="mask1_57_1355" style="mask-type:luminance" maskUnits="userSpaceOnUse" x="29" y="51" width="28" height="28">
<path d="M42.8633 78.2734C50.2695 78.2734 56.2734 72.2695 56.2734 64.8633C56.2734 57.4571 50.2695 51.4531 42.8633 51.4531C35.4571 51.4531 29.4531 57.4571 29.4531 64.8633C29.4531 72.2695 35.4571 78.2734 42.8633 78.2734Z" fill="white"/>
</mask>
<g mask="url(#mask1_57_1355)">
<path d="M50.6246 51.2695C47.1441 52.7823 44.7113 56.0333 43.0523 59.4465C42.2622 61.0718 41.599 62.7808 40.5093 64.2225C39.7307 65.2528 38.7521 66.1195 37.7007 66.8694C34.3517 69.2579 30.1884 70.4821 26.0795 70.2865L23.1562 53.7126L36.1346 47.2109L50.6246 51.2695Z" fill="#1A1A1A"/>
</g>
</g>
<path opacity="0.2" d="M42.8633 74.3272C36.1276 74.3272 30.5532 69.3607 29.5988 62.8901C29.5038 63.5342 29.4531 64.1927 29.4531 64.8632C29.4531 72.2694 35.4571 78.2733 42.8633 78.2733C50.2694 78.2733 56.2734 72.2694 56.2734 64.8632C56.2734 64.1927 56.2226 63.5342 56.1277 62.8901C55.1734 69.3607 49.599 74.3272 42.8633 74.3272Z" fill="#1A1A1A"/>
<path opacity="0.3" d="M42.8633 52.3739C50.1151 52.3739 56.0186 58.131 56.2618 65.3237C56.2669 65.1705 56.2734 65.0177 56.2734 64.8633C56.2734 57.4571 50.2694 51.4531 42.8633 51.4531C35.4571 51.4531 29.4531 57.4571 29.4531 64.8633C29.4531 65.0177 29.4596 65.1705 29.4648 65.3237C29.7079 58.131 35.6115 52.3739 42.8633 52.3739Z" fill="white"/>
<path opacity="0.5" d="M50.9693 75.2722C51.0167 75.3593 48.5656 76.896 46.277 77.5784C46.1027 77.6304 45.4161 77.8305 44.4948 77.9615C43.8603 78.0516 43.497 78.0508 42.7703 78.0491C42.3719 78.0482 42.0145 78.0326 41.6376 77.8299C41.3954 77.6997 41.0855 77.4499 41.1334 77.3257C41.2036 77.1434 42.014 77.3115 42.4195 77.3768C44.8936 77.7755 47.4028 76.7857 49.1279 76.1053C50.3738 75.6139 50.9462 75.2298 50.9693 75.2722Z" fill="white"/>
<path opacity="0.5" d="M40.7364 77.3358C40.7527 77.4441 40.6434 77.5577 40.5568 77.6117C40.1113 77.8896 39.1469 77.2882 39.1988 77.0817C39.2375 76.9275 39.8507 76.9614 40.2406 77.0566C40.4088 77.0976 40.7116 77.1715 40.7364 77.3358Z" fill="white"/>
<path opacity="0.5" d="M35.1578 75.0086C35.1567 75.0362 35.1522 75.1374 35.0859 75.1844C34.7693 75.4091 33.4756 74.1731 32.6415 73.1456C32.0262 72.3876 31.5496 71.5742 31.5892 71.5452C31.6047 71.5339 31.6978 71.6429 32.0167 72.0056C32.6551 72.7315 32.9743 73.0944 33.1238 73.2442C33.5483 73.6693 33.8276 73.9491 34.2858 74.2417C34.7154 74.5161 35.1704 74.7176 35.1578 75.0086Z" fill="white"/>
<path opacity="0.5" d="M46.0142 53.6879C46.0875 53.3775 45.8953 53.0666 45.585 52.9933C45.2747 52.9201 44.9638 53.1122 44.8905 53.4225C44.8172 53.7328 45.0094 54.0438 45.3197 54.117C45.63 54.1903 45.9409 53.9982 46.0142 53.6879Z" fill="white"/>
<path opacity="0.5" d="M44.4363 53.3785C44.2433 53.7413 43.6538 53.7827 42.9456 53.7878C41.5377 53.7978 40.3131 53.8064 40.2856 53.5539C40.2569 53.2901 41.5582 52.9475 42.4194 52.8232C42.7186 52.78 44.2849 52.5539 44.4802 53.0424C44.5381 53.1872 44.4549 53.3435 44.4363 53.3785Z" fill="white"/>
</g>
<g filter="url(#filter2_d_57_1355)">
<path d="M29.8633 47.2734C37.2695 47.2734 43.2734 41.2695 43.2734 33.8633C43.2734 26.4571 37.2695 20.4531 29.8633 20.4531C22.4571 20.4531 16.4531 26.4571 16.4531 33.8633C16.4531 41.2695 22.4571 47.2734 29.8633 47.2734Z" fill="url(#paint1_radial_57_1355)"/>
<path d="M29.8632 20.4531C37.2694 20.4531 43.2734 26.457 43.2734 33.8632C43.2734 41.2694 37.2694 47.2734 29.8632 47.2734C22.457 47.2734 16.4531 41.2694 16.4531 33.8632C16.4531 26.457 22.457 20.4531 29.8632 20.4531ZM29.8632 20C27.9919 20 26.1763 20.3666 24.4669 21.0896C22.816 21.7879 21.3335 22.7874 20.0604 24.0604C18.7874 25.3335 17.7879 26.816 17.0896 28.4669C16.3666 30.1763 16 31.9919 16 33.8632C16 35.7345 16.3666 37.5502 17.0896 39.2595C17.7879 40.9104 18.7874 42.393 20.0604 43.666C21.3335 44.939 22.816 45.9386 24.4669 46.6368C26.1763 47.3598 27.9919 47.7264 29.8632 47.7264C31.7345 47.7264 33.5502 47.3599 35.2595 46.6368C36.9104 45.9386 38.3929 44.939 39.666 43.666C40.939 42.393 41.9385 40.9104 42.6368 39.2595C43.3598 37.5502 43.7264 35.7345 43.7264 33.8632C43.7264 31.9919 43.3598 30.1763 42.6368 28.4669C41.9385 26.816 40.939 25.3335 39.666 24.0604C38.3929 22.7874 36.9104 21.7879 35.2595 21.0896C33.5502 20.3666 31.7345 20 29.8632 20Z" fill="#1C3875"/>
<g opacity="0.3">
<mask id="mask2_57_1355" style="mask-type:luminance" maskUnits="userSpaceOnUse" x="16" y="20" width="28" height="28">
<path d="M29.8633 47.2739C37.2695 47.2739 43.2734 41.27 43.2734 33.8638C43.2734 26.4575 37.2695 20.4536 29.8633 20.4536C22.4571 20.4536 16.4531 26.4575 16.4531 33.8638C16.4531 41.27 22.4571 47.2739 29.8633 47.2739Z" fill="white"/>
</mask>
<g mask="url(#mask2_57_1355)">
<path d="M40.7884 22.1626C40.0443 27.465 37.4034 32.4812 33.4529 36.0954C32.0754 37.3558 30.5499 38.4469 29.1783 39.7137C25.5997 43.019 23.1472 47.5223 22.312 52.3217L25.7184 53.567C27.3198 50.1339 28.9798 46.6172 31.7084 43.9896C33.851 41.9262 36.5348 40.5287 38.9115 38.7398C42.3963 36.1169 45.221 32.6239 47.0568 28.6674L40.7884 22.1626Z" fill="#1A1A1A"/>
</g>
<mask id="mask3_57_1355" style="mask-type:luminance" maskUnits="userSpaceOnUse" x="16" y="20" width="28" height="28">
<path d="M29.8633 47.2739C37.2695 47.2739 43.2734 41.27 43.2734 33.8638C43.2734 26.4575 37.2695 20.4536 29.8633 20.4536C22.4571 20.4536 16.4531 26.4575 16.4531 33.8638C16.4531 41.27 22.4571 47.2739 29.8633 47.2739Z" fill="white"/>
</mask>
<g mask="url(#mask3_57_1355)">
<path d="M37.6246 20.27C34.1442 21.7827 31.7113 25.0338 30.0522 28.447C29.2622 30.0723 28.599 31.7813 27.5093 33.223C26.7307 34.2533 25.7521 35.12 24.7007 35.8698C21.3517 38.2584 17.1884 39.4826 13.0795 39.287L10.1562 22.7131L23.1346 16.2114L37.6246 20.27Z" fill="#1A1A1A"/>
</g>
</g>
<path opacity="0.2" d="M29.8633 43.3272C23.1276 43.3272 17.5532 38.3607 16.5988 31.8901C16.5038 32.5342 16.4531 33.1927 16.4531 33.8632C16.4531 41.2694 22.4571 47.2733 29.8633 47.2733C37.2695 47.2733 43.2734 41.2694 43.2734 33.8632C43.2734 33.1927 43.2226 32.5342 43.1277 31.8901C42.1734 38.3607 36.599 43.3272 29.8633 43.3272Z" fill="#1A1A1A"/>
<path opacity="0.3" d="M29.8633 21.3739C37.1151 21.3739 43.0186 27.131 43.2618 34.3237C43.2669 34.1705 43.2734 34.0177 43.2734 33.8633C43.2734 26.4571 37.2694 20.4531 29.8633 20.4531C22.4571 20.4531 16.4531 26.4571 16.4531 33.8633C16.4531 34.0177 16.4596 34.1705 16.4648 34.3237C16.7079 27.131 22.6115 21.3739 29.8633 21.3739Z" fill="white"/>
<path opacity="0.5" d="M37.9693 44.2722C38.0167 44.3593 35.5656 45.896 33.277 46.5784C33.1027 46.6304 32.4161 46.8305 31.4948 46.9615C30.8603 47.0516 30.497 47.0508 29.7702 47.0491C29.3719 47.0482 29.0145 47.0326 28.6376 46.8299C28.3954 46.6997 28.0855 46.4499 28.1334 46.3257C28.2036 46.1434 29.014 46.3115 29.4195 46.3768C31.8936 46.7755 34.4028 45.7857 36.1279 45.1053C37.3738 44.6139 37.9462 44.2298 37.9693 44.2722Z" fill="white"/>
<path opacity="0.5" d="M27.7364 46.3363C27.7527 46.4446 27.6434 46.5582 27.5568 46.6122C27.1113 46.89 26.1469 46.2887 26.1988 46.0822C26.2375 45.928 26.8507 45.9619 27.2406 46.0571C27.4088 46.0981 27.7116 46.172 27.7364 46.3363Z" fill="white"/>
<path opacity="0.5" d="M22.1578 44.0091C22.1567 44.0367 22.1522 44.1378 22.0859 44.1849C21.7693 44.4096 20.4756 43.1736 19.6415 42.1461C19.0262 41.3881 18.5496 40.5746 18.5892 40.5457C18.6047 40.5344 18.6978 40.6434 19.0168 41.0061C19.6551 41.732 19.9743 42.0949 20.1238 42.2447C20.5482 42.6698 20.8276 42.9495 21.2858 43.2422C21.7154 43.5166 22.1704 43.7181 22.1578 44.0091Z" fill="white"/>
<path opacity="0.5" d="M33.0171 22.6673C33.0817 22.3551 32.8809 22.0497 32.5686 21.9851C32.2564 21.9206 31.9509 22.1214 31.8864 22.4336C31.8218 22.7459 32.0227 23.0513 32.3349 23.1159C32.6472 23.1804 32.9526 22.9796 33.0171 22.6673Z" fill="white"/>
<path opacity="0.5" d="M31.4363 22.379C31.2433 22.7418 30.6538 22.7832 29.9456 22.7883C28.5377 22.7982 27.3131 22.8069 27.2856 22.5544C27.2569 22.2906 28.5582 21.948 29.4194 21.8237C29.7186 21.7805 31.285 21.5544 31.4802 22.0429C31.5381 22.1877 31.4549 22.344 31.4363 22.379Z" fill="white"/>
</g>
<g filter="url(#filter3_d_57_1355)">
<path d="M71.8633 58.2734C79.2695 58.2734 85.2734 52.2695 85.2734 44.8633C85.2734 37.4571 79.2695 31.4531 71.8633 31.4531C64.4571 31.4531 58.4531 37.4571 58.4531 44.8633C58.4531 52.2695 64.4571 58.2734 71.8633 58.2734Z" fill="url(#paint2_radial_57_1355)"/>
<path d="M71.8632 31.4531C79.2694 31.4531 85.2734 37.457 85.2734 44.8632C85.2734 52.2695 79.2694 58.2734 71.8632 58.2734C64.457 58.2734 58.4531 52.2694 58.4531 44.8632C58.4531 37.457 64.457 31.4531 71.8632 31.4531ZM71.8632 31C69.9919 31 68.1763 31.3666 66.4669 32.0896C64.816 32.7879 63.3335 33.7874 62.0604 35.0604C60.7874 36.3335 59.7879 37.816 59.0896 39.4668C58.3666 41.1763 58 42.9919 58 44.8632C58 46.7345 58.3666 48.55 59.0896 50.2595C59.7879 51.9104 60.7874 53.3929 62.0604 54.666C63.3335 55.939 64.816 56.9385 66.4669 57.6368C68.1763 58.3598 69.9919 58.7264 71.8632 58.7264C73.7345 58.7264 75.5502 58.3598 77.2595 57.6368C78.9104 56.9385 80.3929 55.939 81.666 54.666C82.939 53.3929 83.9385 51.9104 84.6368 50.2595C85.3598 48.55 85.7264 46.7345 85.7264 44.8632C85.7264 42.9919 85.3598 41.1763 84.6368 39.4668C83.9385 37.816 82.939 36.3335 81.666 35.0604C80.3929 33.7874 78.9104 32.7879 77.2595 32.0896C75.5502 31.3666 73.7345 31 71.8632 31Z" fill="#9C6400"/>
<g opacity="0.3">
<mask id="mask4_57_1355" style="mask-type:luminance" maskUnits="userSpaceOnUse" x="58" y="31" width="28" height="28">
<path d="M71.8633 58.2734C79.2695 58.2734 85.2734 52.2695 85.2734 44.8633C85.2734 37.4571 79.2695 31.4531 71.8633 31.4531C64.4571 31.4531 58.4531 37.4571 58.4531 44.8633C58.4531 52.2695 64.4571 58.2734 71.8633 58.2734Z" fill="white"/>
</mask>
<g mask="url(#mask4_57_1355)">
<path d="M82.7884 33.1621C82.0443 38.4645 79.4034 43.4807 75.4529 47.0949C74.0754 48.3553 72.5499 49.4464 71.1783 50.7132C67.5997 54.0185 65.1472 58.5218 64.312 63.3212L67.7184 64.5665C69.3198 61.1334 70.9798 57.6168 73.7084 54.9891C75.851 52.9258 78.5348 51.5282 80.9115 49.7394C84.3963 47.1164 87.221 43.6234 89.0568 39.6669L82.7884 33.1621Z" fill="#1A1A1A"/>
</g>
<mask id="mask5_57_1355" style="mask-type:luminance" maskUnits="userSpaceOnUse" x="58" y="31" width="28" height="28">
<path d="M71.8633 58.2734C79.2695 58.2734 85.2734 52.2695 85.2734 44.8633C85.2734 37.4571 79.2695 31.4531 71.8633 31.4531C64.4571 31.4531 58.4531 37.4571 58.4531 44.8633C58.4531 52.2695 64.4571 58.2734 71.8633 58.2734Z" fill="white"/>
</mask>
<g mask="url(#mask5_57_1355)">
<path d="M79.6246 31.27C76.1441 32.7828 73.7113 36.0339 72.0522 39.447C71.2621 41.0723 70.5989 42.7814 69.5093 44.2231C68.7306 45.2533 67.7521 46.1201 66.7007 46.8699C63.3516 49.2584 59.1884 50.4826 55.0795 50.2871L52.1562 33.7132L65.1346 27.2114L79.6246 31.27Z" fill="#1A1A1A"/>
</g>
</g>
<path opacity="0.2" d="M71.8633 54.3272C65.1276 54.3272 59.5532 49.3607 58.5988 42.8901C58.5038 43.5342 58.4531 44.1927 58.4531 44.8632C58.4531 52.2694 64.4571 58.2733 71.8633 58.2733C79.2695 58.2733 85.2734 52.2694 85.2734 44.8632C85.2734 44.1927 85.2226 43.5342 85.1277 42.8901C84.1734 49.3607 78.599 54.3272 71.8633 54.3272Z" fill="#1A1A1A"/>
<path opacity="0.3" d="M71.8633 32.3739C79.1151 32.3739 85.0186 38.131 85.2618 45.3237C85.2669 45.1705 85.2734 45.0177 85.2734 44.8633C85.2734 37.4571 79.2694 31.4531 71.8633 31.4531C64.4571 31.4531 58.4531 37.4571 58.4531 44.8633C58.4531 45.0177 58.4596 45.1705 58.4648 45.3237C58.7079 38.131 64.6115 32.3739 71.8633 32.3739Z" fill="white"/>
<path opacity="0.5" d="M79.9688 55.2722C80.0162 55.3593 77.5651 56.896 75.2765 57.5784C75.1022 57.6304 74.4156 57.8305 73.4943 57.9615C72.8599 58.0516 72.4965 58.0508 71.7698 58.0491C71.3715 58.0482 71.014 58.0326 70.6371 57.8299C70.3949 57.6997 70.085 57.4499 70.1329 57.3257C70.2031 57.1434 71.0135 57.3115 71.419 57.3768C73.8931 57.7755 76.4023 56.7857 78.1274 56.1053C79.3733 55.6139 79.9457 55.2298 79.9688 55.2722Z" fill="white"/>
<path opacity="0.5" d="M69.7359 57.3358C69.7522 57.444 69.6429 57.5577 69.5563 57.6117C69.1108 57.8896 68.1464 57.2882 68.1983 57.0817C68.237 56.9275 68.8502 56.9614 69.2401 57.0566C69.4083 57.0976 69.7111 57.1715 69.7359 57.3358Z" fill="white"/>
<path opacity="0.5" d="M64.1578 55.0091C64.1567 55.0367 64.1522 55.1378 64.0859 55.1849C63.7693 55.4096 62.4756 54.1736 61.6415 53.1461C61.0262 52.3881 60.5496 51.5746 60.5892 51.5457C60.6047 51.5344 60.6978 51.6434 61.0168 52.0061C61.6551 52.732 61.9743 53.0949 62.1238 53.2447C62.5482 53.6698 62.8276 53.9495 63.2858 54.2422C63.7154 54.5166 64.1704 54.7181 64.1578 55.0091Z" fill="white"/>
<path opacity="0.5" d="M74.7921 34.0127C75.0493 33.8243 75.1051 33.463 74.9166 33.2058C74.7282 32.9486 74.367 32.8928 74.1098 33.0812C73.8526 33.2696 73.7968 33.6309 73.9852 33.8881C74.1736 34.1453 74.5348 34.2011 74.7921 34.0127Z" fill="white"/>
<path opacity="0.5" d="M73.4358 33.3791C73.2428 33.7418 72.6533 33.7833 71.9451 33.7883C70.5373 33.7982 69.3127 33.8069 69.2851 33.5544C69.2564 33.2906 70.5577 32.948 71.4189 32.8237C71.7181 32.7805 73.2845 32.5544 73.4797 33.0429C73.5376 33.1878 73.4544 33.3441 73.4358 33.3791Z" fill="white"/>
</g>
<defs>
<filter id="filter0_i_57_1355" x="0" y="0" width="100" height="100" filterUnits="userSpaceOnUse" color-interpolation-filters="sRGB">
<feFlood flood-opacity="0" result="BackgroundImageFix"/>
<feBlend mode="normal" in="SourceGraphic" in2="BackgroundImageFix" result="shape"/>
<feColorMatrix in="SourceAlpha" type="matrix" values="0 0 0 0 0 0 0 0 0 0 0 0 0 0 0 0 0 0 127 0" result="hardAlpha"/>
<feMorphology radius="10" operator="erode" in="SourceAlpha" result="effect1_innerShadow_57_1355"/>
<feOffset/>
<feGaussianBlur stdDeviation="5"/>
<feComposite in2="hardAlpha" operator="arithmetic" k2="-1" k3="1"/>
<feColorMatrix type="matrix" values="0 0 0 0 0 0 0 0 0 0 0 0 0 0 0 0 0 0 0.3 0"/>
<feBlend mode="normal" in2="shape" result="effect1_innerShadow_57_1355"/>
</filter>
<filter id="filter1_d_57_1355" x="24.5" y="47.5" width="36.7266" height="36.7266" filterUnits="userSpaceOnUse" color-interpolation-filters="sRGB">
<feFlood flood-opacity="0" result="BackgroundImageFix"/>
<feColorMatrix in="SourceAlpha" type="matrix" values="0 0 0 0 0 0 0 0 0 0 0 0 0 0 0 0 0 0 127 0" result="hardAlpha"/>
<feOffset dy="1"/>
<feGaussianBlur stdDeviation="2.25"/>
<feComposite in2="hardAlpha" operator="out"/>
<feColorMatrix type="matrix" values="0 0 0 0 0 0 0 0 0 0 0 0 0 0 0 0 0 0 0.6 0"/>
<feBlend mode="normal" in2="BackgroundImageFix" result="effect1_dropShadow_57_1355"/>
<feBlend mode="normal" in="SourceGraphic" in2="effect1_dropShadow_57_1355" result="shape"/>
</filter>
<filter id="filter2_d_57_1355" x="11.5" y="16.5" width="36.7266" height="36.7266" filterUnits="userSpaceOnUse" color-interpolation-filters="sRGB">
<feFlood flood-opacity="0" result="BackgroundImageFix"/>
<feColorMatrix in="SourceAlpha" type="matrix" values="0 0 0 0 0 0 0 0 0 0 0 0 0 0 0 0 0 0 127 0" result="hardAlpha"/>
<feOffset dy="1"/>
<feGaussianBlur stdDeviation="2.25"/>
<feComposite in2="hardAlpha" operator="out"/>
<feColorMatrix type="matrix" values="0 0 0 0 0 0 0 0 0 0 0 0 0 0 0 0 0 0 0.6 0"/>
<feBlend mode="normal" in2="BackgroundImageFix" result="effect1_dropShadow_57_1355"/>
<feBlend mode="normal" in="SourceGraphic" in2="effect1_dropShadow_57_1355" result="shape"/>
</filter>
<filter id="filter3_d_57_1355" x="53.5" y="27.5" width="36.7266" height="36.7266" filterUnits="userSpaceOnUse" color-interpolation-filters="sRGB">
<feFlood flood-opacity="0" result="BackgroundImageFix"/>
<feColorMatrix in="SourceAlpha" type="matrix" values="0 0 0 0 0 0 0 0 0 0 0 0 0 0 0 0 0 0 127 0" result="hardAlpha"/>
<feOffset dy="1"/>
<feGaussianBlur stdDeviation="2.25"/>
<feComposite in2="hardAlpha" operator="out"/>
<feColorMatrix type="matrix" values="0 0 0 0 0 0 0 0 0 0 0 0 0 0 0 0 0 0 0.6 0"/>
<feBlend mode="normal" in2="BackgroundImageFix" result="effect1_dropShadow_57_1355"/>
<feBlend mode="normal" in="SourceGraphic" in2="effect1_dropShadow_57_1355" result="shape"/>
</filter>
<radialGradient id="paint0_radial_57_1355" cx="0" cy="0" r="1" gradientUnits="userSpaceOnUse" gradientTransform="translate(42.8633 64.8633) scale(13.4101)">
<stop stop-color="#BA47FF"/>
<stop offset="0.1526" stop-color="#B544FA"/>
<stop offset="0.3401" stop-color="#A63CEB"/>
<stop offset="0.5458" stop-color="#8F2ED2"/>
<stop offset="0.7647" stop-color="#6D1AAF"/>
<stop offset="0.9917" stop-color="#430183"/>
<stop offset="1" stop-color="#410081"/>
</radialGradient>
<radialGradient id="paint1_radial_57_1355" cx="0" cy="0" r="1" gradientUnits="userSpaceOnUse" gradientTransform="translate(29.8633 33.8633) scale(13.4101)">
<stop stop-color="#2897FF"/>
<stop offset="0.1578" stop-color="#2693FA"/>
<stop offset="0.3517" stop-color="#2187EB"/>
<stop offset="0.5645" stop-color="#1974D2"/>
<stop offset="0.7892" stop-color="#0D59AF"/>
<stop offset="1" stop-color="#003A88"/>
</radialGradient>
<radialGradient id="paint2_radial_57_1355" cx="0" cy="0" r="1" gradientUnits="userSpaceOnUse" gradientTransform="translate(71.8633 44.8633) scale(13.4101)">
<stop stop-color="#FECC5C"/>
<stop offset="0.2365" stop-color="#FDC857"/>
<stop offset="0.527" stop-color="#FABB48"/>
<stop offset="0.8444" stop-color="#F4A62F"/>
<stop offset="1" stop-color="#F19920"/>
</radialGradient>
</defs>
</svg>
