<svg width="100" height="200" viewBox="0 0 100 200" fill="none" xmlns="http://www.w3.org/2000/svg">
<g filter="url(#filter0_i_57_1362)">
<rect width="100" height="200" rx="20" fill="#8F5E30"/>
</g>
<g filter="url(#filter1_d_57_1362)">
<path d="M40.8633 166.273C48.2695 166.273 54.2734 160.27 54.2734 152.863C54.2734 145.457 48.2695 139.453 40.8633 139.453C33.4571 139.453 27.4531 145.457 27.4531 152.863C27.4531 160.27 33.4571 166.273 40.8633 166.273Z" fill="url(#paint0_radial_57_1362)"/>
<path d="M40.8632 139.453C48.2694 139.453 54.2734 145.457 54.2734 152.863C54.2734 160.269 48.2694 166.273 40.8632 166.273C33.457 166.273 27.4531 160.269 27.4531 152.863C27.4531 145.457 33.457 139.453 40.8632 139.453ZM40.8632 139C38.9919 139 37.1763 139.367 35.4669 140.09C33.816 140.788 32.3335 141.787 31.0604 143.06C29.7874 144.333 28.7879 145.816 28.0896 147.467C27.3666 149.176 27 150.992 27 152.863C27 154.735 27.3666 156.55 28.0896 158.26C28.7879 159.91 29.7874 161.393 31.0604 162.666C32.3335 163.939 33.816 164.939 35.4669 165.637C37.1763 166.36 38.9919 166.726 40.8632 166.726C42.7345 166.726 44.5502 166.36 46.2595 165.637C47.9104 164.939 49.3929 163.939 50.666 162.666C51.939 161.393 52.9385 159.91 53.6367 158.26C54.3598 156.55 54.7264 154.735 54.7264 152.863C54.7264 150.992 54.3598 149.176 53.6367 147.467C52.9385 145.816 51.939 144.334 50.666 143.06C49.3929 141.787 47.9104 140.788 46.2595 140.09C44.5502 139.367 42.7345 139 40.8632 139Z" fill="#321C75"/>
<g opacity="0.3">
<mask id="mask0_57_1362" style="mask-type:luminance" maskUnits="userSpaceOnUse" x="27" y="139" width="28" height="28">
<path d="M40.8633 166.273C48.2695 166.273 54.2734 160.27 54.2734 152.863C54.2734 145.457 48.2695 139.453 40.8633 139.453C33.4571 139.453 27.4531 145.457 27.4531 152.863C27.4531 160.27 33.4571 166.273 40.8633 166.273Z" fill="white"/>
</mask>
<g mask="url(#mask0_57_1362)">
<path d="M51.7884 141.162C51.0443 146.464 48.4034 151.481 44.4529 155.095C43.0754 156.355 41.5499 157.446 40.1783 158.713C36.5997 162.019 34.1471 166.522 33.312 171.321L36.7184 172.566C38.3198 169.133 39.9798 165.617 42.7084 162.989C44.851 160.926 47.5348 159.528 49.9115 157.739C53.3963 155.116 56.221 151.623 58.0568 147.667L51.7884 141.162Z" fill="#1A1A1A"/>
</g>
<mask id="mask1_57_1362" style="mask-type:luminance" maskUnits="userSpaceOnUse" x="27" y="139" width="28" height="28">
<path d="M40.8633 166.273C48.2695 166.273 54.2734 160.27 54.2734 152.863C54.2734 145.457 48.2695 139.453 40.8633 139.453C33.4571 139.453 27.4531 145.457 27.4531 152.863C27.4531 160.27 33.4571 166.273 40.8633 166.273Z" fill="white"/>
</mask>
<g mask="url(#mask1_57_1362)">
<path d="M48.6246 139.27C45.1441 140.782 42.7113 144.033 41.0523 147.447C40.2622 149.072 39.599 150.781 38.5093 152.223C37.7307 153.253 36.7521 154.12 35.7007 154.869C32.3517 157.258 28.1884 158.482 24.0795 158.287L21.1562 141.713L34.1346 135.211L48.6246 139.27Z" fill="#1A1A1A"/>
</g>
</g>
<path opacity="0.2" d="M40.8633 162.327C34.1276 162.327 28.5532 157.361 27.5988 150.89C27.5038 151.534 27.4531 152.193 27.4531 152.863C27.4531 160.269 33.4571 166.273 40.8633 166.273C48.2694 166.273 54.2734 160.269 54.2734 152.863C54.2734 152.193 54.2226 151.534 54.1277 150.89C53.1734 157.361 47.599 162.327 40.8633 162.327Z" fill="#1A1A1A"/>
<path opacity="0.3" d="M40.8633 140.374C48.1151 140.374 54.0186 146.131 54.2618 153.324C54.2669 153.171 54.2734 153.018 54.2734 152.863C54.2734 145.457 48.2694 139.453 40.8633 139.453C33.4571 139.453 27.4531 145.457 27.4531 152.863C27.4531 153.018 27.4596 153.171 27.4648 153.324C27.7079 146.131 33.6115 140.374 40.8633 140.374Z" fill="white"/>
<path opacity="0.5" d="M48.9693 163.272C49.0167 163.359 46.5656 164.896 44.277 165.578C44.1027 165.63 43.4161 165.831 42.4948 165.961C41.8603 166.052 41.497 166.051 40.7703 166.049C40.3719 166.048 40.0145 166.033 39.6376 165.83C39.3954 165.7 39.0855 165.45 39.1334 165.326C39.2036 165.143 40.014 165.312 40.4195 165.377C42.8936 165.776 45.4028 164.786 47.1279 164.105C48.3738 163.614 48.9462 163.23 48.9693 163.272Z" fill="white"/>
<path opacity="0.5" d="M38.7364 165.336C38.7527 165.444 38.6434 165.558 38.5568 165.612C38.1113 165.89 37.1469 165.288 37.1988 165.082C37.2375 164.928 37.8507 164.961 38.2406 165.057C38.4088 165.098 38.7116 165.172 38.7364 165.336Z" fill="white"/>
<path opacity="0.5" d="M33.1578 163.009C33.1567 163.036 33.1522 163.137 33.0859 163.184C32.7693 163.409 31.4756 162.173 30.6415 161.146C30.0262 160.388 29.5496 159.574 29.5892 159.545C29.6047 159.534 29.6978 159.643 30.0167 160.006C30.6551 160.731 30.9743 161.094 31.1238 161.244C31.5483 161.669 31.8276 161.949 32.2858 162.242C32.7154 162.516 33.1704 162.718 33.1578 163.009Z" fill="white"/>
<path opacity="0.5" d="M44.0142 141.688C44.0875 141.378 43.8953 141.067 43.585 140.993C43.2747 140.92 42.9638 141.112 42.8905 141.423C42.8172 141.733 43.0094 142.044 43.3197 142.117C43.63 142.19 43.9409 141.998 44.0142 141.688Z" fill="white"/>
<path opacity="0.5" d="M42.4363 141.379C42.2433 141.741 41.6538 141.783 40.9456 141.788C39.5377 141.798 38.3131 141.806 38.2856 141.554C38.2569 141.29 39.5582 140.948 40.4194 140.823C40.7186 140.78 42.2849 140.554 42.4802 141.042C42.5381 141.187 42.4549 141.344 42.4363 141.379Z" fill="white"/>
</g>
<defs>
<filter id="filter0_i_57_1362" x="0" y="0" width="100" height="200" filterUnits="userSpaceOnUse" color-interpolation-filters="sRGB">
<feFlood flood-opacity="0" result="BackgroundImageFix"/>
<feBlend mode="normal" in="SourceGraphic" in2="BackgroundImageFix" result="shape"/>
<feColorMatrix in="SourceAlpha" type="matrix" values="0 0 0 0 0 0 0 0 0 0 0 0 0 0 0 0 0 0 127 0" result="hardAlpha"/>
<feMorphology radius="10" operator="erode" in="SourceAlpha" result="effect1_innerShadow_57_1362"/>
<feOffset/>
<feGaussianBlur stdDeviation="5"/>
<feComposite in2="hardAlpha" operator="arithmetic" k2="-1" k3="1"/>
<feColorMatrix type="matrix" values="0 0 0 0 0 0 0 0 0 0 0 0 0 0 0 0 0 0 0.3 0"/>
<feBlend mode="normal" in2="shape" result="effect1_innerShadow_57_1362"/>
</filter>
<filter id="filter1_d_57_1362" x="22.5" y="135.5" width="36.7266" height="36.7266" filterUnits="userSpaceOnUse" color-interpolation-filters="sRGB">
<feFlood flood-opacity="0" result="BackgroundImageFix"/>
<feColorMatrix in="SourceAlpha" type="matrix" values="0 0 0 0 0 0 0 0 0 0 0 0 0 0 0 0 0 0 127 0" result="hardAlpha"/>
<feOffset dy="1"/>
<feGaussianBlur stdDeviation="2.25"/>
<feComposite in2="hardAlpha" operator="out"/>
<feColorMatrix type="matrix" values="0 0 0 0 0 0 0 0 0 0 0 0 0 0 0 0 0 0 0.6 0"/>
<feBlend mode="normal" in2="BackgroundImageFix" result="effect1_dropShadow_57_1362"/>
<feBlend mode="normal" in="SourceGraphic" in2="effect1_dropShadow_57_1362" result="shape"/>
</filter>
<radialGradient id="paint0_radial_57_1362" cx="0" cy="0" r="1" gradientUnits="userSpaceOnUse" gradientTransform="translate(40.8633 152.863) scale(13.4101)">
<stop stop-color="#BA47FF"/>
<stop offset="0.1526" stop-color="#B544FA"/>
<stop offset="0.3401" stop-color="#A63CEB"/>
<stop offset="0.5458" stop-color="#8F2ED2"/>
<stop offset="0.7647" stop-color="#6D1AAF"/>
<stop offset="0.9917" stop-color="#430183"/>
<stop offset="1" stop-color="#410081"/>
</radialGradient>
</defs>
</svg>
