<svg width="100" height="200" viewBox="0 0 100 200" fill="none" xmlns="http://www.w3.org/2000/svg">
<g filter="url(#filter0_i_57_1356)">
<rect width="100" height="200" rx="20" fill="#8F5E30"/>
</g>
<g filter="url(#filter1_d_57_1356)">
<path d="M35.8633 66.2734C43.2695 66.2734 49.2734 60.2695 49.2734 52.8633C49.2734 45.4571 43.2695 39.4531 35.8633 39.4531C28.4571 39.4531 22.4531 45.4571 22.4531 52.8633C22.4531 60.2695 28.4571 66.2734 35.8633 66.2734Z" fill="url(#paint0_radial_57_1356)"/>
<path d="M35.8632 39.4531C43.2694 39.4531 49.2733 45.457 49.2733 52.8632C49.2733 60.2694 43.2694 66.2734 35.8632 66.2734C28.457 66.2734 22.453 60.2694 22.453 52.8632C22.453 45.457 28.457 39.4531 35.8632 39.4531ZM35.8632 39C33.9919 39 32.1762 39.3666 30.4668 40.0896C28.816 40.7879 27.3335 41.7874 26.0604 43.0604C24.7874 44.3335 23.7879 45.816 23.0896 47.4669C22.3666 49.1763 22 50.9919 22 52.8632C22 54.7345 22.3666 56.5502 23.0896 58.2595C23.7879 59.9104 24.7874 61.393 26.0604 62.666C27.3335 63.939 28.816 64.9386 30.4668 65.6368C32.1763 66.3598 33.9919 66.7264 35.8632 66.7264C37.7345 66.7264 39.5501 66.3599 41.2595 65.6368C42.9104 64.9386 44.3929 63.939 45.666 62.666C46.939 61.393 47.9385 59.9104 48.6368 58.2595C49.3598 56.5502 49.7264 54.7345 49.7264 52.8632C49.7264 50.9919 49.3598 49.1763 48.6368 47.4669C47.9385 45.816 46.939 44.3335 45.666 43.0604C44.3929 41.7874 42.9104 40.7879 41.2595 40.0896C39.5501 39.3666 37.7345 39 35.8632 39Z" fill="#880063"/>
<g opacity="0.3">
<mask id="mask0_57_1356" style="mask-type:luminance" maskUnits="userSpaceOnUse" x="22" y="39" width="28" height="28">
<path d="M35.8633 66.2734C43.2695 66.2734 49.2734 60.2695 49.2734 52.8633C49.2734 45.4571 43.2695 39.4531 35.8633 39.4531C28.4571 39.4531 22.4531 45.4571 22.4531 52.8633C22.4531 60.2695 28.4571 66.2734 35.8633 66.2734Z" fill="white"/>
</mask>
<g mask="url(#mask0_57_1356)">
<path d="M46.7884 41.1621C46.0443 46.4645 43.4034 51.4807 39.453 55.0949C38.0754 56.3553 36.5499 57.4464 35.1783 58.7132C31.5997 62.0185 29.1471 66.5218 28.312 71.3212L31.7184 72.5665C33.3198 69.1334 34.9798 65.6168 37.7084 62.9891C39.851 60.9258 42.5348 59.5282 44.9115 57.7394C48.3963 55.1164 51.221 51.6234 53.0568 47.6669L46.7884 41.1621Z" fill="#1A1A1A"/>
</g>
<mask id="mask1_57_1356" style="mask-type:luminance" maskUnits="userSpaceOnUse" x="22" y="39" width="28" height="28">
<path d="M35.8633 66.2734C43.2695 66.2734 49.2734 60.2695 49.2734 52.8633C49.2734 45.4571 43.2695 39.4531 35.8633 39.4531C28.4571 39.4531 22.4531 45.4571 22.4531 52.8633C22.4531 60.2695 28.4571 66.2734 35.8633 66.2734Z" fill="white"/>
</mask>
<g mask="url(#mask1_57_1356)">
<path d="M43.6246 39.2695C40.1442 40.7823 37.7113 44.0333 36.0522 47.4465C35.2622 49.0718 34.599 50.7808 33.5093 52.2225C32.7307 53.2528 31.7521 54.1195 30.7007 54.8694C27.3517 57.2579 23.1884 58.4821 19.0795 58.2865L16.1562 41.7126L29.1346 35.2109L43.6246 39.2695Z" fill="#1A1A1A"/>
</g>
</g>
<path opacity="0.2" d="M35.8633 62.3272C29.1275 62.3272 23.5532 57.3607 22.5988 50.8901C22.5038 51.5342 22.4531 52.1927 22.4531 52.8632C22.4531 60.2694 28.4571 66.2733 35.8633 66.2733C43.2694 66.2733 49.2734 60.2694 49.2734 52.8632C49.2734 52.1927 49.2226 51.5342 49.1277 50.8901C48.1734 57.3607 42.599 62.3272 35.8633 62.3272Z" fill="#1A1A1A"/>
<path opacity="0.3" d="M35.8633 40.3739C43.1151 40.3739 49.0186 46.131 49.2618 53.3237C49.2669 53.1705 49.2734 53.0177 49.2734 52.8633C49.2734 45.4571 43.2694 39.4531 35.8633 39.4531C28.4571 39.4531 22.4531 45.4571 22.4531 52.8633C22.4531 53.0177 22.4596 53.1705 22.4648 53.3237C22.7079 46.131 28.6115 40.3739 35.8633 40.3739Z" fill="white"/>
<path opacity="0.5" d="M43.9688 63.2722C44.0162 63.3593 41.5651 64.896 39.2765 65.5784C39.1022 65.6304 38.4157 65.8305 37.4943 65.9615C36.8599 66.0516 36.4965 66.0508 35.7698 66.0491C35.3715 66.0482 35.014 66.0326 34.6371 65.8299C34.3949 65.6997 34.085 65.4499 34.1329 65.3257C34.2031 65.1434 35.0135 65.3115 35.419 65.3768C37.8931 65.7755 40.4023 64.7857 42.1274 64.1053C43.3733 63.6139 43.9457 63.2298 43.9688 63.2722Z" fill="white"/>
<path opacity="0.5" d="M33.7363 65.3358C33.7527 65.4441 33.6434 65.5577 33.5568 65.6117C33.1113 65.8896 32.1469 65.2882 32.1988 65.0817C32.2375 64.9275 32.8507 64.9614 33.2406 65.0566C33.4088 65.0976 33.7116 65.1715 33.7363 65.3358Z" fill="white"/>
<path opacity="0.5" d="M28.1578 63.0086C28.1567 63.0362 28.1522 63.1374 28.0859 63.1844C27.7693 63.4091 26.4756 62.1731 25.6415 61.1456C25.0262 60.3876 24.5496 59.5742 24.5892 59.5452C24.6047 59.5339 24.6978 59.6429 25.0167 60.0056C25.6551 60.7315 25.9743 61.0944 26.1238 61.2442C26.5482 61.6693 26.8276 61.9491 27.2858 62.2417C27.7154 62.5161 28.1704 62.7176 28.1578 63.0086Z" fill="white"/>
<path opacity="0.5" d="M38.859 41.9546C39.0844 41.7292 39.0844 41.3636 38.859 41.1382C38.6335 40.9127 38.268 40.9127 38.0425 41.1382C37.817 41.3636 37.817 41.7292 38.0425 41.9546C38.268 42.1801 38.6335 42.1801 38.859 41.9546Z" fill="white"/>
<path opacity="0.5" d="M37.4358 41.3785C37.2428 41.7413 36.6533 41.7827 35.9451 41.7878C34.5373 41.7978 33.3127 41.8064 33.2851 41.5539C33.2564 41.2901 34.5577 40.9475 35.4189 40.8232C35.7181 40.78 37.2844 40.5539 37.4797 41.0424C37.5376 41.1872 37.4544 41.3435 37.4358 41.3785Z" fill="white"/>
</g>
<g filter="url(#filter2_d_57_1356)">
<path d="M71.8633 47.2734C79.2695 47.2734 85.2734 41.2695 85.2734 33.8633C85.2734 26.4571 79.2695 20.4531 71.8633 20.4531C64.4571 20.4531 58.4531 26.4571 58.4531 33.8633C58.4531 41.2695 64.4571 47.2734 71.8633 47.2734Z" fill="url(#paint1_radial_57_1356)"/>
<path d="M71.8632 20.4531C79.2694 20.4531 85.2734 26.457 85.2734 33.8632C85.2734 41.2694 79.2694 47.2734 71.8632 47.2734C64.457 47.2734 58.4531 41.2694 58.4531 33.8632C58.4531 26.457 64.457 20.4531 71.8632 20.4531ZM71.8632 20C69.9919 20 68.1763 20.3666 66.4669 21.0896C64.816 21.7879 63.3335 22.7874 62.0604 24.0604C60.7874 25.3335 59.7879 26.816 59.0896 28.4669C58.3666 30.1763 58 31.9919 58 33.8632C58 35.7345 58.3666 37.5502 59.0896 39.2595C59.7879 40.9104 60.7874 42.393 62.0604 43.666C63.3335 44.939 64.816 45.9386 66.4669 46.6368C68.1763 47.3598 69.9919 47.7264 71.8632 47.7264C73.7345 47.7264 75.5502 47.3599 77.2595 46.6368C78.9104 45.9386 80.3929 44.939 81.666 43.666C82.939 42.393 83.9385 40.9104 84.6368 39.2595C85.3598 37.5502 85.7264 35.7345 85.7264 33.8632C85.7264 31.9919 85.3598 30.1763 84.6368 28.4669C83.9385 26.816 82.939 25.3335 81.666 24.0604C80.3929 22.7874 78.9104 21.7879 77.2595 21.0896C75.5502 20.3666 73.7345 20 71.8632 20Z" fill="#1C3875"/>
<g opacity="0.3">
<mask id="mask2_57_1356" style="mask-type:luminance" maskUnits="userSpaceOnUse" x="58" y="20" width="28" height="28">
<path d="M71.8633 47.2739C79.2695 47.2739 85.2734 41.27 85.2734 33.8638C85.2734 26.4575 79.2695 20.4536 71.8633 20.4536C64.4571 20.4536 58.4531 26.4575 58.4531 33.8638C58.4531 41.27 64.4571 47.2739 71.8633 47.2739Z" fill="white"/>
</mask>
<g mask="url(#mask2_57_1356)">
<path d="M82.7884 22.1626C82.0443 27.465 79.4034 32.4812 75.4529 36.0954C74.0754 37.3558 72.5499 38.4469 71.1783 39.7137C67.5997 43.019 65.1472 47.5223 64.312 52.3217L67.7184 53.567C69.3198 50.1339 70.9798 46.6172 73.7084 43.9896C75.851 41.9262 78.5348 40.5287 80.9115 38.7398C84.3963 36.1169 87.221 32.6239 89.0568 28.6674L82.7884 22.1626Z" fill="#1A1A1A"/>
</g>
<mask id="mask3_57_1356" style="mask-type:luminance" maskUnits="userSpaceOnUse" x="58" y="20" width="28" height="28">
<path d="M71.8633 47.2739C79.2695 47.2739 85.2734 41.27 85.2734 33.8638C85.2734 26.4575 79.2695 20.4536 71.8633 20.4536C64.4571 20.4536 58.4531 26.4575 58.4531 33.8638C58.4531 41.27 64.4571 47.2739 71.8633 47.2739Z" fill="white"/>
</mask>
<g mask="url(#mask3_57_1356)">
<path d="M79.6246 20.27C76.1442 21.7827 73.7113 25.0338 72.0522 28.447C71.2622 30.0723 70.599 31.7813 69.5093 33.223C68.7307 34.2533 67.7521 35.12 66.7007 35.8698C63.3517 38.2584 59.1884 39.4826 55.0795 39.287L52.1562 22.7131L65.1346 16.2114L79.6246 20.27Z" fill="#1A1A1A"/>
</g>
</g>
<path opacity="0.2" d="M71.8633 43.3272C65.1276 43.3272 59.5532 38.3607 58.5988 31.8901C58.5038 32.5342 58.4531 33.1927 58.4531 33.8632C58.4531 41.2694 64.4571 47.2733 71.8633 47.2733C79.2695 47.2733 85.2734 41.2694 85.2734 33.8632C85.2734 33.1927 85.2226 32.5342 85.1277 31.8901C84.1734 38.3607 78.599 43.3272 71.8633 43.3272Z" fill="#1A1A1A"/>
<path opacity="0.3" d="M71.8633 21.3739C79.1151 21.3739 85.0186 27.131 85.2618 34.3237C85.2669 34.1705 85.2734 34.0177 85.2734 33.8633C85.2734 26.4571 79.2694 20.4531 71.8633 20.4531C64.4571 20.4531 58.4531 26.4571 58.4531 33.8633C58.4531 34.0177 58.4596 34.1705 58.4648 34.3237C58.7079 27.131 64.6115 21.3739 71.8633 21.3739Z" fill="white"/>
<path opacity="0.5" d="M79.9693 44.2722C80.0167 44.3593 77.5656 45.896 75.277 46.5784C75.1027 46.6304 74.4161 46.8305 73.4948 46.9615C72.8603 47.0516 72.497 47.0508 71.7702 47.0491C71.3719 47.0482 71.0145 47.0326 70.6376 46.8299C70.3954 46.6997 70.0855 46.4499 70.1334 46.3257C70.2036 46.1434 71.014 46.3115 71.4195 46.3768C73.8936 46.7755 76.4028 45.7857 78.1279 45.1053C79.3738 44.6139 79.9462 44.2298 79.9693 44.2722Z" fill="white"/>
<path opacity="0.5" d="M69.7364 46.3363C69.7527 46.4446 69.6434 46.5582 69.5568 46.6122C69.1113 46.89 68.1469 46.2887 68.1988 46.0822C68.2375 45.928 68.8507 45.9619 69.2406 46.0571C69.4088 46.0981 69.7116 46.172 69.7364 46.3363Z" fill="white"/>
<path opacity="0.5" d="M64.1578 44.0091C64.1567 44.0367 64.1522 44.1378 64.0859 44.1849C63.7693 44.4096 62.4756 43.1736 61.6415 42.1461C61.0262 41.3881 60.5496 40.5746 60.5892 40.5457C60.6047 40.5344 60.6978 40.6434 61.0168 41.0061C61.6551 41.732 61.9743 42.0949 62.1238 42.2447C62.5482 42.6698 62.8276 42.9495 63.2858 43.2422C63.7154 43.5166 64.1704 43.7181 64.1578 44.0091Z" fill="white"/>
<path opacity="0.5" d="M75.0171 22.6673C75.0817 22.3551 74.8809 22.0497 74.5686 21.9851C74.2564 21.9206 73.9509 22.1214 73.8864 22.4336C73.8218 22.7459 74.0227 23.0513 74.3349 23.1159C74.6472 23.1804 74.9526 22.9796 75.0171 22.6673Z" fill="white"/>
<path opacity="0.5" d="M73.4363 22.379C73.2433 22.7418 72.6538 22.7832 71.9456 22.7883C70.5377 22.7982 69.3131 22.8069 69.2856 22.5544C69.2569 22.2906 70.5582 21.948 71.4194 21.8237C71.7186 21.7805 73.285 21.5544 73.4802 22.0429C73.5381 22.1877 73.4549 22.344 73.4363 22.379Z" fill="white"/>
</g>
<g filter="url(#filter3_d_57_1356)">
<path d="M38.9653 180.375C46.3716 180.375 52.3755 174.371 52.3755 166.964C52.3755 159.558 46.3716 153.554 38.9653 153.554C31.5591 153.554 25.5552 159.558 25.5552 166.964C25.5552 174.371 31.5591 180.375 38.9653 180.375Z" fill="url(#paint2_radial_57_1356)"/>
<path d="M38.9652 153.555C46.3714 153.555 52.3754 159.559 52.3754 166.965C52.3754 174.371 46.3714 180.375 38.9652 180.375C31.559 180.375 25.5551 174.371 25.5551 166.965C25.5551 159.559 31.559 153.555 38.9652 153.555ZM38.9652 153.102C37.0939 153.102 35.2783 153.468 33.5689 154.191C31.918 154.889 30.4355 155.889 29.1625 157.162C27.8895 158.435 26.8899 159.918 26.1917 161.568C25.4686 163.278 25.1021 165.093 25.1021 166.965C25.1021 168.836 25.4686 170.652 26.1917 172.361C26.8899 174.012 27.8895 175.494 29.1625 176.768C30.4355 178.041 31.9181 179.04 33.5689 179.738C35.2783 180.461 37.0939 180.828 38.9652 180.828C40.8365 180.828 42.6522 180.461 44.3615 179.738C46.0124 179.04 47.4949 178.041 48.768 176.768C50.0411 175.494 51.0406 174.012 51.7388 172.361C52.4619 170.652 52.8284 168.836 52.8284 166.965C52.8284 165.093 52.4619 163.278 51.7388 161.568C51.0406 159.918 50.041 158.435 48.768 157.162C47.495 155.889 46.0124 154.889 44.3615 154.191C42.6522 153.468 40.8365 153.102 38.9652 153.102Z" fill="#3F5916"/>
<g opacity="0.3">
<mask id="mask4_57_1356" style="mask-type:luminance" maskUnits="userSpaceOnUse" x="25" y="153" width="28" height="28">
<path d="M48.447 176.447C53.6839 171.21 53.6839 162.719 48.447 157.482C43.21 152.245 34.7193 152.245 29.4823 157.482C24.2454 162.719 24.2454 171.21 29.4823 176.447C34.7193 181.684 43.21 181.684 48.447 176.447Z" fill="white"/>
</mask>
<g mask="url(#mask4_57_1356)">
<path d="M49.8904 155.264C49.1464 160.566 46.5055 165.582 42.555 169.197C41.1774 170.457 39.652 171.548 38.2804 172.815C34.7017 176.12 32.2492 180.623 31.4141 185.423L34.8205 186.668C36.4218 183.235 38.0818 179.718 40.8104 177.091C42.9531 175.027 45.6369 173.63 48.0135 171.841C51.4983 169.218 54.323 165.725 56.1589 161.768L49.8904 155.264Z" fill="#1A1A1A"/>
</g>
<mask id="mask5_57_1356" style="mask-type:luminance" maskUnits="userSpaceOnUse" x="25" y="153" width="28" height="28">
<path d="M48.447 176.447C53.6839 171.21 53.6839 162.719 48.447 157.482C43.21 152.245 34.7193 152.245 29.4823 157.482C24.2454 162.719 24.2454 171.21 29.4823 176.447C34.7193 181.684 43.21 181.684 48.447 176.447Z" fill="white"/>
</mask>
<g mask="url(#mask5_57_1356)">
<path d="M46.7267 153.371C43.2462 154.884 40.8134 158.135 39.1543 161.548C38.3643 163.173 37.701 164.882 36.6114 166.324C35.8327 167.354 34.8542 168.221 33.8028 168.971C30.4537 171.359 26.2905 172.584 22.1816 172.388L19.2583 155.814L32.2366 149.312L46.7267 153.371Z" fill="#1A1A1A"/>
</g>
</g>
<path opacity="0.2" d="M38.9653 176.429C32.2296 176.429 26.6552 171.462 25.7009 164.992C25.6059 165.636 25.5552 166.294 25.5552 166.965C25.5552 174.371 31.5591 180.375 38.9653 180.375C46.3715 180.375 52.3754 174.371 52.3754 166.965C52.3754 166.294 52.3247 165.636 52.2297 164.992C51.2754 171.462 45.701 176.429 38.9653 176.429Z" fill="#1A1A1A"/>
<path opacity="0.3" d="M38.9653 154.475C46.2171 154.475 52.1206 160.232 52.3638 167.425C52.369 167.272 52.3754 167.119 52.3754 166.964C52.3754 159.558 46.3715 153.554 38.9653 153.554C31.5591 153.554 25.5552 159.558 25.5552 166.964C25.5552 167.119 25.5616 167.272 25.5668 167.425C25.81 160.232 31.7136 154.475 38.9653 154.475Z" fill="white"/>
<path opacity="0.5" d="M47.0714 177.374C47.1187 177.461 44.6676 178.998 42.379 179.68C42.2048 179.732 41.5182 179.932 40.5969 180.063C39.9624 180.153 39.599 180.152 38.8723 180.151C38.474 180.15 38.1165 180.134 37.7396 179.931C37.4975 179.801 37.1875 179.551 37.2354 179.427C37.3056 179.245 38.116 179.413 38.5215 179.478C40.9957 179.877 43.5049 178.887 45.2299 178.207C46.4759 177.715 47.0483 177.331 47.0714 177.374Z" fill="white"/>
<path opacity="0.5" d="M36.8384 179.437C36.8548 179.546 36.7454 179.659 36.6588 179.713C36.2134 179.991 35.249 179.39 35.3008 179.183C35.3396 179.029 35.9528 179.063 36.3426 179.158C36.5109 179.199 36.8136 179.273 36.8384 179.437Z" fill="white"/>
<path opacity="0.5" d="M31.2604 177.11C31.2592 177.138 31.2548 177.239 31.1885 177.286C30.8718 177.511 29.5782 176.275 28.7441 175.247C28.1287 174.489 27.6521 173.676 27.6918 173.647C27.7072 173.635 27.8004 173.744 28.1193 174.107C28.7577 174.833 29.0768 175.196 29.2264 175.346C29.6508 175.771 29.9301 176.051 30.3883 176.343C30.8179 176.618 31.2729 176.819 31.2604 177.11Z" fill="white"/>
<path opacity="0.5" d="M41.5539 156.225C41.8727 156.225 42.1312 155.967 42.1312 155.648C42.1312 155.329 41.8727 155.071 41.5539 155.071C41.235 155.071 40.9766 155.329 40.9766 155.648C40.9766 155.967 41.235 156.225 41.5539 156.225Z" fill="white"/>
<path opacity="0.5" d="M40.5384 155.48C40.3454 155.843 39.7559 155.884 39.0477 155.889C37.6398 155.899 36.4152 155.908 36.3877 155.656C36.359 155.392 37.6602 155.049 38.5215 154.925C38.8206 154.882 40.3869 154.655 40.5823 155.144C40.6402 155.289 40.557 155.445 40.5384 155.48Z" fill="white"/>
</g>
<g filter="url(#filter4_d_57_1356)">
<path d="M57.8633 122.273C65.2695 122.273 71.2734 116.269 71.2734 108.863C71.2734 101.457 65.2695 95.4531 57.8633 95.4531C50.4571 95.4531 44.4531 101.457 44.4531 108.863C44.4531 116.269 50.4571 122.273 57.8633 122.273Z" fill="url(#paint3_radial_57_1356)"/>
<path d="M57.8632 95.4531C65.2694 95.4531 71.2733 101.457 71.2733 108.863C71.2733 116.269 65.2694 122.273 57.8632 122.273C50.457 122.273 44.453 116.269 44.453 108.863C44.453 101.457 50.457 95.4531 57.8632 95.4531ZM57.8632 95C55.9919 95 54.1762 95.3666 52.4668 96.0896C50.816 96.7879 49.3335 97.7874 48.0604 99.0604C46.7874 100.333 45.7879 101.816 45.0896 103.467C44.3666 105.176 44 106.992 44 108.863C44 110.734 44.3666 112.55 45.0896 114.259C45.7879 115.91 46.7874 117.393 48.0604 118.666C49.3335 119.939 50.816 120.939 52.4668 121.637C54.1763 122.36 55.9919 122.726 57.8632 122.726C59.7345 122.726 61.5501 122.36 63.2595 121.637C64.9104 120.939 66.3929 119.939 67.666 118.666C68.939 117.393 69.9385 115.91 70.6368 114.259C71.3598 112.55 71.7264 110.734 71.7264 108.863C71.7264 106.992 71.3598 105.176 70.6368 103.467C69.9385 101.816 68.939 100.333 67.666 99.0604C66.3929 97.7874 64.9104 96.7879 63.2595 96.0896C61.5501 95.3666 59.7345 95 57.8632 95Z" fill="#822012"/>
<g opacity="0.3">
<mask id="mask6_57_1356" style="mask-type:luminance" maskUnits="userSpaceOnUse" x="44" y="95" width="28" height="28">
<path d="M57.8633 122.273C65.2695 122.273 71.2734 116.269 71.2734 108.863C71.2734 101.457 65.2695 95.4531 57.8633 95.4531C50.4571 95.4531 44.4531 101.457 44.4531 108.863C44.4531 116.269 50.4571 122.273 57.8633 122.273Z" fill="white"/>
</mask>
<g mask="url(#mask6_57_1356)">
<path d="M68.7884 97.1621C68.0443 102.464 65.4034 107.481 61.453 111.095C60.0754 112.355 58.5499 113.446 57.1783 114.713C53.5997 118.019 51.1471 122.522 50.312 127.321L53.7184 128.566C55.3198 125.133 56.9798 121.617 59.7084 118.989C61.851 116.926 64.5348 115.528 66.9115 113.739C70.3963 111.116 73.221 107.623 75.0568 103.667L68.7884 97.1621Z" fill="#1A1A1A"/>
</g>
<mask id="mask7_57_1356" style="mask-type:luminance" maskUnits="userSpaceOnUse" x="44" y="95" width="28" height="28">
<path d="M57.8633 122.273C65.2695 122.273 71.2734 116.269 71.2734 108.863C71.2734 101.457 65.2695 95.4531 57.8633 95.4531C50.4571 95.4531 44.4531 101.457 44.4531 108.863C44.4531 116.269 50.4571 122.273 57.8633 122.273Z" fill="white"/>
</mask>
<g mask="url(#mask7_57_1356)">
<path d="M65.6246 95.27C62.1442 96.7828 59.7113 100.034 58.0522 103.447C57.2622 105.072 56.599 106.781 55.5093 108.223C54.7307 109.253 53.7521 110.12 52.7007 110.87C49.3517 113.258 45.1884 114.483 41.0795 114.287L38.1562 97.7132L51.1346 91.2114L65.6246 95.27Z" fill="#1A1A1A"/>
</g>
</g>
<path opacity="0.2" d="M57.8633 118.327C51.1275 118.327 45.5532 113.361 44.5988 106.89C44.5038 107.534 44.4531 108.193 44.4531 108.863C44.4531 116.269 50.4571 122.273 57.8633 122.273C65.2694 122.273 71.2734 116.269 71.2734 108.863C71.2734 108.193 71.2226 107.534 71.1277 106.89C70.1734 113.361 64.599 118.327 57.8633 118.327Z" fill="#1A1A1A"/>
<path opacity="0.3" d="M57.8633 96.3739C65.1151 96.3739 71.0186 102.131 71.2618 109.324C71.2669 109.171 71.2734 109.018 71.2734 108.863C71.2734 101.457 65.2694 95.4531 57.8633 95.4531C50.4571 95.4531 44.4531 101.457 44.4531 108.863C44.4531 109.018 44.4596 109.171 44.4648 109.324C44.7079 102.131 50.6115 96.3739 57.8633 96.3739Z" fill="white"/>
<path opacity="0.5" d="M65.9688 119.273C66.0162 119.36 63.5651 120.896 61.2765 121.579C61.1022 121.631 60.4157 121.831 59.4943 121.962C58.8599 122.052 58.4965 122.051 57.7698 122.05C57.3715 122.049 57.014 122.033 56.6371 121.83C56.3949 121.7 56.085 121.45 56.1329 121.326C56.2031 121.144 57.0135 121.312 57.419 121.377C59.8931 121.776 62.4023 120.786 64.1274 120.106C65.3733 119.614 65.9457 119.23 65.9688 119.273Z" fill="white"/>
<path opacity="0.5" d="M55.7363 121.336C55.7527 121.444 55.6434 121.558 55.5568 121.612C55.1113 121.89 54.1469 121.288 54.1988 121.082C54.2375 120.928 54.8507 120.961 55.2406 121.057C55.4088 121.098 55.7116 121.172 55.7363 121.336Z" fill="white"/>
<path opacity="0.5" d="M50.1578 119.009C50.1567 119.037 50.1522 119.138 50.0859 119.185C49.7693 119.41 48.4756 118.174 47.6415 117.146C47.0262 116.388 46.5496 115.575 46.5892 115.546C46.6047 115.534 46.6978 115.643 47.0167 116.006C47.6551 116.732 47.9743 117.095 48.1238 117.245C48.5482 117.67 48.8276 117.95 49.2858 118.242C49.7154 118.517 50.1704 118.718 50.1578 119.009Z" fill="white"/>
<path opacity="0.5" d="M61.0157 97.683C61.0889 97.3727 60.8968 97.0617 60.5865 96.9885C60.2762 96.9152 59.9652 97.1073 59.8919 97.4176C59.8187 97.7279 60.0108 98.0389 60.3211 98.1122C60.6314 98.1854 60.9424 97.9933 61.0157 97.683Z" fill="white"/>
<path opacity="0.5" d="M59.4358 97.3791C59.2428 97.7418 58.6533 97.7833 57.9451 97.7883C56.5373 97.7982 55.3127 97.8069 55.2851 97.5544C55.2564 97.2906 56.5577 96.948 57.4189 96.8237C57.7181 96.7805 59.2844 96.5544 59.4797 97.0429C59.5376 97.1878 59.4544 97.3441 59.4358 97.3791Z" fill="white"/>
</g>
<defs>
<filter id="filter0_i_57_1356" x="0" y="0" width="100" height="200" filterUnits="userSpaceOnUse" color-interpolation-filters="sRGB">
<feFlood flood-opacity="0" result="BackgroundImageFix"/>
<feBlend mode="normal" in="SourceGraphic" in2="BackgroundImageFix" result="shape"/>
<feColorMatrix in="SourceAlpha" type="matrix" values="0 0 0 0 0 0 0 0 0 0 0 0 0 0 0 0 0 0 127 0" result="hardAlpha"/>
<feMorphology radius="10" operator="erode" in="SourceAlpha" result="effect1_innerShadow_57_1356"/>
<feOffset/>
<feGaussianBlur stdDeviation="5"/>
<feComposite in2="hardAlpha" operator="arithmetic" k2="-1" k3="1"/>
<feColorMatrix type="matrix" values="0 0 0 0 0 0 0 0 0 0 0 0 0 0 0 0 0 0 0.3 0"/>
<feBlend mode="normal" in2="shape" result="effect1_innerShadow_57_1356"/>
</filter>
<filter id="filter1_d_57_1356" x="17.5" y="35.5" width="36.7266" height="36.7266" filterUnits="userSpaceOnUse" color-interpolation-filters="sRGB">
<feFlood flood-opacity="0" result="BackgroundImageFix"/>
<feColorMatrix in="SourceAlpha" type="matrix" values="0 0 0 0 0 0 0 0 0 0 0 0 0 0 0 0 0 0 127 0" result="hardAlpha"/>
<feOffset dy="1"/>
<feGaussianBlur stdDeviation="2.25"/>
<feComposite in2="hardAlpha" operator="out"/>
<feColorMatrix type="matrix" values="0 0 0 0 0 0 0 0 0 0 0 0 0 0 0 0 0 0 0.6 0"/>
<feBlend mode="normal" in2="BackgroundImageFix" result="effect1_dropShadow_57_1356"/>
<feBlend mode="normal" in="SourceGraphic" in2="effect1_dropShadow_57_1356" result="shape"/>
</filter>
<filter id="filter2_d_57_1356" x="53.5" y="16.5" width="36.7266" height="36.7266" filterUnits="userSpaceOnUse" color-interpolation-filters="sRGB">
<feFlood flood-opacity="0" result="BackgroundImageFix"/>
<feColorMatrix in="SourceAlpha" type="matrix" values="0 0 0 0 0 0 0 0 0 0 0 0 0 0 0 0 0 0 127 0" result="hardAlpha"/>
<feOffset dy="1"/>
<feGaussianBlur stdDeviation="2.25"/>
<feComposite in2="hardAlpha" operator="out"/>
<feColorMatrix type="matrix" values="0 0 0 0 0 0 0 0 0 0 0 0 0 0 0 0 0 0 0.6 0"/>
<feBlend mode="normal" in2="BackgroundImageFix" result="effect1_dropShadow_57_1356"/>
<feBlend mode="normal" in="SourceGraphic" in2="effect1_dropShadow_57_1356" result="shape"/>
</filter>
<filter id="filter3_d_57_1356" x="20.6021" y="149.602" width="36.7266" height="36.7266" filterUnits="userSpaceOnUse" color-interpolation-filters="sRGB">
<feFlood flood-opacity="0" result="BackgroundImageFix"/>
<feColorMatrix in="SourceAlpha" type="matrix" values="0 0 0 0 0 0 0 0 0 0 0 0 0 0 0 0 0 0 127 0" result="hardAlpha"/>
<feOffset dy="1"/>
<feGaussianBlur stdDeviation="2.25"/>
<feComposite in2="hardAlpha" operator="out"/>
<feColorMatrix type="matrix" values="0 0 0 0 0 0 0 0 0 0 0 0 0 0 0 0 0 0 0.6 0"/>
<feBlend mode="normal" in2="BackgroundImageFix" result="effect1_dropShadow_57_1356"/>
<feBlend mode="normal" in="SourceGraphic" in2="effect1_dropShadow_57_1356" result="shape"/>
</filter>
<filter id="filter4_d_57_1356" x="39.5" y="91.5" width="36.7266" height="36.7266" filterUnits="userSpaceOnUse" color-interpolation-filters="sRGB">
<feFlood flood-opacity="0" result="BackgroundImageFix"/>
<feColorMatrix in="SourceAlpha" type="matrix" values="0 0 0 0 0 0 0 0 0 0 0 0 0 0 0 0 0 0 127 0" result="hardAlpha"/>
<feOffset dy="1"/>
<feGaussianBlur stdDeviation="2.25"/>
<feComposite in2="hardAlpha" operator="out"/>
<feColorMatrix type="matrix" values="0 0 0 0 0 0 0 0 0 0 0 0 0 0 0 0 0 0 0.6 0"/>
<feBlend mode="normal" in2="BackgroundImageFix" result="effect1_dropShadow_57_1356"/>
<feBlend mode="normal" in="SourceGraphic" in2="effect1_dropShadow_57_1356" result="shape"/>
</filter>
<radialGradient id="paint0_radial_57_1356" cx="0" cy="0" r="1" gradientUnits="userSpaceOnUse" gradientTransform="translate(35.8633 52.8633) scale(13.4101)">
<stop stop-color="#FE5FE1"/>
<stop offset="0.1803" stop-color="#F95ADC"/>
<stop offset="0.4018" stop-color="#EB4BCE"/>
<stop offset="0.6448" stop-color="#D332B8"/>
<stop offset="0.9015" stop-color="#B20F98"/>
<stop offset="1" stop-color="#A3008A"/>
</radialGradient>
<radialGradient id="paint1_radial_57_1356" cx="0" cy="0" r="1" gradientUnits="userSpaceOnUse" gradientTransform="translate(71.8633 33.8633) scale(13.4101)">
<stop stop-color="#2897FF"/>
<stop offset="0.1578" stop-color="#2693FA"/>
<stop offset="0.3517" stop-color="#2187EB"/>
<stop offset="0.5645" stop-color="#1974D2"/>
<stop offset="0.7892" stop-color="#0D59AF"/>
<stop offset="1" stop-color="#003A88"/>
</radialGradient>
<radialGradient id="paint2_radial_57_1356" cx="0" cy="0" r="1" gradientUnits="userSpaceOnUse" gradientTransform="translate(38.9653 166.964) scale(13.4101)">
<stop stop-color="#C9FF28"/>
<stop offset="0.1578" stop-color="#C4FA26"/>
<stop offset="0.3517" stop-color="#B6EB21"/>
<stop offset="0.5645" stop-color="#A0D219"/>
<stop offset="0.7892" stop-color="#80AF0D"/>
<stop offset="1" stop-color="#5C8800"/>
</radialGradient>
<radialGradient id="paint3_radial_57_1356" cx="0" cy="0" r="1" gradientUnits="userSpaceOnUse" gradientTransform="translate(57.8633 108.863) scale(13.4101)">
<stop stop-color="#FE9456"/>
<stop offset="0.2057" stop-color="#FD8F52"/>
<stop offset="0.4583" stop-color="#FB8046"/>
<stop offset="0.7344" stop-color="#F66732"/>
<stop offset="1" stop-color="#F1481A"/>
</radialGradient>
</defs>
</svg>
